<svg width="51" height="15" viewBox="0 0 51 15" fill="none" xmlns="http://www.w3.org/2000/svg">
<path d="M1.91919 6.51172C1.3669 6.51172 0.919189 6.95943 0.919189 7.51172C0.919189 8.064 1.3669 8.51172 1.91919 8.51172V6.51172ZM50.4263 8.21883C50.8168 7.8283 50.8168 7.19514 50.4263 6.80461L44.0623 0.440651C43.6718 0.0501266 43.0386 0.0501266 42.6481 0.440651C42.2576 0.831175 42.2576 1.46434 42.6481 1.85486L48.305 7.51172L42.6481 13.1686C42.2576 13.5591 42.2576 14.1923 42.6481 14.5828C43.0386 14.9733 43.6718 14.9733 44.0623 14.5828L50.4263 8.21883ZM1.91919 8.51172H49.7192V6.51172H1.91919V8.51172Z" fill="white"/>
</svg>
