<svg width="135" height="41" viewBox="0 0 135 41" fill="none" xmlns="http://www.w3.org/2000/svg">
<path d="M19.7566 5.82507V0H25.2488V5.82507H19.7566Z" fill="#0DDA84"/>
<path d="M39.5273 5.82507V0H45.0196V5.82507H39.5273Z" fill="#0DDA84"/>
<path d="M75.9338 5.82507V0H81.426V5.82507H75.9338Z" fill="#0DDA84"/>
<path d="M5.4506 17.5859H0V40.2205H5.4506V17.5859Z" fill="#F4F6FA"/>
<path d="M5.4506 0H0V13.6681H5.4506V0Z" fill="#0DDA84"/>
<path d="M108.984 0H103.534V13.6681H108.984V0Z" fill="#0DDA84"/>
<path d="M7.98877 40.2208L18.6819 9.22314H26.0049L36.698 40.2208H30.5401L28.3349 33.5636H16.3519L14.1051 40.2208H7.98877ZM17.9746 28.5707H26.7122L21.5529 13.1343H23.134L17.9746 28.5707Z" fill="#F4F6FA"/>
<path d="M39.7285 40.2208V9.22314H45.1375L56.746 24.9924H54.1664L65.5253 9.22314H70.9343V40.2208H65.234V15.6723L67.4392 16.2132L55.6642 31.8993H54.9985L43.5148 16.2132L45.3872 15.6723V40.2208H39.7285Z" fill="#F4F6FA"/>
<path d="M88.3538 40.7199C86.7172 40.7199 85.2055 40.4009 83.8186 39.7629C82.4594 39.0972 81.3776 38.1541 80.5732 36.9336L81.1141 35.8518V40.2206H75.9963V8.72363H81.4469V22.0797L80.6148 20.9563C81.3915 19.7358 82.4455 18.7927 83.777 18.127C85.1084 17.4335 86.6479 17.0868 88.3954 17.0868C90.5313 17.0868 92.4591 17.6138 94.1789 18.6679C95.8987 19.7219 97.2579 21.1366 98.2564 22.9118C99.2828 24.6871 99.7959 26.6843 99.7959 28.9033C99.7959 31.1224 99.2966 33.0918 98.298 34.8948C97.2995 36.6978 95.9403 38.1264 94.2205 39.1804C92.5007 40.2068 90.5452 40.7199 88.3538 40.7199ZM87.7297 35.727C88.9779 35.727 90.0875 35.4357 91.0583 34.8532C92.0292 34.2707 92.7781 33.4663 93.3051 32.44C93.8599 31.4137 94.1373 30.2348 94.1373 28.9033C94.1373 27.5719 93.8599 26.4069 93.3051 25.4083C92.7781 24.382 92.0292 23.5776 91.0583 22.9951C90.0875 22.3848 88.9779 22.0797 87.7297 22.0797C86.4815 22.0797 85.4551 22.3709 84.4843 22.9534C83.5412 23.536 82.7923 24.3542 82.2375 25.4083C81.7105 26.4346 81.4469 27.5996 81.4469 28.9033C81.4469 30.2071 81.7105 31.4137 82.2375 32.44C82.7923 33.4663 83.5412 34.2707 84.4843 34.8532C85.4551 35.4357 86.5369 35.727 87.7297 35.727Z" fill="#F4F6FA"/>
<path d="M108.984 17.5859H103.534V40.2205H108.984V17.5859Z" fill="#F4F6FA"/>
<path d="M124.504 40.7201C122.257 40.7201 120.232 40.2069 118.429 39.1806C116.654 38.1265 115.253 36.7119 114.227 34.9366C113.201 33.1336 112.688 31.1087 112.688 28.8619C112.688 26.6151 113.201 24.604 114.227 22.8288C115.253 21.0535 116.654 19.6527 118.429 18.6264C120.232 17.6001 122.257 17.0869 124.504 17.0869C126.113 17.0869 127.611 17.3782 128.998 17.9607C130.385 18.5154 131.577 19.2921 132.576 20.2907C133.602 21.2615 134.337 22.4266 134.781 23.7857L129.996 25.8661C129.58 24.7289 128.873 23.8135 127.874 23.12C126.903 22.4266 125.78 22.0798 124.504 22.0798C123.311 22.0798 122.243 22.3711 121.3 22.9536C120.385 23.5361 119.664 24.3405 119.137 25.3668C118.61 26.3932 118.346 27.572 118.346 28.9035C118.346 30.2349 118.61 31.4138 119.137 32.4401C119.664 33.4665 120.385 34.2709 121.3 34.8534C122.243 35.4359 123.311 35.7271 124.504 35.7271C125.808 35.7271 126.945 35.3804 127.916 34.687C128.887 33.9935 129.58 33.0643 129.996 31.8992L134.781 34.0628C134.337 35.3388 133.616 36.4899 132.618 37.5163C131.619 38.5149 130.426 39.3054 129.039 39.8879C127.652 40.4427 126.141 40.7201 124.504 40.7201Z" fill="#F4F6FA"/>
</svg>
