<svg width="40" height="40" viewBox="0 0 40 40" fill="none" xmlns="http://www.w3.org/2000/svg">
<path fill-rule="evenodd" clip-rule="evenodd" d="M25.4492 25H16.631C16.6248 25 16.6185 25 16.6123 25C16.606 25 16.5998 25 16.5936 25H6.01279C6.00853 25 6.00427 25 6 25C2.68629 25 0 22.3137 0 19C0 15.6863 2.68629 13 6 13C6.27183 13 6.53944 13.0181 6.8017 13.0531C7.70761 8.46219 11.7556 5 16.6123 5C19.9033 5 22.823 6.58979 24.6454 9.0433C24.9204 9.01471 25.1996 9.00005 25.4822 9.00005C29.9005 9.00005 33.4822 12.5818 33.4822 17C33.4822 21.2444 30.177 24.7167 26 24.9836V25H25.5153C25.5042 25 25.4932 25 25.4822 25C25.4712 25 25.4602 25 25.4492 25Z" fill="#0DDA84"/>
<path fill-rule="evenodd" clip-rule="evenodd" d="M31.4492 35H22.631C22.6248 35 22.6185 35 22.6123 35C22.606 35 22.5998 35 22.5936 35H12.0128C12.0085 35 12.0043 35 12 35C8.68629 35 6 32.3137 6 29C6 25.6863 8.68629 23 12 23C12.2718 23 12.5394 23.0181 12.8017 23.0531C13.7076 18.4622 17.7556 15 22.6123 15C25.9033 15 28.823 16.5898 30.6454 19.0433C30.9204 19.0147 31.1996 19 31.4822 19C35.9005 19 39.4822 22.5818 39.4822 27C39.4822 31.2444 36.177 34.7167 32 34.9836V35H31.5153C31.5042 35 31.4932 35 31.4822 35C31.4712 35 31.4602 35 31.4492 35Z" fill="#4B5CFA"/>
<path fill-rule="evenodd" clip-rule="evenodd" d="M16.6311 25H25.4492L25.4823 25L25.5153 25H26.0001V24.9836C29.433 24.7642 32.2771 22.3797 33.1814 19.1809C32.6338 19.0624 32.0653 19 31.4823 19C31.1996 19 30.9204 19.0147 30.6454 19.0433C28.8231 16.5898 25.9034 15 22.6123 15C17.7557 15 13.7076 18.4622 12.8017 23.0531C12.5395 23.0181 12.2719 23 12 23C10.223 23 8.62647 23.7725 7.52783 25H16.5936L16.6123 25L16.6311 25Z" fill="#002CD9"/>
</svg>
