<svg width="40" height="12" viewBox="0 0 40 12" fill="none" xmlns="http://www.w3.org/2000/svg">
<path d="M5.82227 1.71662V0H7.44079V1.71662H5.82227Z" fill="#4B5CFA"/>
<path d="M11.6484 1.71662V0H13.267V1.71662H11.6484Z" fill="#4B5CFA"/>
<path d="M22.3779 1.71662V0H23.9965V1.71662H22.3779Z" fill="#4B5CFA"/>
<path d="M1.60627 5.18255H0V11.8528H1.60627V5.18255Z" fill="#4B5CFA"/>
<path d="M1.60627 0H0V4.02793H1.60627V0Z" fill="#4B5CFA"/>
<path d="M32.117 0H30.5107V4.02793H32.117V0Z" fill="#4B5CFA"/>
<path d="M2.35449 11.8529L5.50572 2.71799H7.66376L10.815 11.8529H9.00027L8.3504 9.89101H4.81907L4.15694 11.8529H2.35449ZM5.29727 8.41962H7.8722L6.35177 3.87058H6.81771L5.29727 8.41962Z" fill="#4B5CFA"/>
<path d="M11.708 11.8529V2.71799H13.302L16.723 7.36513H15.9628L19.3102 2.71799H20.9042V11.8529H19.2244V4.61853L19.8742 4.77793L16.4042 9.40055H16.208L12.8238 4.77793L13.3756 4.61853V11.8529H11.708Z" fill="#4B5CFA"/>
<path d="M26.0372 12C25.5549 12 25.1094 11.906 24.7007 11.718C24.3001 11.5218 23.9813 11.2439 23.7443 10.8842L23.9037 10.5654V11.8528H22.3955V2.57083H24.0018V6.5068L23.7565 6.17574C23.9854 5.81606 24.2961 5.53813 24.6884 5.34195C25.0808 5.13759 25.5345 5.03541 26.0495 5.03541C26.6789 5.03541 27.247 5.19072 27.7538 5.50135C28.2606 5.81198 28.6612 6.22887 28.9555 6.75203C29.2579 7.27519 29.4091 7.86375 29.4091 8.5177C29.4091 9.17165 29.262 9.75203 28.9677 10.2834C28.6734 10.8147 28.2729 11.2357 27.7661 11.5463C27.2593 11.8488 26.683 12 26.0372 12ZM25.8533 10.5286C26.2211 10.5286 26.5481 10.4428 26.8342 10.2711C27.1203 10.0994 27.341 9.86238 27.4963 9.55993C27.6598 9.25748 27.7416 8.91007 27.7416 8.5177C27.7416 8.12533 27.6598 7.782 27.4963 7.48772C27.341 7.18527 27.1203 6.94821 26.8342 6.77655C26.5481 6.59672 26.2211 6.5068 25.8533 6.5068C25.4854 6.5068 25.183 6.59263 24.8969 6.76429C24.6189 6.93595 24.3982 7.1771 24.2347 7.48772C24.0794 7.79018 24.0018 8.1335 24.0018 8.5177C24.0018 8.90189 24.0794 9.25748 24.2347 9.55993C24.3982 9.86238 24.6189 10.0994 24.8969 10.2711C25.183 10.4428 25.5018 10.5286 25.8533 10.5286Z" fill="#4B5CFA"/>
<path d="M32.117 5.18255H30.5107V11.8528H32.117V5.18255Z" fill="#4B5CFA"/>
<path d="M36.6913 12C36.0291 12 35.4324 11.8488 34.9011 11.5463C34.3779 11.2357 33.9651 10.8188 33.6627 10.2956C33.3602 9.76431 33.209 9.16757 33.209 8.50545C33.209 7.84332 33.3602 7.25068 33.6627 6.72752C33.9651 6.20436 34.3779 5.79155 34.9011 5.4891C35.4324 5.18665 36.0291 5.03542 36.6913 5.03542C37.1654 5.03542 37.6068 5.12125 38.0155 5.29292C38.4242 5.4564 38.7757 5.68529 39.07 5.97956C39.3725 6.26567 39.5891 6.60899 39.7199 7.00954L38.3098 7.62262C38.1872 7.28747 37.9787 7.01771 37.6845 6.81335C37.3984 6.60899 37.0673 6.50681 36.6913 6.50681C36.3398 6.50681 36.0251 6.59264 35.7471 6.76431C35.4774 6.93597 35.2648 7.17303 35.1095 7.47548C34.9542 7.77793 34.8766 8.12534 34.8766 8.51771C34.8766 8.91008 34.9542 9.25749 35.1095 9.55995C35.2648 9.8624 35.4774 10.0995 35.7471 10.2711C36.0251 10.4428 36.3398 10.5286 36.6913 10.5286C37.0755 10.5286 37.4106 10.4264 37.6967 10.2221C37.9828 10.0177 38.1872 9.74387 38.3098 9.40055L39.7199 10.0381C39.5891 10.4142 39.3766 10.7534 39.0823 11.0559C38.788 11.3501 38.4365 11.5831 38.0278 11.7548C37.6191 11.9183 37.1736 12 36.6913 12Z" fill="#4B5CFA"/>
</svg>
