<svg width="183" height="56" viewBox="0 0 183 56" fill="none" xmlns="http://www.w3.org/2000/svg">
<path d="M26.8252 8.26499V0.355957H34.2823V8.26499H26.8252Z" fill="#0DDA84"/>
<path d="M53.6685 8.26499V0.355957H61.1255V8.26499H53.6685Z" fill="#0DDA84"/>
<path d="M103.1 8.26499V0.355957H110.557V8.26499H103.1Z" fill="#0DDA84"/>
<path d="M7.4006 24.2336H0V54.9659H7.4006V24.2336Z" fill="#F4F6FA"/>
<path d="M7.4006 0.355957H0V18.9139H7.4006V0.355957Z" fill="#0DDA84"/>
<path d="M147.974 0.355957H140.574V18.9139H147.974V0.355957Z" fill="#0DDA84"/>
<path d="M10.8467 54.966L25.3654 12.8787H35.3082L49.8269 54.966H41.4659L38.4718 45.9271H22.2018L19.1512 54.966H10.8467ZM24.405 39.148H36.2686L29.2634 18.189H31.4102L24.405 39.148Z" fill="#F4F6FA"/>
<path d="M53.9419 54.966V12.8787H61.286L77.0476 34.2895H73.545L88.9676 12.8787H96.3117V54.966H88.5722V21.6351L91.5663 22.3695L75.5787 43.6674H74.6749L59.0828 22.3695L61.625 21.6351V54.966H53.9419Z" fill="#F4F6FA"/>
<path d="M119.964 55.6436C117.741 55.6436 115.689 55.2105 113.806 54.3443C111.96 53.4404 110.492 52.1599 109.399 50.5028L110.134 49.0339V54.9657H103.185V12.2004H110.586V30.3347L109.456 28.8094C110.51 27.1523 111.941 25.8718 113.749 24.9679C115.557 24.0263 117.647 23.5556 120.02 23.5556C122.92 23.5556 125.537 24.2711 127.873 25.7023C130.208 27.1334 132.053 29.0542 133.409 31.4646C134.802 33.875 135.499 36.5866 135.499 39.5996C135.499 42.6126 134.821 45.2866 133.465 47.7346C132.11 50.1826 130.264 52.1222 127.929 53.5534C125.594 54.9469 122.939 55.6436 119.964 55.6436ZM119.116 48.8645C120.811 48.8645 122.317 48.469 123.636 47.6781C124.954 46.8872 125.971 45.795 126.686 44.4015C127.439 43.008 127.816 41.4074 127.816 39.5996C127.816 37.7918 127.439 36.21 126.686 34.8542C125.971 33.4607 124.954 32.3685 123.636 31.5776C122.317 30.749 120.811 30.3347 119.116 30.3347C117.421 30.3347 116.028 30.7302 114.71 31.5211C113.429 32.312 112.412 33.423 111.659 34.8542C110.943 36.2477 110.586 37.8295 110.586 39.5996C110.586 41.3697 110.943 43.008 111.659 44.4015C112.412 45.795 113.429 46.8872 114.71 47.6781C116.028 48.469 117.497 48.8645 119.116 48.8645Z" fill="#F4F6FA"/>
<path d="M147.974 24.2336H140.574V54.9659H147.974V24.2336Z" fill="#F4F6FA"/>
<path d="M169.046 55.644C165.996 55.644 163.247 54.9472 160.798 53.5537C158.388 52.1226 156.486 50.2018 155.093 47.7914C153.699 45.3434 153.002 42.5941 153.002 39.5435C153.002 36.4928 153.699 33.7623 155.093 31.352C156.486 28.9416 158.388 27.0397 160.798 25.6462C163.247 24.2527 165.996 23.5559 169.046 23.5559C171.231 23.5559 173.265 23.9514 175.148 24.7423C177.031 25.4955 178.65 26.55 180.006 27.9059C181.4 29.224 182.398 30.8059 183 32.6513L176.504 35.476C175.939 33.9318 174.978 32.689 173.622 31.7474C172.304 30.8059 170.779 30.3351 169.046 30.3351C167.427 30.3351 165.977 30.7305 164.697 31.5214C163.454 32.3123 162.474 33.4045 161.759 34.798C161.043 36.1915 160.686 37.7922 160.686 39.5999C160.686 41.4077 161.043 43.0084 161.759 44.4019C162.474 45.7954 163.454 46.8876 164.697 47.6785C165.977 48.4694 167.427 48.8648 169.046 48.8648C170.817 48.8648 172.361 48.394 173.679 47.4525C174.997 46.5109 175.939 45.2493 176.504 43.6675L183 46.6051C182.398 48.3375 181.418 49.9005 180.063 51.294C178.707 52.6499 177.087 53.7232 175.204 54.5141C173.321 55.2674 171.269 55.644 169.046 55.644Z" fill="#F4F6FA"/>
</svg>
