<svg width="162" height="157" viewBox="0 0 162 157" fill="none" xmlns="http://www.w3.org/2000/svg">
<g clip-path="url(#clip0_2765_10266)">
<path fill-rule="evenodd" clip-rule="evenodd" d="M81 0C36.2761 0 0 36.0409 0 80.4748C0 116.022 23.3558 146.138 55.1595 157C59.135 157.494 60.6258 155.025 60.6258 153.05C60.6258 151.075 60.6258 146.138 60.6258 139.226C38.2638 144.164 33.2945 128.365 33.2945 128.365C29.816 118.984 24.3497 116.516 24.3497 116.516C16.8957 111.579 24.8466 111.579 24.8466 111.579C32.7976 112.072 37.2699 119.972 37.2699 119.972C44.7239 132.314 56.1534 128.859 60.6258 126.884C61.1227 121.453 63.6074 117.997 65.5951 116.022C47.7055 114.047 28.8221 107.135 28.8221 76.0314C28.8221 67.1447 31.8037 60.2327 37.2699 54.3082C36.773 52.827 33.7914 44.434 38.2638 33.5723C38.2638 33.5723 45.2209 31.5975 60.6258 41.9654C67.0859 39.9906 74.0429 39.4969 81 39.4969C87.9571 39.4969 94.9141 40.4843 101.374 41.9654C116.779 31.5975 123.736 33.5723 123.736 33.5723C128.209 44.434 125.227 52.827 124.73 54.8019C129.699 60.2327 133.178 67.6384 133.178 76.5252C133.178 107.629 114.294 114.047 96.4049 116.022C99.3865 118.491 101.871 123.428 101.871 130.833C101.871 141.695 101.871 150.088 101.871 153.05C101.871 155.025 103.362 157.494 107.337 157C139.638 146.138 162.497 116.022 162.497 80.4748C162 36.0409 125.724 0 81 0Z" fill="#222945"/>
</g>
<defs>
<clipPath id="clip0_2765_10266">
<rect width="162" height="157" fill="white"/>
</clipPath>
</defs>
</svg>
