<svg width="147" height="47" viewBox="0 0 147 47" fill="none" xmlns="http://www.w3.org/2000/svg">
<path d="M67.2925 9.27246H72.0545L87.2194 30.6389H87.4319V9.27246H92.1939V38.2824H87.3933L72.267 16.916H72.0545V38.2824H67.2925V9.27246Z" fill="#222945"/>
<path d="M97.0835 26.9053C97.0835 19.5335 102.812 15.5288 108.454 15.5288C114.096 15.5288 119.824 19.5335 119.824 26.9053C119.824 34.277 114.096 38.2817 108.454 38.2817C102.812 38.2817 97.0835 34.277 97.0835 26.9053ZM108.454 34.0258C112.006 34.0258 115.227 31.4172 115.227 26.9053C115.227 22.3933 112.006 19.7847 108.454 19.7847C104.902 19.7847 101.637 22.3933 101.637 26.9053C101.637 31.4172 104.897 34.0258 108.454 34.0258Z" fill="#222945"/>
<path d="M142.367 45.7912V34.4857H142.236C141.434 36.1848 138.656 38.3396 134.651 38.3396C129.472 38.3396 124.032 34.5711 124.032 27.1622C124.032 19.7534 129.472 15.9849 134.651 15.9849C138.656 15.9849 141.439 18.1396 142.236 19.8388H142.367V16.4025H147V45.5787H142.367V45.7912ZM135.54 34.1914C139.081 34.1914 142.497 31.7898 142.497 27.1527C142.497 22.5157 139.081 20.1188 135.54 20.1188C131.999 20.1188 128.631 22.5204 128.631 27.1527C128.631 31.7851 132.047 34.1914 135.54 34.1914Z" fill="#222945"/>
<path d="M47.9934 6.78599C44.9309 3.72185 40.7812 2 36.4511 2C32.121 2 27.9713 3.72185 24.9087 6.78599C22.2533 9.44744 20.6064 12.9282 20.2178 16.6357C20.227 16.6357 20.2363 16.6357 20.2455 16.6357C20.4167 16.6542 20.5879 16.6773 20.7544 16.7051C20.7775 16.7051 20.8007 16.7144 20.8238 16.7144C20.9718 16.7375 21.1199 16.7607 21.2633 16.7884C21.3003 16.7977 21.3419 16.8023 21.379 16.8116C21.712 16.8764 22.0451 16.9504 22.3782 17.0337C22.4152 17.043 22.4522 17.0523 22.4892 17.0615C22.628 17.0985 22.7668 17.1356 22.9056 17.1772C22.9334 17.1865 22.9657 17.1957 22.9935 17.2004C23.1554 17.2513 23.322 17.3022 23.4839 17.3531C23.5116 17.3624 23.5394 17.3716 23.5625 17.3809C23.7013 17.4272 23.8355 17.4735 23.9696 17.5244C24.0066 17.5383 24.0483 17.5521 24.0853 17.566C24.2426 17.6262 24.4045 17.6864 24.5618 17.7558C26.5418 18.5751 28.3414 19.7785 29.8588 21.2967C31.3761 22.8149 32.5743 24.6154 33.3978 26.5965C34.2166 28.5775 34.6422 30.702 34.6422 32.8497V45.5599C37.0201 45.5599 39.3795 45.0878 41.5769 44.1759C43.779 43.2641 45.7775 41.9264 47.4614 40.237C49.1453 38.5522 50.4823 36.548 51.3937 34.3448C52.305 32.1415 52.7769 29.7763 52.7769 27.3926V18.3251C52.7769 13.9927 51.0559 9.83625 47.998 6.7721L47.9934 6.78599Z" stroke="#222945" stroke-width="2.5"/>
<path d="M20.2226 16.6409C19.5934 16.5668 18.9596 16.5298 18.3212 16.5298C13.9911 16.5298 9.84139 18.2516 6.77885 21.3158C3.71632 24.3799 2 28.5364 2 32.8688V38.3167C2 40.2422 2.76332 42.089 4.12342 43.4544C5.48352 44.8152 7.32937 45.5836 9.25386 45.5836H20.1347V18.3488C20.1347 17.7795 20.1624 17.2102 20.2226 16.6455V16.6409Z" stroke="#222945" stroke-width="2.5"/>
<path d="M34.6422 32.8683C34.6422 30.7207 34.2212 28.5961 33.3978 26.6151C32.579 24.634 31.3761 22.8289 29.8588 21.3153C28.3414 19.7971 26.5418 18.5937 24.5618 17.7744C24.4045 17.7096 24.2472 17.6448 24.0853 17.5847C24.0483 17.5708 24.0066 17.5569 23.9696 17.543C23.8355 17.4921 23.6967 17.4458 23.5625 17.3995C23.5348 17.3902 23.507 17.381 23.4839 17.3717C23.322 17.3162 23.16 17.2653 22.9935 17.219C22.9657 17.2097 22.9334 17.2005 22.9056 17.1958C22.7668 17.1542 22.628 17.1172 22.4892 17.0801C22.4522 17.0709 22.4152 17.0616 22.3782 17.0524C22.0498 16.969 21.7167 16.8904 21.379 16.8302C21.3419 16.8209 21.3003 16.8163 21.2633 16.807C21.1153 16.7793 20.9718 16.7561 20.8238 16.733C20.8007 16.733 20.7775 16.7237 20.7544 16.7237C20.5832 16.696 20.4167 16.6774 20.2455 16.6543C20.2363 16.6543 20.227 16.6543 20.2178 16.6543C20.1576 17.219 20.1299 17.7883 20.1299 18.3576V45.5924H34.6376V32.8822L34.6422 32.8683Z" stroke="#222945" stroke-width="2.5"/>
</svg>
