<svg width="128" height="169" viewBox="0 0 128 169" fill="none" xmlns="http://www.w3.org/2000/svg">
<g clip-path="url(#clip0_2752_11169)">
<path d="M125.484 8.25146H9.55014C8.51307 8.25146 7.67236 9.09218 7.67236 10.1292V167.122C7.67236 168.159 8.51307 169 9.55014 169H125.484C126.522 169 127.362 168.159 127.362 167.122V10.1292C127.362 9.09217 126.522 8.25146 125.484 8.25146Z" fill="#002CD9"/>
<path d="M0.383789 160.748L8.05622 168.403L54.6355 169L59.8451 8.25146H5.15604L0.383789 160.748Z" fill="#002CD9"/>
<path d="M124.294 164.229V11.5542C124.294 11.0211 124.067 10.5132 123.67 10.157L116.621 3.82739L10.7417 10.7166V166.107H122.416C123.453 166.107 124.294 165.266 124.294 164.229Z" fill="white"/>
<path d="M116.775 2.57959H0.920898V158.176H116.775V2.57959Z" fill="white"/>
<path d="M10.7416 165.938L3.22266 158.169H116.775L120.074 165.938H10.7416Z" fill="white"/>
<path d="M117.812 0.765381H1.87778C0.84071 0.765381 0 1.60609 0 2.64316V159.636C0 160.673 0.840706 161.514 1.87777 161.514H117.812C118.849 161.514 119.69 160.673 119.69 159.636V2.64316C119.69 1.60609 118.849 0.765381 117.812 0.765381Z" fill="#4B5CFA"/>
<path opacity="0.5" d="M3.83595 161.514L6.1377 161.514L6.13771 0.765656L3.83597 0.765655L3.83595 161.514Z" fill="url(#paint0_linear_2752_11169)"/>
<path opacity="0.8" d="M25.1142 28.1078C24.6233 28.1078 24.1653 28.021 23.7402 27.8473C23.3151 27.6737 22.9439 27.4312 22.6266 27.1199C22.3092 26.8086 22.0608 26.4433 21.8812 26.0243C21.7075 25.5992 21.6207 25.1412 21.6207 24.6502C21.6207 24.1533 21.7075 23.6953 21.8812 23.2762C22.0548 22.8571 22.3003 22.4919 22.6176 22.1805C22.9349 21.8692 23.3061 21.6297 23.7312 21.4621C24.1563 21.2884 24.6173 21.2016 25.1142 21.2016C25.6111 21.2016 26.0721 21.2884 26.4972 21.4621C26.9223 21.6357 27.2935 21.8782 27.6108 22.1895C27.9282 22.4948 28.1736 22.8571 28.3473 23.2762C28.5269 23.6953 28.6167 24.1533 28.6167 24.6502C28.6167 25.1412 28.5269 25.5992 28.3473 26.0243C28.1676 26.4433 27.9192 26.8086 27.6019 27.1199C27.2845 27.4312 26.9133 27.6737 26.4883 27.8473C26.0692 28.021 25.6111 28.1078 25.1142 28.1078ZM25.1142 26.9942C25.4435 26.9942 25.7459 26.9373 26.0213 26.8235C26.2967 26.7038 26.5361 26.5391 26.7397 26.3296C26.9493 26.12 27.1079 25.8716 27.2157 25.5842C27.3294 25.2968 27.3863 24.9855 27.3863 24.6502C27.3863 24.3149 27.3294 24.0066 27.2157 23.7252C27.1079 23.4378 26.9493 23.1894 26.7397 22.9798C26.5361 22.7643 26.2967 22.5996 26.0213 22.4859C25.7459 22.3721 25.4435 22.3152 25.1142 22.3152C24.7909 22.3152 24.4915 22.3721 24.2161 22.4859C23.9407 22.5996 23.6983 22.7643 23.4887 22.9798C23.2851 23.1894 23.1265 23.4378 23.0127 23.7252C22.899 24.0066 22.8421 24.3149 22.8421 24.6502C22.8421 24.9855 22.899 25.2968 23.0127 25.5842C23.1265 25.8716 23.2851 26.12 23.4887 26.3296C23.6983 26.5391 23.9407 26.7038 24.2161 26.8235C24.4915 26.9373 24.7909 26.9942 25.1142 26.9942ZM26.6589 28.8083L24.5754 25.3238H25.8506L27.9611 28.8083H26.6589ZM34.0763 28.1078C33.5614 28.1078 33.1034 28 32.7022 27.7845C32.3071 27.5689 31.9958 27.2726 31.7683 26.8954C31.5407 26.5182 31.427 26.0901 31.427 25.6111V21.3094H32.6484V25.5483C32.6484 25.8237 32.7082 26.0721 32.828 26.2937C32.9537 26.5152 33.1243 26.6888 33.3399 26.8146C33.5554 26.9343 33.8009 26.9942 34.0763 26.9942C34.3577 26.9942 34.6032 26.9343 34.8127 26.8146C35.0282 26.6888 35.1959 26.5152 35.3156 26.2937C35.4414 26.0721 35.5042 25.8237 35.5042 25.5483V21.3094H36.7256V25.6111C36.7256 26.0901 36.6118 26.5182 36.3843 26.8954C36.1568 27.2726 35.8425 27.5689 35.4414 27.7845C35.0462 28 34.5912 28.1078 34.0763 28.1078ZM39.6423 28V23.1145H40.8187V28H39.6423ZM39.6423 22.5667V21.3094H40.8187V22.5667H39.6423ZM46.9431 28.1078C46.4642 28.1078 46.0211 28.021 45.614 27.8473C45.2129 27.6737 44.8596 27.4312 44.5543 27.1199C44.2549 26.8086 44.0214 26.4433 43.8538 26.0243C43.6862 25.6052 43.6023 25.1471 43.6023 24.6502C43.6023 24.1533 43.6832 23.6953 43.8448 23.2762C44.0125 22.8511 44.246 22.4859 44.5453 22.1805C44.8506 21.8692 45.2069 21.6297 45.614 21.4621C46.0211 21.2884 46.4642 21.2016 46.9431 21.2016C47.4221 21.2016 47.8502 21.2825 48.2274 21.4441C48.6106 21.6058 48.9339 21.8213 49.1973 22.0907C49.4607 22.3541 49.6493 22.6445 49.7631 22.9618L48.6674 23.4737C48.5417 23.1385 48.3292 22.8631 48.0298 22.6475C47.7305 22.426 47.3682 22.3152 46.9431 22.3152C46.524 22.3152 46.1528 22.414 45.8295 22.6116C45.5122 22.8092 45.2638 23.0816 45.0841 23.4288C44.9105 23.7761 44.8237 24.1832 44.8237 24.6502C44.8237 25.1172 44.9105 25.5273 45.0841 25.8806C45.2638 26.2278 45.5122 26.5002 45.8295 26.6978C46.1528 26.8954 46.524 26.9942 46.9431 26.9942C47.3682 26.9942 47.7305 26.8864 48.0298 26.6709C48.3292 26.4493 48.5417 26.1709 48.6674 25.8357L49.7631 26.3476C49.6493 26.6649 49.4607 26.9582 49.1973 27.2277C48.9339 27.4911 48.6106 27.7036 48.2274 27.8653C47.8502 28.0269 47.4221 28.1078 46.9431 28.1078ZM52.5508 28V21.3094H53.7722V24.7939L53.4399 24.6771L56.2868 21.3094H57.8225L55.1552 24.4706L55.227 23.6084L57.9033 28H56.4664L54.6702 25.0543L53.7722 26.123V28H52.5508ZM66.2234 28.1078C65.7983 28.1078 65.4032 28.0299 65.0379 27.8743C64.6787 27.7186 64.3674 27.5031 64.104 27.2277C63.8465 26.9463 63.6579 26.62 63.5382 26.2488L64.553 25.8087C64.7146 26.1919 64.9481 26.4942 65.2535 26.7158C65.5588 26.9313 65.9031 27.0391 66.2863 27.0391C66.5018 27.0391 66.6874 27.0061 66.8431 26.9403C67.0047 26.8684 67.1275 26.7726 67.2113 26.6529C67.3011 26.5332 67.346 26.3895 67.346 26.2218C67.346 26.0243 67.2861 25.8626 67.1664 25.7369C67.0526 25.6052 66.879 25.5034 66.6455 25.4315L65.3613 25.0184C64.8404 24.8568 64.4482 24.6143 64.1848 24.291C63.9213 23.9677 63.7896 23.5875 63.7896 23.1504C63.7896 22.7673 63.8824 22.429 64.068 22.1356C64.2596 21.8422 64.5231 21.6147 64.8583 21.4531C65.1996 21.2854 65.5888 21.2016 66.0258 21.2016C66.427 21.2016 66.7952 21.2735 67.1304 21.4172C67.4657 21.5549 67.7531 21.7494 67.9926 22.0009C68.2381 22.2464 68.4207 22.5368 68.5404 22.872L67.5346 23.3211C67.4029 22.9858 67.2053 22.7283 66.9419 22.5487C66.6784 22.3631 66.3731 22.2703 66.0258 22.2703C65.8223 22.2703 65.6426 22.3063 65.487 22.3781C65.3313 22.444 65.2086 22.5397 65.1188 22.6655C65.035 22.7852 64.993 22.9289 64.993 23.0966C64.993 23.2822 65.0529 23.4468 65.1727 23.5905C65.2924 23.7282 65.475 23.836 65.7205 23.9138L66.9508 24.3C67.4837 24.4736 67.8818 24.7131 68.1453 25.0184C68.4147 25.3238 68.5494 25.7009 68.5494 26.15C68.5494 26.5332 68.4506 26.8714 68.253 27.1648C68.0555 27.4582 67.783 27.6887 67.4358 27.8563C67.0885 28.0239 66.6844 28.1078 66.2234 28.1078ZM72.6308 28V22.3871H70.8975V21.3094H75.5674V22.3871H73.8611V28H72.6308ZM77.1138 28L79.4218 21.3094H81.0024L83.3105 28H81.9813L81.5054 26.5631H78.9189L78.434 28H77.1138ZM79.2692 25.4854H81.1551L80.0415 22.1536H80.3828L79.2692 25.4854ZM85.8512 28V21.3094H88.3389C88.7939 21.3094 89.195 21.3932 89.5423 21.5609C89.8955 21.7225 90.1709 21.962 90.3685 22.2793C90.5661 22.5906 90.6649 22.9708 90.6649 23.4199C90.6649 23.8809 90.5541 24.273 90.3326 24.5963C90.1171 24.9196 89.8237 25.1591 89.4525 25.3148L90.9882 28H89.6052L87.9617 25.0633L88.752 25.5303H87.0726V28H85.8512ZM87.0726 24.4526H88.3568C88.5784 24.4526 88.7699 24.4107 88.9316 24.3269C89.0933 24.2371 89.219 24.1144 89.3088 23.9587C89.3986 23.803 89.4435 23.6234 89.4435 23.4199C89.4435 23.2103 89.3986 23.0307 89.3088 22.881C89.219 22.7253 89.0933 22.6056 88.9316 22.5218C88.7699 22.432 88.5784 22.3871 88.3568 22.3871H87.0726V24.4526ZM94.5948 28V22.3871H92.8616V21.3094H97.5315V22.3871H95.8252V28H94.5948ZM45.5894 40.1078C45.1164 40.1078 44.6824 40.0239 44.2872 39.8563C43.8921 39.6827 43.5478 39.4432 43.2544 39.1379C42.9671 38.8265 42.7425 38.4613 42.5809 38.0422C42.4192 37.6231 42.3384 37.1621 42.3384 36.6592C42.3384 36.1563 42.4192 35.6953 42.5809 35.2762C42.7425 34.8571 42.9671 34.4919 43.2544 34.1805C43.5478 33.8692 43.8921 33.6297 44.2872 33.4621C44.6824 33.2884 45.1164 33.2016 45.5894 33.2016C46.0444 33.2016 46.4516 33.2825 46.8108 33.4441C47.176 33.6058 47.4813 33.8153 47.7268 34.0728C47.9783 34.3242 48.1579 34.5906 48.2657 34.872L47.619 35.1864C47.4514 34.7792 47.194 34.4589 46.8467 34.2254C46.4995 33.9919 46.0804 33.8752 45.5894 33.8752C45.0985 33.8752 44.6614 33.9919 44.2782 34.2254C43.8951 34.4589 43.5957 34.7852 43.3802 35.2043C43.1646 35.6174 43.0569 36.1024 43.0569 36.6592C43.0569 37.21 43.1646 37.695 43.3802 38.1141C43.5957 38.5332 43.8951 38.8595 44.2782 39.093C44.6614 39.3205 45.0985 39.4342 45.5894 39.4342C46.0265 39.4342 46.4186 39.3384 46.7659 39.1468C47.1191 38.9552 47.3975 38.6948 47.6011 38.3655C47.8046 38.0302 47.9064 37.6471 47.9064 37.216V36.8478L48.2297 37.1711H45.5894V36.5424H48.6249V37.0992C48.6249 37.5363 48.5471 37.9404 48.3914 38.3116C48.2357 38.6768 48.0202 38.9942 47.7448 39.2636C47.4694 39.533 47.1461 39.7426 46.7749 39.8922C46.4097 40.0359 46.0145 40.1078 45.5894 40.1078ZM54.0608 40.1078C53.5878 40.1078 53.1717 40.009 52.8125 39.8114C52.4532 39.6138 52.1748 39.3444 51.9773 39.0031C51.7797 38.6559 51.6809 38.2607 51.6809 37.8177V33.3094H52.3994V37.8177C52.3994 38.141 52.4682 38.4254 52.6059 38.6709C52.7496 38.9103 52.9442 39.0989 53.1897 39.2366C53.4411 39.3684 53.7315 39.4342 54.0608 39.4342C54.3901 39.4342 54.6775 39.3684 54.9229 39.2366C55.1744 39.0989 55.369 38.9103 55.5067 38.6709C55.6504 38.4254 55.7222 38.141 55.7222 37.8177V33.3094H56.4407V37.8177C56.4407 38.2607 56.3419 38.6559 56.1443 39.0031C55.9467 39.3444 55.6683 39.6138 55.3091 39.8114C54.9559 40.009 54.5398 40.1078 54.0608 40.1078ZM59.7922 40V33.3094H60.5107V40H59.7922ZM63.8861 40V33.3094H66.0864C66.751 33.3094 67.3287 33.4471 67.8197 33.7225C68.3106 33.9919 68.6908 34.3781 68.9602 34.881C69.2296 35.3779 69.3644 35.9677 69.3644 36.6502C69.3644 37.3268 69.2296 37.9165 68.9602 38.4194C68.6908 38.9223 68.3106 39.3115 67.8197 39.5869C67.3287 39.8623 66.751 40 66.0864 40H63.8861ZM64.6046 39.3264H66.0864C66.6013 39.3264 67.0473 39.2187 67.4245 39.0031C67.8017 38.7816 68.0921 38.4703 68.2957 38.0692C68.5052 37.668 68.61 37.195 68.61 36.6502C68.61 36.1054 68.5052 35.6354 68.2957 35.2402C68.0861 34.8391 67.7927 34.5308 67.4155 34.3152C67.0384 34.0937 66.5953 33.9829 66.0864 33.9829H64.6046V39.3264ZM72.3476 40V33.3094H76.6583V33.9829H73.0661V36.3089H76.4787V36.9825H73.0661V39.3264H76.6583V40H72.3476Z" fill="white"/>
</g>
<defs>
<linearGradient id="paint0_linear_2752_11169" x1="11.8921" y1="74.6333" x2="3.37561" y2="74.6333" gradientUnits="userSpaceOnUse">
<stop stop-color="white"/>
<stop offset="0.942707" stop-color="white" stop-opacity="0"/>
</linearGradient>
<clipPath id="clip0_2752_11169">
<rect width="127.362" height="169" rx="1.87778" fill="white"/>
</clipPath>
</defs>
</svg>
