<svg width="24" height="24" viewBox="0 0 24 24" fill="none" xmlns="http://www.w3.org/2000/svg">
<path d="M7.77948 7.52582L10.752 4.55334L7.77948 1.58087" stroke="#4B5CFA" stroke-width="1.5" stroke-linecap="round"/>
<path d="M10 20.75C10.4142 20.75 10.75 20.4142 10.75 20C10.75 19.5858 10.4142 19.25 10 19.25L10 20.75ZM10 19.25C5.99594 19.25 2.75 16.0041 2.75 12L1.25 12C1.25 16.8325 5.16751 20.75 10 20.75L10 19.25ZM2.75 12C2.75 7.99594 5.99594 4.75 10 4.75L10 3.25C5.16751 3.25 1.25 7.16751 1.25 12L2.75 12Z" fill="#4B5CFA"/>
<path d="M16.2195 16.4743L13.2471 19.4468L16.2195 22.4192" stroke="#4B5CFA" stroke-width="1.5" stroke-linecap="round"/>
<path d="M14 3.25C13.5858 3.25 13.25 3.58578 13.25 4C13.25 4.41421 13.5858 4.75 14 4.75L14 3.25ZM14 4.75C18.0041 4.75 21.25 7.99593 21.25 12L22.75 12C22.75 7.16751 18.8325 3.25 14 3.25L14 4.75ZM21.25 12C21.25 16.0041 18.0041 19.25 14 19.25L14 20.75C18.8325 20.75 22.75 16.8325 22.75 12L21.25 12Z" fill="#4B5CFA"/>
</svg>
