<svg width="24" height="24" viewBox="0 0 24 24" fill="none" xmlns="http://www.w3.org/2000/svg">
<mask id="path-1-inside-1_2754_12892" fill="white">
<path fill-rule="evenodd" clip-rule="evenodd" d="M24 12C24 5.37258 18.6274 0 12 0C5.37258 0 0 5.37258 0 12C0 18.6274 5.37258 24 12 24H24V12Z"/>
</mask>
<path d="M24 24V25.5H25.5V24H24ZM12 1.5C17.799 1.5 22.5 6.20101 22.5 12H25.5C25.5 4.54416 19.4558 -1.5 12 -1.5V1.5ZM1.5 12C1.5 6.20101 6.20101 1.5 12 1.5V-1.5C4.54416 -1.5 -1.5 4.54416 -1.5 12H1.5ZM12 22.5C6.20101 22.5 1.5 17.799 1.5 12H-1.5C-1.5 19.4558 4.54416 25.5 12 25.5V22.5ZM24 22.5H12V25.5H24V22.5ZM22.5 12V24H25.5V12H22.5Z" fill="#4B5CFA" mask="url(#path-1-inside-1_2754_12892)"/>
<path d="M7 10H16" stroke="#4B5CFA" stroke-width="1.5" stroke-linecap="round"/>
<path d="M7 14H11" stroke="#4B5CFA" stroke-width="1.5" stroke-linecap="round"/>
</svg>
