<svg width="136" height="136" viewBox="0 0 136 136" fill="none" xmlns="http://www.w3.org/2000/svg">
<path d="M28.6711 85.9059C28.6711 93.804 22.2877 100.187 14.3895 100.187C6.49136 100.187 0.10791 93.804 0.10791 85.9059C0.10791 78.0077 6.49136 71.6243 14.3895 71.6243H28.6711V85.9059ZM35.8119 85.9059C35.8119 78.0077 42.1954 71.6243 50.0936 71.6243C57.9917 71.6243 64.3752 78.0077 64.3752 85.9059V121.61C64.3752 129.508 57.9917 135.892 50.0936 135.892C42.1954 135.892 35.8119 129.508 35.8119 121.61V85.9059Z" fill="#E01E5A"/>
<path d="M50.0938 28.5632C42.1957 28.5632 35.8122 22.1798 35.8122 14.2816C35.8122 6.38345 42.1957 0 50.0938 0C57.992 0 64.3755 6.38345 64.3755 14.2816V28.5632H50.0938ZM50.0938 35.8122C57.992 35.8122 64.3755 42.1957 64.3755 50.0938C64.3755 57.992 57.992 64.3755 50.0938 64.3755H14.2816C6.38345 64.3755 0 57.992 0 50.0938C0 42.1957 6.38345 35.8122 14.2816 35.8122H50.0938Z" fill="#36C5F0"/>
<path d="M107.329 50.0938C107.329 42.1957 113.712 35.8122 121.611 35.8122C129.509 35.8122 135.892 42.1957 135.892 50.0938C135.892 57.992 129.509 64.3755 121.611 64.3755H107.329V50.0938ZM100.188 50.0938C100.188 57.992 93.8048 64.3755 85.9066 64.3755C78.0084 64.3755 71.625 57.992 71.625 50.0938V14.2816C71.625 6.38345 78.0084 0 85.9066 0C93.8048 0 100.188 6.38345 100.188 14.2816V50.0938Z" fill="#2EB67D"/>
<path d="M85.9066 107.328C93.8048 107.328 100.188 113.712 100.188 121.61C100.188 129.508 93.8048 135.892 85.9066 135.892C78.0084 135.892 71.625 129.508 71.625 121.61V107.328H85.9066ZM85.9066 100.187C78.0084 100.187 71.625 93.804 71.625 85.9059C71.625 78.0077 78.0084 71.6243 85.9066 71.6243H121.719C129.617 71.6243 136 78.0077 136 85.9059C136 93.804 129.617 100.187 121.719 100.187H85.9066Z" fill="#ECB22E"/>
</svg>
