<svg width="41" height="16" viewBox="0 0 41 16" fill="none" xmlns="http://www.w3.org/2000/svg">
<path d="M1.91699 7C1.36471 7 0.916992 7.44772 0.916992 8C0.916992 8.55228 1.36471 9 1.91699 9V7ZM40.707 8.70711C41.0975 8.31658 41.0975 7.68342 40.707 7.29289L34.343 0.928932C33.9525 0.538408 33.3193 0.538408 32.9288 0.928932C32.5383 1.31946 32.5383 1.95262 32.9288 2.34315L38.5857 8L32.9288 13.6569C32.5383 14.0474 32.5383 14.6805 32.9288 15.0711C33.3193 15.4616 33.9525 15.4616 34.343 15.0711L40.707 8.70711ZM1.91699 9H39.9999V7H1.91699V9Z" fill="#19D4EE"/>
</svg>
