<svg width="135" height="41" viewBox="0 0 135 41" fill="none" xmlns="http://www.w3.org/2000/svg">
<path d="M19.7568 5.96496V0.139893H25.249V5.96496H19.7568Z" fill="#0DDA84"/>
<path d="M39.5273 5.96496V0.139893H45.0196V5.96496H39.5273Z" fill="#0DDA84"/>
<path d="M75.9341 5.96496V0.139893H81.4263V5.96496H75.9341Z" fill="#0DDA84"/>
<path d="M5.4506 17.7261H0V40.3606H5.4506V17.7261Z" fill="#F4F6FA"/>
<path d="M5.4506 0.139893H0V13.808H5.4506V0.139893Z" fill="#0DDA84"/>
<path d="M108.984 0.139893H103.534V13.808H108.984V0.139893Z" fill="#0DDA84"/>
<path d="M7.98877 40.3607L18.6819 9.36304H26.0049L36.698 40.3607H30.5401L28.3349 33.7035H16.3519L14.1051 40.3607H7.98877ZM17.9746 28.7106H26.7122L21.5529 13.2742H23.134L17.9746 28.7106Z" fill="#F4F6FA"/>
<path d="M39.7285 40.3607V9.36304H45.1375L56.746 25.1323H54.1664L65.5253 9.36304H70.9343V40.3607H65.234V15.8122L67.4392 16.3531L55.6642 32.0392H54.9985L43.5148 16.3531L45.3872 15.8122V40.3607H39.7285Z" fill="#F4F6FA"/>
<path d="M88.3541 40.8598C86.7175 40.8598 85.2057 40.5408 83.8188 39.9028C82.4596 39.2371 81.3778 38.294 80.5734 37.0735L81.1143 35.9917V40.3605H75.9966V8.86353H81.4472V22.2196L80.615 21.0962C81.3917 19.8757 82.4458 18.9326 83.7772 18.2669C85.1087 17.5734 86.6481 17.2267 88.3957 17.2267C90.5315 17.2267 92.4593 17.7537 94.1791 18.8078C95.8989 19.8618 97.2581 21.2765 98.2567 23.0517C99.283 24.827 99.7962 26.8242 99.7962 29.0432C99.7962 31.2623 99.2969 33.2317 98.2983 35.0347C97.2997 36.8377 95.9405 38.2663 94.2207 39.3203C92.5009 40.3466 90.5454 40.8598 88.3541 40.8598ZM87.7299 35.8669C88.9782 35.8669 90.0877 35.5756 91.0586 34.9931C92.0294 34.4106 92.7783 33.6062 93.3054 32.5799C93.8601 31.5536 94.1375 30.3747 94.1375 29.0432C94.1375 27.7118 93.8601 26.5468 93.3054 25.5482C92.7783 24.5219 92.0294 23.7175 91.0586 23.135C90.0877 22.5247 88.9782 22.2196 87.7299 22.2196C86.4817 22.2196 85.4554 22.5108 84.4845 23.0933C83.5414 23.6758 82.7925 24.4941 82.2377 25.5482C81.7107 26.5745 81.4472 27.7395 81.4472 29.0432C81.4472 30.3469 81.7107 31.5536 82.2377 32.5799C82.7925 33.6062 83.5414 34.4106 84.4845 34.9931C85.4554 35.5756 86.5372 35.8669 87.7299 35.8669Z" fill="#F4F6FA"/>
<path d="M108.984 17.7261H103.534V40.3606H108.984V17.7261Z" fill="#F4F6FA"/>
<path d="M124.504 40.86C122.257 40.86 120.232 40.3468 118.429 39.3205C116.654 38.2664 115.253 36.8518 114.227 35.0765C113.201 33.2735 112.688 31.2486 112.688 29.0018C112.688 26.755 113.201 24.7439 114.227 22.9687C115.253 21.1934 116.654 19.7926 118.429 18.7663C120.232 17.74 122.257 17.2268 124.504 17.2268C126.113 17.2268 127.611 17.5181 128.998 18.1006C130.385 18.6553 131.577 19.432 132.576 20.4306C133.602 21.4014 134.337 22.5665 134.781 23.9256L129.996 26.006C129.58 24.8687 128.873 23.9534 127.874 23.2599C126.903 22.5665 125.78 22.2197 124.504 22.2197C123.311 22.2197 122.243 22.511 121.3 23.0935C120.385 23.676 119.664 24.4804 119.137 25.5067C118.61 26.5331 118.346 27.7119 118.346 29.0434C118.346 30.3748 118.61 31.5537 119.137 32.58C119.664 33.6064 120.385 34.4108 121.3 34.9933C122.243 35.5758 123.311 35.867 124.504 35.867C125.808 35.867 126.945 35.5203 127.916 34.8268C128.887 34.1334 129.58 33.2041 129.996 32.0391L134.781 34.2027C134.337 35.4787 133.616 36.6298 132.618 37.6562C131.619 38.6547 130.426 39.4453 129.039 40.0278C127.652 40.5826 126.141 40.86 124.504 40.86Z" fill="#F4F6FA"/>
</svg>
