<svg width="366" height="340" viewBox="0 0 366 340" fill="none" xmlns="http://www.w3.org/2000/svg">
<rect width="366" height="340" rx="8" fill="#F4F6FA"/>
<rect x="10.5966" y="12.5966" width="341.807" height="312.807" rx="8.94928" fill="white" stroke="#19D4EE" stroke-width="1.19324"/>
<path d="M10.5966 21.5459C10.5966 16.6033 14.6033 12.5966 19.5459 12.5966H343.454C348.397 12.5966 352.403 16.6033 352.403 21.5459V116.403H10.5966V21.5459Z" fill="white" stroke="#19D4EE" stroke-width="1.19324"/>
<circle cx="60" cy="170" r="26" fill="#19D4EE"/>
<path d="M50 179.998C50 174.477 54.4763 170 59.9971 170H60.0029C65.5237 170 70 174.477 70 179.998V180L50 179.998Z" fill="#4B5CFA" stroke="#4B5CFA" stroke-width="1.66667" stroke-miterlimit="10"/>
<path d="M60 160C62.7606 160 65 162.237 65 165C65 167.761 62.7625 170 60 170C57.2394 170 55 167.763 55 165C55 162.237 57.2394 160 60 160Z" fill="#4B5CFA" stroke="#4B5CFA" stroke-width="1.66667" stroke-miterlimit="10"/>
<rect x="103" y="153" width="92" height="8" rx="4" fill="#D2DDE8"/>
<rect x="103" y="165" width="92" height="8" rx="4" fill="#D2DDE8"/>
<rect x="103" y="177" width="55" height="8" rx="4" fill="#D2DDE8"/>
<circle cx="60" cy="273" r="26" fill="#19D4EE"/>
<path d="M50 282.998C50 277.477 54.4763 273 59.9971 273H60.0029C65.5237 273 70 277.477 70 282.998V283L50 282.998Z" fill="#4B5CFA" stroke="#4B5CFA" stroke-width="1.66667" stroke-miterlimit="10"/>
<path d="M60 263C62.7606 263 65 265.237 65 268C65 270.761 62.7625 273 60 273C57.2394 273 55 270.763 55 268C55 265.237 57.2394 263 60 263Z" fill="#4B5CFA" stroke="#4B5CFA" stroke-width="1.66667" stroke-miterlimit="10"/>
<rect x="103" y="256" width="92" height="8" rx="4" fill="#D2DDE8"/>
<rect x="103" y="268" width="92" height="8" rx="4" fill="#D2DDE8"/>
<rect x="103" y="280" width="55" height="8" rx="4" fill="#D2DDE8"/>
<rect x="256" y="40" width="74" height="34" rx="2" fill="#FF3737"/>
<path d="M270.519 62V51.8182H273.959C274.755 51.8182 275.408 51.9541 275.918 52.2259C276.429 52.4943 276.806 52.8639 277.052 53.3345C277.297 53.8052 277.42 54.3404 277.42 54.9403C277.42 55.5402 277.297 56.0722 277.052 56.5362C276.806 57.0002 276.43 57.3648 275.923 57.63C275.416 57.8918 274.768 58.0227 273.979 58.0227H271.195V56.9091H273.94C274.483 56.9091 274.921 56.8295 275.252 56.6705C275.587 56.5114 275.829 56.286 275.978 55.9943C276.13 55.6993 276.207 55.348 276.207 54.9403C276.207 54.5327 276.13 54.1764 275.978 53.8714C275.825 53.5665 275.582 53.3312 275.247 53.1655C274.912 52.9964 274.47 52.9119 273.92 52.9119H271.752V62H270.519ZM275.312 57.4261L277.817 62H276.386L273.92 57.4261H275.312ZM282.435 62.1591C281.699 62.1591 281.064 61.9967 280.531 61.6719C280 61.3438 279.591 60.8864 279.303 60.2997C279.018 59.7098 278.875 59.0237 278.875 58.2415C278.875 57.4593 279.018 56.7699 279.303 56.1733C279.591 55.5734 279.992 55.1061 280.506 54.7713C281.023 54.4332 281.626 54.2642 282.315 54.2642C282.713 54.2642 283.106 54.3305 283.494 54.4631C283.881 54.5956 284.234 54.8111 284.553 55.1094C284.871 55.4044 285.124 55.7955 285.313 56.2827C285.502 56.7699 285.597 57.3698 285.597 58.0824V58.5795H279.71V57.5653H284.403C284.403 57.1345 284.317 56.75 284.145 56.4119C283.976 56.0739 283.734 55.8071 283.419 55.6115C283.108 55.416 282.74 55.3182 282.315 55.3182C281.848 55.3182 281.444 55.4342 281.102 55.6662C280.764 55.8949 280.504 56.1932 280.322 56.5611C280.14 56.929 280.048 57.3234 280.048 57.7443V58.4205C280.048 58.9972 280.148 59.486 280.347 59.8871C280.549 60.2848 280.829 60.5881 281.187 60.7969C281.545 61.0024 281.961 61.1051 282.435 61.1051C282.743 61.1051 283.021 61.062 283.27 60.9759C283.522 60.8864 283.739 60.7538 283.921 60.5781C284.104 60.3991 284.244 60.1771 284.344 59.9119L285.477 60.2301C285.358 60.6146 285.158 60.9527 284.876 61.2443C284.594 61.5327 284.246 61.758 283.832 61.9205C283.417 62.0795 282.952 62.1591 282.435 62.1591ZM293.393 54.3636L290.57 62H289.376L286.552 54.3636H287.825L289.933 60.4489H290.013L292.121 54.3636H293.393ZM294.942 62V54.3636H296.115V62H294.942ZM295.539 53.0909C295.31 53.0909 295.113 53.013 294.947 52.8572C294.785 52.7015 294.703 52.5142 294.703 52.2955C294.703 52.0767 294.785 51.8894 294.947 51.7337C295.113 51.5779 295.31 51.5 295.539 51.5C295.767 51.5 295.963 51.5779 296.125 51.7337C296.291 51.8894 296.374 52.0767 296.374 52.2955C296.374 52.5142 296.291 52.7015 296.125 52.8572C295.963 53.013 295.767 53.0909 295.539 53.0909ZM301.466 62.1591C300.73 62.1591 300.095 61.9967 299.562 61.6719C299.032 61.3438 298.622 60.8864 298.334 60.2997C298.049 59.7098 297.906 59.0237 297.906 58.2415C297.906 57.4593 298.049 56.7699 298.334 56.1733C298.622 55.5734 299.023 55.1061 299.537 54.7713C300.054 54.4332 300.657 54.2642 301.347 54.2642C301.744 54.2642 302.137 54.3305 302.525 54.4631C302.913 54.5956 303.266 54.8111 303.584 55.1094C303.902 55.4044 304.156 55.7955 304.345 56.2827C304.533 56.7699 304.628 57.3698 304.628 58.0824V58.5795H298.742V57.5653H303.435C303.435 57.1345 303.349 56.75 303.176 56.4119C303.007 56.0739 302.765 55.8071 302.45 55.6115C302.139 55.416 301.771 55.3182 301.347 55.3182C300.879 55.3182 300.475 55.4342 300.134 55.6662C299.796 55.8949 299.535 56.1932 299.353 56.5611C299.171 56.929 299.08 57.3234 299.08 57.7443V58.4205C299.08 58.9972 299.179 59.486 299.378 59.8871C299.58 60.2848 299.86 60.5881 300.218 60.7969C300.576 61.0024 300.992 61.1051 301.466 61.1051C301.774 61.1051 302.053 61.062 302.301 60.9759C302.553 60.8864 302.77 60.7538 302.953 60.5781C303.135 60.3991 303.276 60.1771 303.375 59.9119L304.509 60.2301C304.389 60.6146 304.189 60.9527 303.907 61.2443C303.625 61.5327 303.277 61.758 302.863 61.9205C302.449 62.0795 301.983 62.1591 301.466 62.1591ZM308.143 62L305.816 54.3636H307.049L308.7 60.2102H308.779L310.41 54.3636H311.663L313.274 60.1903H313.353L315.004 54.3636H316.237L313.91 62H312.756L311.086 56.1335H310.967L309.296 62H308.143Z" fill="white"/>
<circle cx="60" cy="63" r="26" fill="#19D4EE"/>
<path d="M50 72.9981C50 67.4767 54.4763 63 59.9971 63H60.0029C65.5237 63 70 67.4767 70 72.9981V73L50 72.9981Z" fill="#4B5CFA" stroke="#4B5CFA" stroke-width="1.66667" stroke-miterlimit="10"/>
<path d="M60 53C62.7606 53 65 55.2375 65 58C65 60.7606 62.7625 63 60 63C57.2394 63 55 60.7625 55 58C55 55.2375 57.2394 53 60 53Z" fill="#4B5CFA" stroke="#4B5CFA" stroke-width="1.66667" stroke-miterlimit="10"/>
<rect x="103" y="46" width="92" height="8" rx="4" fill="#D2DDE8"/>
<rect x="103" y="58" width="92" height="8" rx="4" fill="#D2DDE8"/>
<rect x="103" y="70" width="55" height="8" rx="4" fill="#D2DDE8"/>
<mask id="path-24-inside-1_2785_11675" fill="white">
<path d="M121.215 99.0385C121.215 95.7434 123.886 93.0723 127.181 93.0723H326.09C329.385 93.0723 332.056 95.7434 332.056 99.0384V197.282C332.056 200.577 329.385 203.248 326.09 203.248H127.181C123.886 203.248 121.215 200.577 121.215 197.282V99.0385Z"/>
</mask>
<path d="M121.215 99.0385C121.215 95.7434 123.886 93.0723 127.181 93.0723H326.09C329.385 93.0723 332.056 95.7434 332.056 99.0384V197.282C332.056 200.577 329.385 203.248 326.09 203.248H127.181C123.886 203.248 121.215 200.577 121.215 197.282V99.0385Z" fill="white"/>
<path d="M127.181 94.0723H326.09V92.0723H127.181V94.0723ZM331.056 99.0384V197.282H333.056V99.0384H331.056ZM326.09 202.248H127.181V204.248H326.09V202.248ZM122.215 197.282V99.0385H120.215V197.282H122.215ZM127.181 202.248C124.438 202.248 122.215 200.025 122.215 197.282H120.215C120.215 201.129 123.334 204.248 127.181 204.248V202.248ZM331.056 197.282C331.056 200.025 328.833 202.248 326.09 202.248V204.248C329.937 204.248 333.056 201.129 333.056 197.282H331.056ZM326.09 94.0723C328.833 94.0723 331.056 96.2957 331.056 99.0384H333.056C333.056 95.1911 329.937 92.0723 326.09 92.0723V94.0723ZM127.181 92.0723C123.334 92.0723 120.215 95.1911 120.215 99.0385H122.215C122.215 96.2957 124.438 94.0723 127.181 94.0723V92.0723Z" fill="#19D4EE" mask="url(#path-24-inside-1_2785_11675)"/>
<path opacity="0.5" d="M10 117H353V221H10V117Z" fill="#F4F6FA"/>
<path opacity="0.5" d="M10 221H353V316.45C353 321.724 348.724 326 343.45 326H19.55C14.2757 326 10 321.724 10 316.45V221Z" fill="#F4F6FA"/>
<path d="M121 149H332" stroke="#19D4EE"/>
<rect x="134" y="107" width="28.6377" height="28.6377" rx="2.38647" fill="#0DDA84"/>
<path d="M141.159 121.841L145.634 126.316L155.478 116.919" stroke="white" stroke-width="1.78986"/>
<rect x="135" y="160" width="28.6377" height="28.6377" rx="2.38647" fill="#FF3737"/>
<path d="M153.742 169.196L143.353 179.586" stroke="white" stroke-width="2.38647"/>
<path d="M143.353 169.196L153.742 179.586" stroke="white" stroke-width="2.38647"/>
<path d="M185.606 127H183.944L188.75 113.909H190.387L195.194 127H193.532L189.62 115.98H189.517L185.606 127ZM186.219 121.886H192.918V123.293H186.219V121.886ZM197.028 130.682V117.182H198.486V118.741H198.665C198.775 118.571 198.929 118.354 199.125 118.089C199.325 117.821 199.611 117.582 199.981 117.374C200.356 117.161 200.863 117.054 201.503 117.054C202.329 117.054 203.058 117.261 203.689 117.674C204.319 118.087 204.812 118.673 205.165 119.432C205.519 120.19 205.696 121.085 205.696 122.116C205.696 123.156 205.519 124.058 205.165 124.82C204.812 125.579 204.321 126.167 203.695 126.585C203.069 126.998 202.346 127.205 201.528 127.205C200.897 127.205 200.392 127.1 200.013 126.891C199.634 126.678 199.342 126.437 199.138 126.169C198.933 125.896 198.775 125.67 198.665 125.491H198.537V130.682H197.028ZM198.511 122.091C198.511 122.832 198.62 123.487 198.837 124.053C199.054 124.616 199.372 125.057 199.79 125.376C200.207 125.692 200.718 125.849 201.324 125.849C201.954 125.849 202.481 125.683 202.902 125.351C203.329 125.014 203.648 124.562 203.861 123.996C204.079 123.425 204.187 122.79 204.187 122.091C204.187 121.401 204.081 120.778 203.868 120.224C203.659 119.666 203.341 119.225 202.915 118.901C202.493 118.573 201.963 118.409 201.324 118.409C200.71 118.409 200.194 118.565 199.777 118.876C199.359 119.183 199.044 119.613 198.831 120.167C198.618 120.717 198.511 121.358 198.511 122.091ZM207.997 130.682V117.182H209.454V118.741H209.633C209.744 118.571 209.897 118.354 210.093 118.089C210.294 117.821 210.579 117.582 210.95 117.374C211.325 117.161 211.832 117.054 212.471 117.054C213.298 117.054 214.027 117.261 214.657 117.674C215.288 118.087 215.78 118.673 216.134 119.432C216.488 120.19 216.665 121.085 216.665 122.116C216.665 123.156 216.488 124.058 216.134 124.82C215.78 125.579 215.29 126.167 214.664 126.585C214.037 126.998 213.315 127.205 212.497 127.205C211.866 127.205 211.361 127.1 210.982 126.891C210.603 126.678 210.311 126.437 210.106 126.169C209.902 125.896 209.744 125.67 209.633 125.491H209.505V130.682H207.997ZM209.48 122.091C209.48 122.832 209.589 123.487 209.806 124.053C210.023 124.616 210.341 125.057 210.758 125.376C211.176 125.692 211.687 125.849 212.292 125.849C212.923 125.849 213.449 125.683 213.871 125.351C214.297 125.014 214.617 124.562 214.83 123.996C215.047 123.425 215.156 122.79 215.156 122.091C215.156 121.401 215.049 120.778 214.836 120.224C214.628 119.666 214.31 119.225 213.884 118.901C213.462 118.573 212.932 118.409 212.292 118.409C211.679 118.409 211.163 118.565 210.745 118.876C210.328 119.183 210.013 119.613 209.799 120.167C209.586 120.717 209.48 121.358 209.48 122.091ZM218.966 127V117.182H220.423V118.665H220.525C220.704 118.179 221.028 117.785 221.497 117.482C221.966 117.18 222.494 117.028 223.082 117.028C223.193 117.028 223.331 117.031 223.498 117.035C223.664 117.039 223.79 117.045 223.875 117.054V118.588C223.824 118.575 223.706 118.556 223.523 118.531C223.344 118.501 223.155 118.486 222.954 118.486C222.477 118.486 222.051 118.586 221.676 118.786C221.305 118.982 221.011 119.255 220.794 119.604C220.581 119.95 220.474 120.344 220.474 120.787V127H218.966ZM229.353 127.205C228.466 127.205 227.689 126.994 227.02 126.572C226.355 126.15 225.835 125.56 225.46 124.801C225.089 124.043 224.904 123.156 224.904 122.142C224.904 121.119 225.089 120.227 225.46 119.464C225.835 118.701 226.355 118.109 227.02 117.687C227.689 117.265 228.466 117.054 229.353 117.054C230.239 117.054 231.015 117.265 231.679 117.687C232.348 118.109 232.868 118.701 233.239 119.464C233.614 120.227 233.802 121.119 233.802 122.142C233.802 123.156 233.614 124.043 233.239 124.801C232.868 125.56 232.348 126.15 231.679 126.572C231.015 126.994 230.239 127.205 229.353 127.205ZM229.353 125.849C230.026 125.849 230.58 125.677 231.015 125.332C231.449 124.987 231.771 124.533 231.98 123.97C232.189 123.408 232.293 122.798 232.293 122.142C232.293 121.486 232.189 120.874 231.98 120.308C231.771 119.741 231.449 119.283 231.015 118.933C230.58 118.584 230.026 118.409 229.353 118.409C228.679 118.409 228.125 118.584 227.691 118.933C227.256 119.283 226.934 119.741 226.726 120.308C226.517 120.874 226.412 121.486 226.412 122.142C226.412 122.798 226.517 123.408 226.726 123.97C226.934 124.533 227.256 124.987 227.691 125.332C228.125 125.677 228.679 125.849 229.353 125.849ZM243.781 117.182L240.15 127H238.616L234.986 117.182H236.622L239.332 125.006H239.435L242.145 117.182H243.781ZM249.537 127.205C248.591 127.205 247.775 126.996 247.089 126.578C246.407 126.156 245.881 125.568 245.51 124.814C245.144 124.055 244.96 123.173 244.96 122.168C244.96 121.162 245.144 120.276 245.51 119.509C245.881 118.737 246.397 118.136 247.057 117.706C247.722 117.271 248.497 117.054 249.384 117.054C249.895 117.054 250.4 117.139 250.899 117.31C251.397 117.48 251.851 117.757 252.26 118.141C252.669 118.52 252.995 119.023 253.238 119.649C253.481 120.276 253.603 121.047 253.603 121.963V122.602H246.034V121.298H252.068C252.068 120.744 251.958 120.25 251.736 119.815C251.519 119.381 251.208 119.038 250.803 118.786C250.402 118.535 249.929 118.409 249.384 118.409C248.783 118.409 248.263 118.558 247.824 118.857C247.389 119.151 247.055 119.534 246.821 120.007C246.586 120.48 246.469 120.987 246.469 121.528V122.398C246.469 123.139 246.597 123.768 246.853 124.283C247.112 124.795 247.473 125.185 247.933 125.453C248.393 125.717 248.928 125.849 249.537 125.849C249.934 125.849 250.291 125.794 250.611 125.683C250.935 125.568 251.214 125.398 251.448 125.172C251.683 124.942 251.864 124.656 251.992 124.315L253.449 124.724C253.296 125.219 253.038 125.653 252.676 126.028C252.313 126.399 251.866 126.689 251.333 126.898C250.801 127.102 250.202 127.205 249.537 127.205Z" fill="#303030"/>
<path d="M190.319 181H186.28V167.909H190.498C191.768 167.909 192.855 168.171 193.758 168.695C194.662 169.215 195.354 169.963 195.836 170.939C196.317 171.911 196.558 173.074 196.558 174.429C196.558 175.793 196.315 176.967 195.829 177.951C195.343 178.931 194.636 179.685 193.707 180.214C192.778 180.738 191.649 181 190.319 181ZM187.865 179.594H190.217C191.299 179.594 192.196 179.385 192.908 178.967C193.62 178.55 194.15 177.955 194.5 177.184C194.849 176.413 195.024 175.494 195.024 174.429C195.024 173.372 194.851 172.462 194.506 171.7C194.161 170.933 193.645 170.344 192.959 169.935C192.273 169.522 191.419 169.315 190.396 169.315H187.865V179.594ZM203.129 181.205C202.183 181.205 201.367 180.996 200.681 180.578C199.999 180.156 199.473 179.568 199.102 178.814C198.736 178.055 198.552 177.173 198.552 176.168C198.552 175.162 198.736 174.276 199.102 173.509C199.473 172.737 199.988 172.136 200.649 171.706C201.314 171.271 202.089 171.054 202.976 171.054C203.487 171.054 203.992 171.139 204.491 171.31C204.989 171.48 205.443 171.757 205.852 172.141C206.261 172.52 206.587 173.023 206.83 173.649C207.073 174.276 207.194 175.047 207.194 175.963V176.602H199.626V175.298H205.66C205.66 174.744 205.549 174.25 205.328 173.815C205.111 173.381 204.799 173.038 204.395 172.786C203.994 172.535 203.521 172.409 202.976 172.409C202.375 172.409 201.855 172.558 201.416 172.857C200.981 173.151 200.647 173.534 200.412 174.007C200.178 174.48 200.061 174.987 200.061 175.528V176.398C200.061 177.139 200.189 177.768 200.444 178.283C200.704 178.795 201.064 179.185 201.525 179.453C201.985 179.717 202.52 179.849 203.129 179.849C203.525 179.849 203.883 179.794 204.203 179.683C204.527 179.568 204.806 179.398 205.04 179.172C205.275 178.942 205.456 178.656 205.584 178.315L207.041 178.724C206.888 179.219 206.63 179.653 206.267 180.028C205.905 180.399 205.458 180.689 204.925 180.898C204.392 181.102 203.794 181.205 203.129 181.205ZM210.998 175.094V181H209.489V171.182H210.946V172.716H211.074C211.304 172.217 211.654 171.817 212.123 171.514C212.591 171.207 213.196 171.054 213.938 171.054C214.603 171.054 215.184 171.19 215.683 171.463C216.182 171.732 216.569 172.141 216.846 172.69C217.123 173.236 217.262 173.926 217.262 174.761V181H215.753V174.864C215.753 174.092 215.553 173.491 215.152 173.061C214.752 172.626 214.202 172.409 213.503 172.409C213.022 172.409 212.591 172.513 212.212 172.722C211.837 172.931 211.541 173.236 211.324 173.636C211.106 174.037 210.998 174.523 210.998 175.094ZM220.638 184.682C220.383 184.682 220.155 184.661 219.954 184.618C219.754 184.58 219.616 184.541 219.539 184.503L219.922 183.173C220.289 183.267 220.613 183.301 220.894 183.276C221.175 183.25 221.425 183.124 221.642 182.898C221.864 182.677 222.066 182.317 222.249 181.818L222.53 181.051L218.9 171.182H220.536L223.246 179.006H223.349L226.059 171.182H227.695L223.528 182.432C223.34 182.939 223.108 183.359 222.831 183.691C222.554 184.028 222.232 184.277 221.866 184.439C221.503 184.601 221.094 184.682 220.638 184.682Z" fill="#303030"/>
</svg>
