<svg width="366" height="340" viewBox="0 0 366 340" fill="none" xmlns="http://www.w3.org/2000/svg">
<rect width="366" height="340" rx="8" fill="#F4F6FA"/>
<rect x="11.5" y="130.5" width="130.256" height="142.188" rx="1.88647" fill="white" stroke="#19D4EE"/>
<rect x="28.8984" y="146.705" width="28.6377" height="28.6377" rx="2.38647" fill="#0DDA84"/>
<path d="M36.0581 161.546L40.5327 166.021L50.3769 156.624" stroke="white" stroke-width="1.78986"/>
<rect x="28.8984" y="182.502" width="28.6377" height="28.6377" rx="2.38647" fill="#0DDA84"/>
<path d="M36.0581 197.343L40.5327 201.818L50.3769 192.421" stroke="white" stroke-width="1.78986"/>
<rect x="28.8984" y="218.299" width="28.6377" height="28.6377" rx="2.38647" fill="#FF3737"/>
<path d="M47.6406 227.495L37.251 237.885" stroke="white" stroke-width="2.38647"/>
<path d="M37.251 227.495L47.6406 237.885" stroke="white" stroke-width="2.38647"/>
<path d="M67.082 149.092H108.845" stroke="#222945" stroke-opacity="0.1" stroke-width="2.38647" stroke-linecap="square"/>
<path d="M67.082 155.058H108.845" stroke="#222945" stroke-opacity="0.1" stroke-width="2.38647" stroke-linecap="square"/>
<path d="M67.082 161.024H95.7197" stroke="#222945" stroke-opacity="0.1" stroke-width="2.38647" stroke-linecap="square"/>
<path d="M67.082 184.889H108.845" stroke="#222945" stroke-opacity="0.1" stroke-width="2.38647" stroke-linecap="square"/>
<path d="M67.082 190.854H108.845" stroke="#222945" stroke-opacity="0.1" stroke-width="2.38647" stroke-linecap="square"/>
<path d="M67.082 196.821H102.879" stroke="#222945" stroke-opacity="0.1" stroke-width="2.38647" stroke-linecap="square"/>
<path d="M67.082 219.492H108.845" stroke="#222945" stroke-opacity="0.1" stroke-width="2.38647" stroke-linecap="square"/>
<path d="M67.082 225.459H96.9129" stroke="#222945" stroke-opacity="0.1" stroke-width="2.38647" stroke-linecap="square"/>
<path d="M67.082 231.425H80.2076" stroke="#222945" stroke-opacity="0.1" stroke-width="2.38647" stroke-linecap="square"/>
<path d="M84.799 72.8408C89.6263 72.8408 94.2558 74.7248 97.6693 78.0783C101.083 81.4319 103 85.9803 103 90.7229V100.647C103 103.258 102.477 105.843 101.46 108.255C100.443 110.667 98.9528 112.858 97.074 114.704C95.1951 116.55 92.9645 118.014 90.5096 119.013C88.0548 120.012 85.4236 120.526 82.7665 120.526H66.5977V90.7229C66.5977 85.9803 68.5153 81.4319 71.9287 78.0783C75.3421 74.7248 79.9717 72.8408 84.799 72.8408Z" fill="#4B5CFA"/>
<path d="M64.5753 88.7354C66.9656 88.7354 69.3324 89.1979 71.5407 90.0965C73.749 90.9952 75.7555 92.3124 77.4456 93.9729C79.1358 95.6334 80.4765 97.6047 81.3912 99.7742C82.3059 101.944 82.7767 104.269 82.7767 106.617V120.526H54.4635C52.318 120.526 50.2604 119.688 48.7434 118.198C47.2263 116.707 46.374 114.686 46.374 112.578V106.617C46.374 101.875 48.2917 97.3264 51.7051 93.9729C55.1185 90.6193 59.7481 88.7354 64.5753 88.7354Z" fill="#19D4EE"/>
<path fill-rule="evenodd" clip-rule="evenodd" d="M66.5977 120.525V90.7223C66.5977 90.0962 66.6311 89.4735 66.6969 88.8564C68.3585 89.048 69.9887 89.4642 71.5406 90.0957C73.7489 90.9944 75.7554 92.3116 77.4456 93.9721C79.1357 95.6326 80.4764 97.6039 81.3911 99.7734C82.3058 101.943 82.7766 104.268 82.7766 106.617V120.525H66.5977Z" fill="#002CD9"/>
<rect x="155.125" y="203.062" width="202.85" height="70.401" rx="5.96618" fill="#4B5CFA"/>
<mask id="path-23-inside-1_2785_11592" fill="white">
<path fill-rule="evenodd" clip-rule="evenodd" d="M162.882 72.0001H352.009C355.304 72.0001 357.975 74.6712 357.975 77.9662V188.937C357.975 192.232 355.304 194.903 352.009 194.903H161.091C157.796 194.903 155.125 192.232 155.125 188.937V90.4947L142 72L162.882 72L162.882 72.0001Z"/>
</mask>
<path fill-rule="evenodd" clip-rule="evenodd" d="M162.882 72.0001H352.009C355.304 72.0001 357.975 74.6712 357.975 77.9662V188.937C357.975 192.232 355.304 194.903 352.009 194.903H161.091C157.796 194.903 155.125 192.232 155.125 188.937V90.4947L142 72L162.882 72L162.882 72.0001Z" fill="white"/>
<path d="M162.882 72.0001L161.955 71.6246L161.398 73.0001H162.882V72.0001ZM155.125 90.4947H156.125V90.1759L155.941 89.9159L155.125 90.4947ZM142 72L142 71L140.064 71L141.184 72.5787L142 72ZM162.882 72L163.808 72.3754L164.366 71L162.882 71V72ZM162.882 73.0001H352.009V71.0001H162.882V73.0001ZM352.009 73.0001C354.752 73.0001 356.975 75.2235 356.975 77.9662H358.975C358.975 74.1189 355.857 71.0001 352.009 71.0001V73.0001ZM356.975 77.9662V188.937H358.975V77.9662H356.975ZM356.975 188.937C356.975 191.68 354.752 193.903 352.009 193.903V195.903C355.857 195.903 358.975 192.785 358.975 188.937H356.975ZM352.009 193.903H161.091V195.903H352.009V193.903ZM161.091 193.903C158.349 193.903 156.125 191.68 156.125 188.937H154.125C154.125 192.785 157.244 195.903 161.091 195.903V193.903ZM156.125 188.937V90.4947H154.125V188.937H156.125ZM155.941 89.9159L142.816 71.4213L141.184 72.5787L154.31 91.0734L155.941 89.9159ZM142 73L162.882 73V71L142 71L142 73ZM161.955 71.6246L161.955 71.6246L163.808 72.3755L163.808 72.3754L161.955 71.6246Z" fill="#19D4EE" mask="url(#path-23-inside-1_2785_11592)"/>
<path d="M170.881 95.7393L167.58 85.7161H169.048L171.275 92.9972C171.313 93.1165 171.348 93.2549 171.382 93.4124C171.42 93.5652 171.449 93.7036 171.468 93.8277C171.492 93.7036 171.52 93.5652 171.554 93.4124C171.587 93.2597 171.621 93.1237 171.654 93.0044L173.895 85.7161H175.355L172.055 95.7393H170.881ZM179.776 95.5961V88.4223H181.1V95.5961H179.776ZM177.757 95.7393V94.5651H183.119V95.7393H177.757ZM177.757 89.5965V88.4223H180.563V89.5965H177.757ZM180.434 87.1623C180.205 87.1623 180.012 87.0835 179.855 86.926C179.697 86.7637 179.618 86.568 179.618 86.3389C179.618 86.1051 179.697 85.9094 179.855 85.7519C180.012 85.5896 180.205 85.5084 180.434 85.5084C180.673 85.5084 180.869 85.5896 181.022 85.7519C181.179 85.9094 181.258 86.1051 181.258 86.3389C181.258 86.568 181.179 86.7637 181.022 86.926C180.869 87.0835 180.673 87.1623 180.434 87.1623ZM185.435 95.7393V94.5651H186.967V89.5965H185.435V88.4223H188.227V90.0547L188.141 89.8471C188.275 89.5273 188.485 89.248 188.771 89.0094C189.062 88.766 189.399 88.5798 189.78 88.451C190.162 88.3173 190.556 88.2505 190.962 88.2505C191.334 88.2505 191.654 88.2863 191.921 88.3579C192.193 88.4247 192.41 88.5082 192.573 88.6085V91.1859H191.262V89.0022L191.735 89.6108C191.606 89.5774 191.477 89.5559 191.348 89.5464C191.22 89.532 191.091 89.5249 190.962 89.5249C190.442 89.5249 189.981 89.6084 189.58 89.7755C189.184 89.9377 188.874 90.1764 188.649 90.4914C188.425 90.8064 188.313 91.1883 188.313 91.6369V94.5651H190.432V95.7393H185.435ZM198.604 95.9111C197.912 95.9111 197.415 95.744 197.115 95.4099C196.814 95.071 196.664 94.6152 196.664 94.0425V89.5965H195.031V88.4223H196.664V86.0454L197.988 85.4011V88.4223H200.458V89.5965H197.988V93.6702C197.988 93.8754 198.017 94.0568 198.074 94.2143C198.131 94.3718 198.236 94.4935 198.389 94.5794C198.542 94.6653 198.759 94.7083 199.041 94.7083C199.356 94.7083 199.613 94.6677 199.814 94.5866C200.019 94.5055 200.203 94.4172 200.365 94.3217L200.208 95.5818C200.012 95.682 199.79 95.7607 199.542 95.818C199.298 95.8801 198.986 95.9111 198.604 95.9111ZM206.482 95.9111C205.91 95.9111 205.418 95.8037 205.007 95.5889C204.597 95.3694 204.282 95.0209 204.062 94.5436C203.843 94.0616 203.733 93.4244 203.733 92.6321V88.4223H205.072V92.6535C205.072 93.3886 205.227 93.9064 205.537 94.2071C205.852 94.5078 206.239 94.6582 206.697 94.6582C207.017 94.6582 207.308 94.5985 207.571 94.4792C207.838 94.3599 208.05 94.157 208.208 93.8706C208.365 93.5795 208.444 93.1833 208.444 92.6822V88.4223H209.783V95.7393H208.444V95.0233C208.215 95.3192 207.936 95.5412 207.606 95.6891C207.277 95.8371 206.902 95.9111 206.482 95.9111ZM215.077 95.9111C214.566 95.9111 214.112 95.8204 213.716 95.639C213.32 95.4529 213.008 95.1784 212.778 94.8157C212.549 94.4529 212.435 93.9995 212.435 93.4554C212.435 92.8922 212.571 92.434 212.843 92.0808C213.12 91.7228 213.473 91.4603 213.902 91.2933C214.337 91.1214 214.793 91.0355 215.27 91.0355C215.633 91.0355 215.969 91.0713 216.279 91.1429C216.594 91.2097 216.905 91.3243 217.21 91.4866V90.9639C217.21 90.5535 217.143 90.2361 217.01 90.0117C216.876 89.7874 216.692 89.6323 216.458 89.5464C216.229 89.4557 215.972 89.4103 215.685 89.4103C215.289 89.4103 214.883 89.4867 214.468 89.6394C214.053 89.7874 213.685 89.9664 213.366 90.1764L212.972 89.0738C213.306 88.8686 213.721 88.6801 214.218 88.5082C214.719 88.3364 215.248 88.2505 215.807 88.2505C216.103 88.2505 216.406 88.2839 216.716 88.3507C217.026 88.4176 217.315 88.544 217.582 88.7302C217.85 88.9163 218.064 89.1836 218.227 89.532C218.394 89.8805 218.477 90.3339 218.477 90.8923V95.7393H217.21V95.0949C216.967 95.3192 216.668 95.5125 216.315 95.6748C215.962 95.8323 215.549 95.9111 215.077 95.9111ZM215.277 94.7513C215.721 94.7513 216.103 94.6534 216.423 94.4577C216.747 94.262 217.01 94.0496 217.21 93.8205V92.6392C216.995 92.5104 216.73 92.4006 216.415 92.3099C216.1 92.2192 215.778 92.1739 215.449 92.1739C214.981 92.1739 214.571 92.2765 214.218 92.4817C213.869 92.687 213.695 93.0115 213.695 93.4554C213.695 93.8372 213.833 94.1499 214.11 94.3933C214.387 94.6319 214.776 94.7513 215.277 94.7513ZM223.743 95.7393V85.6445L225.067 85.4011V95.7393H223.743ZM221.666 95.7393V94.5651H227.143V95.7393H221.666ZM221.996 86.5752L221.394 85.4011H225.067L224.802 86.5752H221.996ZM242.263 95.9111C241.619 95.9111 241.062 95.7679 240.595 95.4815C240.127 95.1904 239.743 94.799 239.442 94.3074C239.146 93.811 238.927 93.2549 238.783 92.6392C238.64 92.0187 238.569 91.3816 238.569 90.7277C238.569 90.0738 238.643 89.439 238.791 88.8233C238.938 88.2028 239.165 87.6467 239.471 87.1551C239.776 86.6587 240.16 86.2673 240.623 85.981C241.086 85.6898 241.633 85.5442 242.263 85.5442C242.807 85.5442 243.26 85.6325 243.623 85.8091C243.986 85.981 244.284 86.2053 244.518 86.4821C244.757 86.759 244.96 87.0525 245.127 87.3627L243.931 88.05C243.754 87.7159 243.537 87.4248 243.279 87.1766C243.027 86.9284 242.688 86.8043 242.263 86.8043C241.843 86.8043 241.487 86.9236 241.196 87.1623C240.905 87.3961 240.669 87.7064 240.487 88.093C240.311 88.4796 240.182 88.9044 240.101 89.3674C240.02 89.8256 239.979 90.279 239.979 90.7277C239.979 91.2288 240.024 91.7133 240.115 92.181C240.206 92.6488 240.342 93.0688 240.523 93.4411C240.709 93.8134 240.946 94.1093 241.232 94.3289C241.523 94.5436 241.867 94.651 242.263 94.651C242.831 94.651 243.268 94.4506 243.573 94.0496C243.878 93.6439 244.031 93.1189 244.031 92.4746V92.0665H242.234V90.8207H245.434V92.0665C245.434 92.897 245.294 93.5986 245.012 94.1713C244.735 94.7441 244.356 95.1784 243.874 95.4744C243.396 95.7655 242.859 95.9111 242.263 95.9111ZM250.599 95.9111C250.027 95.9111 249.535 95.8037 249.125 95.5889C248.714 95.3694 248.399 95.0209 248.18 94.5436C247.96 94.0616 247.85 93.4244 247.85 92.6321V88.4223H249.189V92.6535C249.189 93.3886 249.344 93.9064 249.654 94.2071C249.969 94.5078 250.356 94.6582 250.814 94.6582C251.134 94.6582 251.425 94.5985 251.688 94.4792C251.955 94.3599 252.167 94.157 252.325 93.8706C252.482 93.5795 252.561 93.1833 252.561 92.6822V88.4223H253.9V95.7393H252.561V95.0233C252.332 95.3192 252.053 95.5412 251.723 95.6891C251.394 95.8371 251.019 95.9111 250.599 95.9111ZM259.194 95.9111C258.683 95.9111 258.23 95.8204 257.833 95.639C257.437 95.4529 257.125 95.1784 256.896 94.8157C256.666 94.4529 256.552 93.9995 256.552 93.4554C256.552 92.8922 256.688 92.434 256.96 92.0808C257.237 91.7228 257.59 91.4603 258.02 91.2933C258.454 91.1214 258.91 91.0355 259.387 91.0355C259.75 91.0355 260.086 91.0713 260.397 91.1429C260.712 91.2097 261.022 91.3243 261.327 91.4866V90.9639C261.327 90.5535 261.26 90.2361 261.127 90.0117C260.993 89.7874 260.809 89.6323 260.576 89.5464C260.346 89.4557 260.089 89.4103 259.802 89.4103C259.406 89.4103 259 89.4867 258.585 89.6394C258.17 89.7874 257.802 89.9664 257.483 90.1764L257.089 89.0738C257.423 88.8686 257.838 88.6801 258.335 88.5082C258.836 88.3364 259.366 88.2505 259.924 88.2505C260.22 88.2505 260.523 88.2839 260.833 88.3507C261.144 88.4176 261.432 88.544 261.7 88.7302C261.967 88.9163 262.182 89.1836 262.344 89.532C262.511 89.8805 262.594 90.3339 262.594 90.8923V95.7393H261.327V95.0949C261.084 95.3192 260.786 95.5125 260.432 95.6748C260.079 95.8323 259.666 95.9111 259.194 95.9111ZM259.394 94.7513C259.838 94.7513 260.22 94.6534 260.54 94.4577C260.864 94.262 261.127 94.0496 261.327 93.8205V92.6392C261.112 92.5104 260.848 92.4006 260.533 92.3099C260.218 92.2192 259.895 92.1739 259.566 92.1739C259.098 92.1739 258.688 92.2765 258.335 92.4817C257.986 92.687 257.812 93.0115 257.812 93.4554C257.812 93.8372 257.95 94.1499 258.227 94.3933C258.504 94.6319 258.893 94.7513 259.394 94.7513ZM264.846 95.7393V94.5651H266.378V89.5965H264.846V88.4223H267.638V90.0547L267.552 89.8471C267.685 89.5273 267.895 89.248 268.182 89.0094C268.473 88.766 268.809 88.5798 269.191 88.451C269.573 88.3173 269.967 88.2505 270.373 88.2505C270.745 88.2505 271.065 88.2863 271.332 88.3579C271.604 88.4247 271.821 88.5082 271.984 88.6085V91.1859H270.673V89.0022L271.146 89.6108C271.017 89.5774 270.888 89.5559 270.759 89.5464C270.63 89.532 270.502 89.5249 270.373 89.5249C269.852 89.5249 269.392 89.6084 268.991 89.7755C268.595 89.9377 268.284 90.1764 268.06 90.4914C267.836 90.8064 267.724 91.1883 267.724 91.6369V94.5651H269.843V95.7393H264.846ZM277.113 95.9111C276.459 95.9111 275.893 95.7583 275.416 95.4529C274.943 95.1426 274.578 94.7011 274.321 94.1284C274.068 93.5509 273.941 92.8659 273.941 92.0736C273.941 91.2766 274.072 90.594 274.335 90.026C274.597 89.4533 274.965 89.0142 275.437 88.7087C275.91 88.4032 276.461 88.2505 277.091 88.2505C277.549 88.2505 277.936 88.3197 278.251 88.4581C278.571 88.5918 278.829 88.7541 279.024 88.945V86.0311L280.349 85.4011V95.7393H279.024V95.145C278.848 95.3407 278.602 95.5173 278.287 95.6748C277.972 95.8323 277.58 95.9111 277.113 95.9111ZM277.285 94.6725C277.685 94.6725 278.031 94.5914 278.323 94.4291C278.614 94.2668 278.848 94.0377 279.024 93.7418V90.3697C278.895 90.1692 278.69 89.9712 278.409 89.7755C278.127 89.5798 277.747 89.4819 277.27 89.4819C276.635 89.4819 276.146 89.7063 275.803 90.1549C275.464 90.5988 275.294 91.2384 275.294 92.0736C275.294 92.57 275.373 93.0139 275.53 93.4053C275.693 93.7967 275.922 94.1069 276.218 94.336C276.514 94.5603 276.869 94.6725 277.285 94.6725ZM282.492 95.7393V94.5651H284.025V89.5965H282.492V88.4223H285.285V90.0547L285.199 89.8471C285.332 89.5273 285.542 89.248 285.829 89.0094C286.12 88.766 286.456 88.5798 286.838 88.451C287.22 88.3173 287.614 88.2505 288.019 88.2505C288.392 88.2505 288.712 88.2863 288.979 88.3579C289.251 88.4247 289.468 88.5082 289.63 88.6085V91.1859H288.32V89.0022L288.793 89.6108C288.664 89.5774 288.535 89.5559 288.406 89.5464C288.277 89.532 288.148 89.5249 288.019 89.5249C287.499 89.5249 287.039 89.6084 286.638 89.7755C286.242 89.9377 285.931 90.1764 285.707 90.4914C285.483 90.8064 285.371 91.1883 285.371 91.6369V94.5651H287.49V95.7393H282.492ZM294.487 95.9111C293.977 95.9111 293.523 95.8204 293.127 95.639C292.731 95.4529 292.418 95.1784 292.189 94.8157C291.96 94.4529 291.846 93.9995 291.846 93.4554C291.846 92.8922 291.982 92.434 292.254 92.0808C292.531 91.7228 292.884 91.4603 293.313 91.2933C293.748 91.1214 294.203 91.0355 294.681 91.0355C295.044 91.0355 295.38 91.0713 295.69 91.1429C296.005 91.2097 296.316 91.3243 296.621 91.4866V90.9639C296.621 90.5535 296.554 90.2361 296.421 90.0117C296.287 89.7874 296.103 89.6323 295.869 89.5464C295.64 89.4557 295.382 89.4103 295.096 89.4103C294.7 89.4103 294.294 89.4867 293.879 89.6394C293.464 89.7874 293.096 89.9664 292.776 90.1764L292.383 89.0738C292.717 88.8686 293.132 88.6801 293.628 88.5082C294.129 88.3364 294.659 88.2505 295.218 88.2505C295.514 88.2505 295.817 88.2839 296.127 88.3507C296.437 88.4176 296.726 88.544 296.993 88.7302C297.261 88.9163 297.475 89.1836 297.638 89.532C297.805 89.8805 297.888 90.3339 297.888 90.8923V95.7393H296.621V95.0949C296.378 95.3192 296.079 95.5125 295.726 95.6748C295.373 95.8323 294.96 95.9111 294.487 95.9111ZM294.688 94.7513C295.132 94.7513 295.514 94.6534 295.833 94.4577C296.158 94.262 296.421 94.0496 296.621 93.8205V92.6392C296.406 92.5104 296.141 92.4006 295.826 92.3099C295.511 92.2192 295.189 92.1739 294.86 92.1739C294.392 92.1739 293.982 92.2765 293.628 92.4817C293.28 92.687 293.106 93.0115 293.106 93.4554C293.106 93.8372 293.244 94.1499 293.521 94.3933C293.798 94.6319 294.187 94.7513 294.688 94.7513ZM303.304 95.5961V88.4223H304.628V95.5961H303.304ZM301.285 95.7393V94.5651H306.647V95.7393H301.285ZM301.285 89.5965V88.4223H304.091V89.5965H301.285ZM303.962 87.1623C303.733 87.1623 303.54 87.0835 303.382 86.926C303.225 86.7637 303.146 86.568 303.146 86.3389C303.146 86.1051 303.225 85.9094 303.382 85.7519C303.54 85.5896 303.733 85.5084 303.962 85.5084C304.201 85.5084 304.397 85.5896 304.549 85.7519C304.707 85.9094 304.786 86.1051 304.786 86.3389C304.786 86.568 304.707 86.7637 304.549 86.926C304.397 87.0835 304.201 87.1623 303.962 87.1623ZM311.977 95.7393V85.6445L313.301 85.4011V95.7393H311.977ZM309.901 95.7393V94.5651H315.378V95.7393H309.901ZM310.23 86.5752L309.629 85.4011H313.301L313.036 86.5752H310.23ZM321.452 95.9111C320.884 95.9111 320.354 95.7894 319.862 95.546C319.376 95.3025 318.975 94.9947 318.66 94.6224L319.555 93.8205C319.769 94.0496 320.046 94.262 320.385 94.4577C320.729 94.6534 321.113 94.7513 321.538 94.7513C321.915 94.7513 322.23 94.6797 322.483 94.5365C322.74 94.3885 322.869 94.1642 322.869 93.8635C322.869 93.6344 322.788 93.4411 322.626 93.2836C322.468 93.1261 322.251 92.9853 321.974 92.8612C321.702 92.7371 321.394 92.6106 321.051 92.4817C320.621 92.3147 320.232 92.1357 319.884 91.9448C319.535 91.7538 319.259 91.5176 319.053 91.236C318.848 90.9544 318.745 90.6036 318.745 90.1835C318.745 89.7826 318.86 89.439 319.089 89.1526C319.323 88.8614 319.638 88.6395 320.034 88.4868C320.435 88.3293 320.884 88.2505 321.38 88.2505C321.953 88.2505 322.456 88.3555 322.891 88.5655C323.325 88.7755 323.688 89.05 323.979 89.3889L323.091 90.1263C322.905 89.9497 322.664 89.7874 322.368 89.6394C322.077 89.4867 321.721 89.4103 321.301 89.4103C320.92 89.4103 320.609 89.4772 320.371 89.6108C320.137 89.7444 320.02 89.9377 320.02 90.1907C320.02 90.3864 320.096 90.5535 320.249 90.6919C320.406 90.8303 320.612 90.9568 320.865 91.0713C321.118 91.1811 321.392 91.2909 321.688 91.4006C322.089 91.5486 322.476 91.7157 322.848 91.9018C323.225 92.088 323.535 92.3338 323.779 92.6392C324.022 92.9399 324.144 93.3361 324.144 93.8277C324.144 94.472 323.9 94.9804 323.413 95.3526C322.927 95.7249 322.273 95.9111 321.452 95.9111ZM171.776 112.904C171.084 112.904 170.494 112.758 170.007 112.467C169.525 112.171 169.134 111.775 168.833 111.279C168.532 110.782 168.311 110.226 168.167 109.611C168.029 108.995 167.96 108.367 167.96 107.728C167.96 107.083 168.031 106.453 168.174 105.838C168.322 105.222 168.549 104.668 168.855 104.177C169.16 103.68 169.554 103.286 170.036 102.995C170.523 102.699 171.103 102.551 171.776 102.551C172.31 102.551 172.761 102.642 173.129 102.823C173.501 103 173.807 103.232 174.045 103.518C174.284 103.8 174.472 104.095 174.611 104.406L173.408 105.029C173.227 104.68 173.012 104.391 172.764 104.162C172.52 103.928 172.191 103.811 171.776 103.811C171.332 103.811 170.955 103.928 170.644 104.162C170.339 104.396 170.091 104.706 169.9 105.093C169.714 105.48 169.578 105.904 169.492 106.367C169.406 106.826 169.363 107.279 169.363 107.728C169.363 108.215 169.411 108.692 169.506 109.16C169.602 109.623 169.745 110.043 169.936 110.42C170.131 110.792 170.382 111.09 170.687 111.315C170.993 111.534 171.356 111.644 171.776 111.644C172.205 111.644 172.554 111.525 172.821 111.286C173.088 111.047 173.31 110.739 173.487 110.362L174.704 110.828C174.551 111.2 174.344 111.544 174.081 111.859C173.823 112.174 173.503 112.427 173.122 112.618C172.74 112.808 172.291 112.904 171.776 112.904ZM177.27 112.739V103.017L178.594 102.401V106.188C179.057 105.563 179.733 105.251 180.621 105.251C181.174 105.251 181.654 105.358 182.06 105.573C182.465 105.783 182.778 106.126 182.998 106.604C183.217 107.076 183.327 107.701 183.327 108.479V112.739H182.002V108.444C182.002 107.718 181.84 107.21 181.516 106.919C181.196 106.627 180.807 106.482 180.349 106.482C180.024 106.482 179.728 106.542 179.461 106.661C179.198 106.775 178.988 106.974 178.831 107.255C178.673 107.537 178.594 107.923 178.594 108.415V112.739H177.27ZM189.265 112.911C188.559 112.911 187.952 112.744 187.447 112.41C186.941 112.071 186.552 111.613 186.28 111.035C186.012 110.458 185.879 109.804 185.879 109.074C185.879 108.272 186.017 107.587 186.294 107.019C186.575 106.446 186.969 106.009 187.475 105.709C187.986 105.403 188.582 105.251 189.265 105.251C189.828 105.251 190.344 105.375 190.811 105.623C191.279 105.871 191.651 106.253 191.928 106.768C192.21 107.284 192.351 107.945 192.351 108.751C192.351 108.852 192.348 108.976 192.344 109.124C192.344 109.272 192.332 109.432 192.308 109.603H186.91V108.451H191.033C191.019 107.935 190.919 107.53 190.733 107.234C190.551 106.938 190.327 106.73 190.06 106.611C189.792 106.487 189.528 106.425 189.265 106.425C188.549 106.425 188.024 106.651 187.69 107.105C187.356 107.558 187.189 108.169 187.189 108.938C187.189 109.787 187.375 110.463 187.747 110.964C188.12 111.465 188.635 111.715 189.294 111.715C189.599 111.715 189.89 111.665 190.167 111.565C190.449 111.46 190.718 111.295 190.976 111.071L191.742 111.93C191.441 112.212 191.079 112.446 190.654 112.632C190.234 112.818 189.771 112.911 189.265 112.911ZM198.096 112.911C197.127 112.911 196.356 112.577 195.783 111.909C195.215 111.236 194.931 110.296 194.931 109.088C194.931 108.286 195.062 107.599 195.325 107.026C195.587 106.453 195.96 106.014 196.442 105.709C196.929 105.403 197.504 105.251 198.167 105.251C198.831 105.251 199.396 105.396 199.864 105.687C200.332 105.978 200.673 106.42 200.888 107.012L199.649 107.456C199.539 107.174 199.363 106.943 199.119 106.761C198.881 106.575 198.559 106.482 198.153 106.482C197.518 106.482 197.048 106.718 196.742 107.191C196.442 107.658 196.291 108.291 196.291 109.088C196.291 109.895 196.444 110.527 196.75 110.985C197.06 111.443 197.518 111.673 198.124 111.673C198.53 111.673 198.869 111.577 199.141 111.386C199.413 111.19 199.609 110.921 199.728 110.577L200.959 110.992C200.764 111.603 200.42 112.076 199.928 112.41C199.437 112.744 198.826 112.911 198.096 112.911ZM203.769 112.739V103.031L205.093 102.401V112.739H203.769ZM204.965 109.775V108.279L207.735 105.422H209.296L204.965 109.775ZM208.566 112.739L206.246 108.2L207.198 107.248L210.019 112.739H208.566ZM221.301 112.739V102.716H227.702V104.005H222.654V106.919H226.227V108.2H222.654V112.739H221.301ZM232.723 112.911C232.213 112.911 231.759 112.82 231.363 112.639C230.967 112.453 230.654 112.178 230.425 111.816C230.196 111.453 230.082 111 230.082 110.455C230.082 109.892 230.218 109.434 230.49 109.081C230.767 108.723 231.12 108.46 231.549 108.293C231.984 108.121 232.439 108.036 232.917 108.036C233.28 108.036 233.616 108.071 233.926 108.143C234.241 108.21 234.552 108.324 234.857 108.487V107.964C234.857 107.553 234.79 107.236 234.657 107.012C234.523 106.787 234.339 106.632 234.105 106.546C233.876 106.456 233.618 106.41 233.332 106.41C232.936 106.41 232.53 106.487 232.115 106.639C231.7 106.787 231.332 106.966 231.012 107.176L230.619 106.074C230.953 105.869 231.368 105.68 231.864 105.508C232.366 105.336 232.895 105.251 233.454 105.251C233.75 105.251 234.053 105.284 234.363 105.351C234.673 105.418 234.962 105.544 235.229 105.73C235.497 105.916 235.711 106.184 235.874 106.532C236.041 106.88 236.124 107.334 236.124 107.892V112.739H234.857V112.095C234.614 112.319 234.315 112.513 233.962 112.675C233.609 112.832 233.196 112.911 232.723 112.911ZM232.924 111.751C233.368 111.751 233.75 111.653 234.069 111.458C234.394 111.262 234.657 111.05 234.857 110.821V109.639C234.642 109.51 234.377 109.401 234.062 109.31C233.747 109.219 233.425 109.174 233.096 109.174C232.628 109.174 232.218 109.276 231.864 109.482C231.516 109.687 231.342 110.012 231.342 110.455C231.342 110.837 231.48 111.15 231.757 111.393C232.034 111.632 232.423 111.751 232.924 111.751ZM241.54 112.596V105.422H242.864V112.596H241.54ZM239.521 112.739V111.565H244.883V112.739H239.521ZM239.521 106.596V105.422H242.327V106.596H239.521ZM242.198 104.162C241.969 104.162 241.776 104.084 241.619 103.926C241.461 103.764 241.382 103.568 241.382 103.339C241.382 103.105 241.461 102.909 241.619 102.752C241.776 102.59 241.969 102.508 242.198 102.508C242.437 102.508 242.633 102.59 242.785 102.752C242.943 102.909 243.022 103.105 243.022 103.339C243.022 103.568 242.943 103.764 242.785 103.926C242.633 104.084 242.437 104.162 242.198 104.162ZM250.213 112.739V102.644L251.537 102.401V112.739H250.213ZM248.137 112.739V111.565H253.614V112.739H248.137ZM248.466 103.575L247.865 102.401H251.537L251.272 103.575H248.466ZM259.852 112.911C259.146 112.911 258.54 112.744 258.034 112.41C257.528 112.071 257.139 111.613 256.867 111.035C256.6 110.458 256.466 109.804 256.466 109.074C256.466 108.272 256.604 107.587 256.881 107.019C257.163 106.446 257.557 106.009 258.063 105.709C258.573 105.403 259.17 105.251 259.852 105.251C260.416 105.251 260.931 105.375 261.399 105.623C261.867 105.871 262.239 106.253 262.516 106.768C262.797 107.284 262.938 107.945 262.938 108.751C262.938 108.852 262.936 108.976 262.931 109.124C262.931 109.272 262.919 109.432 262.895 109.603H257.497V108.451H261.621C261.606 107.935 261.506 107.53 261.32 107.234C261.139 106.938 260.914 106.73 260.647 106.611C260.38 106.487 260.115 106.425 259.852 106.425C259.136 106.425 258.611 106.651 258.277 107.105C257.943 107.558 257.776 108.169 257.776 108.938C257.776 109.787 257.962 110.463 258.335 110.964C258.707 111.465 259.222 111.715 259.881 111.715C260.187 111.715 260.478 111.665 260.755 111.565C261.036 111.46 261.306 111.295 261.564 111.071L262.33 111.93C262.029 112.212 261.666 112.446 261.241 112.632C260.821 112.818 260.358 112.911 259.852 112.911ZM268.289 112.911C267.635 112.911 267.07 112.758 266.592 112.453C266.12 112.143 265.755 111.701 265.497 111.128C265.244 110.551 265.118 109.866 265.118 109.074C265.118 108.277 265.249 107.594 265.511 107.026C265.774 106.453 266.141 106.014 266.614 105.709C267.086 105.403 267.638 105.251 268.268 105.251C268.726 105.251 269.113 105.32 269.428 105.458C269.747 105.592 270.005 105.754 270.201 105.945V103.031L271.525 102.401V112.739H270.201V112.145C270.024 112.341 269.778 112.517 269.463 112.675C269.148 112.832 268.757 112.911 268.289 112.911ZM268.461 111.673C268.862 111.673 269.208 111.591 269.499 111.429C269.79 111.267 270.024 111.038 270.201 110.742V107.37C270.072 107.169 269.867 106.971 269.585 106.775C269.303 106.58 268.924 106.482 268.447 106.482C267.812 106.482 267.323 106.706 266.979 107.155C266.64 107.599 266.471 108.238 266.471 109.074C266.471 109.57 266.55 110.014 266.707 110.405C266.869 110.797 267.098 111.107 267.394 111.336C267.69 111.56 268.046 111.673 268.461 111.673Z" fill="#222945" fill-opacity="0.8"/>
<path d="M224.891 235.127C224.199 235.127 223.61 234.981 223.123 234.69C222.641 234.394 222.25 233.998 221.949 233.501C221.648 233.005 221.426 232.449 221.283 231.833C221.145 231.218 221.075 230.59 221.075 229.95C221.075 229.306 221.147 228.676 221.29 228.06C221.438 227.445 221.665 226.891 221.97 226.399C222.276 225.903 222.67 225.509 223.152 225.218C223.638 224.922 224.218 224.774 224.891 224.774C225.426 224.774 225.877 224.865 226.245 225.046C226.617 225.223 226.922 225.454 227.161 225.741C227.4 226.022 227.588 226.318 227.727 226.628L226.524 227.251C226.342 226.903 226.128 226.614 225.879 226.385C225.636 226.151 225.307 226.034 224.891 226.034C224.448 226.034 224.07 226.151 223.76 226.385C223.455 226.619 223.207 226.929 223.016 227.316C222.829 227.702 222.693 228.127 222.608 228.59C222.522 229.048 222.479 229.502 222.479 229.95C222.479 230.437 222.526 230.914 222.622 231.382C222.717 231.845 222.861 232.265 223.051 232.642C223.247 233.015 223.498 233.313 223.803 233.537C224.109 233.757 224.471 233.867 224.891 233.867C225.321 233.867 225.669 233.747 225.937 233.509C226.204 233.27 226.426 232.962 226.602 232.585L227.82 233.05C227.667 233.423 227.459 233.766 227.197 234.081C226.939 234.396 226.619 234.649 226.237 234.84C225.856 235.031 225.407 235.127 224.891 235.127ZM230.386 234.962V225.239L231.71 224.624V228.411C232.173 227.786 232.849 227.473 233.736 227.473C234.29 227.473 234.77 227.581 235.175 227.795C235.581 228.005 235.894 228.349 236.113 228.826C236.333 229.299 236.443 229.924 236.443 230.702V234.962H235.118V230.666C235.118 229.941 234.956 229.432 234.631 229.141C234.311 228.85 233.922 228.705 233.464 228.705C233.14 228.705 232.844 228.764 232.576 228.884C232.314 228.998 232.104 229.196 231.946 229.478C231.789 229.759 231.71 230.146 231.71 230.638V234.962H230.386ZM241.722 235.134C241.211 235.134 240.758 235.043 240.362 234.862C239.966 234.676 239.653 234.401 239.424 234.038C239.195 233.676 239.08 233.222 239.08 232.678C239.08 232.115 239.216 231.657 239.488 231.303C239.765 230.945 240.118 230.683 240.548 230.516C240.982 230.344 241.438 230.258 241.915 230.258C242.278 230.258 242.615 230.294 242.925 230.366C243.24 230.432 243.55 230.547 243.856 230.709V230.187C243.856 229.776 243.789 229.459 243.655 229.234C243.521 229.01 243.338 228.855 243.104 228.769C242.875 228.678 242.617 228.633 242.331 228.633C241.934 228.633 241.529 228.709 241.114 228.862C240.698 229.01 240.331 229.189 240.011 229.399L239.617 228.296C239.951 228.091 240.367 227.903 240.863 227.731C241.364 227.559 241.894 227.473 242.452 227.473C242.748 227.473 243.051 227.507 243.362 227.573C243.672 227.64 243.961 227.767 244.228 227.953C244.495 228.139 244.71 228.406 244.872 228.755C245.039 229.103 245.123 229.557 245.123 230.115V234.962H243.856V234.318C243.612 234.542 243.314 234.735 242.961 234.897C242.607 235.055 242.195 235.134 241.722 235.134ZM241.923 233.974C242.366 233.974 242.748 233.876 243.068 233.68C243.393 233.485 243.655 233.272 243.856 233.043V231.862C243.641 231.733 243.376 231.623 243.061 231.533C242.746 231.442 242.424 231.397 242.094 231.397C241.627 231.397 241.216 231.499 240.863 231.704C240.515 231.91 240.34 232.234 240.34 232.678C240.34 233.06 240.479 233.373 240.756 233.616C241.032 233.855 241.421 233.974 241.923 233.974ZM248.033 234.962V227.645H249.357V229.134L249.164 228.805C249.24 228.557 249.381 228.332 249.586 228.132C249.796 227.931 250.054 227.771 250.359 227.652C250.67 227.533 251.011 227.473 251.383 227.473C251.937 227.473 252.416 227.581 252.822 227.795C253.228 228.005 253.541 228.349 253.76 228.826C253.98 229.299 254.089 229.924 254.089 230.702V234.962H252.765V230.666C252.765 229.941 252.605 229.432 252.285 229.141C251.965 228.85 251.574 228.705 251.111 228.705C250.782 228.705 250.483 228.764 250.216 228.884C249.954 228.998 249.744 229.196 249.586 229.478C249.433 229.759 249.357 230.146 249.357 230.638V234.962H248.033ZM259.369 237.94L258.696 236.873C259.441 236.826 260.013 236.723 260.414 236.566C260.82 236.413 261.099 236.21 261.252 235.957C261.409 235.704 261.488 235.408 261.488 235.069V234.296C261.278 234.568 261.02 234.776 260.715 234.919C260.414 235.062 260.037 235.134 259.584 235.134C259.025 235.134 258.515 234.991 258.052 234.704C257.589 234.418 257.216 233.991 256.935 233.423C256.658 232.855 256.519 232.146 256.519 231.296C256.519 230.499 256.651 229.817 256.913 229.249C257.181 228.676 257.548 228.237 258.016 227.931C258.484 227.626 259.021 227.473 259.627 227.473C259.961 227.473 260.25 227.514 260.493 227.595C260.736 227.671 260.939 227.769 261.102 227.888C261.264 228.003 261.393 228.113 261.488 228.218V227.645H262.813V234.518C262.813 235.129 262.734 235.644 262.576 236.064C262.424 236.489 262.197 236.833 261.896 237.095C261.6 237.363 261.24 237.561 260.815 237.69C260.39 237.823 259.908 237.907 259.369 237.94ZM259.841 233.895C260.176 233.895 260.488 233.809 260.779 233.637C261.075 233.466 261.312 233.225 261.488 232.914V229.628C261.321 229.347 261.087 229.122 260.786 228.955C260.486 228.788 260.171 228.705 259.841 228.705C259.192 228.705 258.701 228.929 258.367 229.378C258.033 229.821 257.865 230.461 257.865 231.296C257.865 232.108 258.047 232.745 258.41 233.208C258.772 233.666 259.25 233.895 259.841 233.895ZM268.851 235.134C268.145 235.134 267.538 234.967 267.033 234.633C266.527 234.294 266.138 233.835 265.866 233.258C265.598 232.68 265.465 232.027 265.465 231.296C265.465 230.494 265.603 229.81 265.88 229.242C266.161 228.669 266.555 228.232 267.061 227.931C267.572 227.626 268.168 227.473 268.851 227.473C269.414 227.473 269.93 227.597 270.397 227.845C270.865 228.094 271.237 228.475 271.514 228.991C271.796 229.506 271.937 230.167 271.937 230.974C271.937 231.074 271.934 231.198 271.93 231.346C271.93 231.494 271.918 231.654 271.894 231.826H266.496V230.673H270.619C270.605 230.158 270.505 229.752 270.319 229.456C270.137 229.16 269.913 228.953 269.646 228.833C269.378 228.709 269.114 228.647 268.851 228.647C268.135 228.647 267.61 228.874 267.276 229.327C266.942 229.781 266.775 230.392 266.775 231.16C266.775 232.01 266.961 232.685 267.333 233.186C267.706 233.688 268.221 233.938 268.88 233.938C269.185 233.938 269.476 233.888 269.753 233.788C270.035 233.683 270.304 233.518 270.562 233.294L271.328 234.153C271.027 234.435 270.665 234.668 270.24 234.855C269.82 235.041 269.357 235.134 268.851 235.134ZM277.51 235.134C276.942 235.134 276.412 235.012 275.92 234.769C275.434 234.525 275.033 234.217 274.718 233.845L275.613 233.043C275.827 233.272 276.104 233.485 276.443 233.68C276.787 233.876 277.171 233.974 277.596 233.974C277.973 233.974 278.288 233.902 278.541 233.759C278.798 233.611 278.927 233.387 278.927 233.086C278.927 232.857 278.846 232.664 278.684 232.506C278.526 232.349 278.309 232.208 278.032 232.084C277.76 231.96 277.453 231.833 277.109 231.704C276.679 231.537 276.29 231.358 275.942 231.167C275.593 230.977 275.317 230.74 275.111 230.459C274.906 230.177 274.804 229.826 274.804 229.406C274.804 229.005 274.918 228.662 275.147 228.375C275.381 228.084 275.696 227.862 276.092 227.709C276.493 227.552 276.942 227.473 277.438 227.473C278.011 227.473 278.514 227.578 278.949 227.788C279.383 227.998 279.746 228.273 280.037 228.612L279.149 229.349C278.963 229.172 278.722 229.01 278.426 228.862C278.135 228.709 277.779 228.633 277.359 228.633C276.978 228.633 276.667 228.7 276.429 228.833C276.195 228.967 276.078 229.16 276.078 229.413C276.078 229.609 276.154 229.776 276.307 229.915C276.465 230.053 276.67 230.179 276.923 230.294C277.176 230.404 277.45 230.514 277.746 230.623C278.147 230.771 278.534 230.938 278.906 231.124C279.283 231.311 279.593 231.556 279.837 231.862C280.08 232.163 280.202 232.559 280.202 233.05C280.202 233.695 279.958 234.203 279.471 234.575C278.985 234.948 278.331 235.134 277.51 235.134ZM221.476 251.962V241.939H224.648C225.459 241.939 226.097 242.08 226.56 242.361C227.023 242.638 227.349 242.998 227.54 243.442C227.736 243.881 227.834 244.344 227.834 244.831C227.834 245.175 227.777 245.518 227.662 245.862C227.552 246.201 227.376 246.511 227.132 246.793C226.894 247.07 226.579 247.296 226.187 247.473C225.801 247.645 225.331 247.74 224.777 247.759H222.829V251.962H221.476ZM226.302 251.962L224.154 247.559L225.579 247.444L227.798 251.962H226.302ZM222.829 246.506H224.677C225.14 246.506 225.502 246.425 225.765 246.263C226.027 246.101 226.211 245.895 226.316 245.647C226.426 245.394 226.481 245.132 226.481 244.86C226.481 244.616 226.428 244.366 226.323 244.108C226.223 243.85 226.042 243.633 225.779 243.457C225.521 243.28 225.154 243.192 224.677 243.192H222.829V246.506ZM233.557 252.134C232.851 252.134 232.245 251.967 231.739 251.633C231.233 251.294 230.844 250.835 230.572 250.258C230.305 249.68 230.171 249.027 230.171 248.296C230.171 247.494 230.309 246.81 230.586 246.242C230.868 245.669 231.262 245.232 231.767 244.931C232.278 244.626 232.875 244.473 233.557 244.473C234.121 244.473 234.636 244.597 235.104 244.845C235.572 245.094 235.944 245.475 236.221 245.991C236.502 246.506 236.643 247.167 236.643 247.974C236.643 248.074 236.641 248.198 236.636 248.346C236.636 248.494 236.624 248.654 236.6 248.826H231.202V247.673H235.326C235.311 247.158 235.211 246.752 235.025 246.456C234.844 246.16 234.619 245.953 234.352 245.833C234.085 245.709 233.82 245.647 233.557 245.647C232.841 245.647 232.316 245.874 231.982 246.327C231.648 246.781 231.481 247.392 231.481 248.16C231.481 249.01 231.667 249.685 232.04 250.186C232.412 250.688 232.927 250.938 233.586 250.938C233.891 250.938 234.183 250.888 234.459 250.788C234.741 250.683 235.011 250.518 235.268 250.294L236.034 251.153C235.734 251.435 235.371 251.668 234.946 251.855C234.526 252.041 234.063 252.134 233.557 252.134ZM241.658 251.962L238.844 244.645H240.24L242.023 249.478C242.066 249.587 242.106 249.704 242.144 249.828C242.183 249.948 242.221 250.084 242.259 250.236C242.297 250.084 242.335 249.948 242.374 249.828C242.417 249.704 242.457 249.587 242.495 249.478L244.249 244.645H245.624L242.81 251.962H241.658ZM251.204 252.134C250.498 252.134 249.892 251.967 249.386 251.633C248.88 251.294 248.491 250.835 248.219 250.258C247.951 249.68 247.818 249.027 247.818 248.296C247.818 247.494 247.956 246.81 248.233 246.242C248.515 245.669 248.908 245.232 249.414 244.931C249.925 244.626 250.522 244.473 251.204 244.473C251.767 244.473 252.283 244.597 252.751 244.845C253.218 245.094 253.591 245.475 253.867 245.991C254.149 246.506 254.29 247.167 254.29 247.974C254.29 248.074 254.287 248.198 254.283 248.346C254.283 248.494 254.271 248.654 254.247 248.826H248.849V247.673H252.973C252.958 247.158 252.858 246.752 252.672 246.456C252.49 246.16 252.266 245.953 251.999 245.833C251.732 245.709 251.467 245.647 251.204 245.647C250.488 245.647 249.963 245.874 249.629 246.327C249.295 246.781 249.128 247.392 249.128 248.16C249.128 249.01 249.314 249.685 249.686 250.186C250.059 250.688 250.574 250.938 251.233 250.938C251.538 250.938 251.829 250.888 252.106 250.788C252.388 250.683 252.658 250.518 252.915 250.294L253.681 251.153C253.381 251.435 253.018 251.668 252.593 251.855C252.173 252.041 251.71 252.134 251.204 252.134ZM256.197 251.962V250.788H257.729V245.819H256.197V244.645H258.989V246.277L258.904 246.07C259.037 245.75 259.247 245.471 259.534 245.232C259.825 244.989 260.161 244.802 260.543 244.674C260.925 244.54 261.319 244.473 261.724 244.473C262.097 244.473 262.416 244.509 262.684 244.581C262.956 244.647 263.173 244.731 263.335 244.831V247.409H262.025V245.225L262.498 245.833C262.369 245.8 262.24 245.779 262.111 245.769C261.982 245.755 261.853 245.748 261.724 245.748C261.204 245.748 260.744 245.831 260.343 245.998C259.946 246.16 259.636 246.399 259.412 246.714C259.188 247.029 259.075 247.411 259.075 247.86V250.788H261.195V251.962H256.197ZM269.366 252.134C268.674 252.134 268.178 251.967 267.877 251.633C267.577 251.294 267.426 250.838 267.426 250.265V245.819H265.794V244.645H267.426V242.268L268.751 241.624V244.645H271.221V245.819H268.751V249.893C268.751 250.098 268.779 250.279 268.837 250.437C268.894 250.594 268.999 250.716 269.152 250.802C269.304 250.888 269.522 250.931 269.803 250.931C270.118 250.931 270.376 250.89 270.576 250.809C270.782 250.728 270.965 250.64 271.128 250.544L270.97 251.804C270.775 251.905 270.553 251.983 270.304 252.041C270.061 252.103 269.748 252.134 269.366 252.134ZM277.674 252.134C276.968 252.134 276.362 251.967 275.856 251.633C275.35 251.294 274.961 250.835 274.689 250.258C274.422 249.68 274.288 249.027 274.288 248.296C274.288 247.494 274.426 246.81 274.703 246.242C274.985 245.669 275.379 245.232 275.885 244.931C276.395 244.626 276.992 244.473 277.674 244.473C278.238 244.473 278.753 244.597 279.221 244.845C279.689 245.094 280.061 245.475 280.338 245.991C280.619 246.506 280.76 247.167 280.76 247.974C280.76 248.074 280.758 248.198 280.753 248.346C280.753 248.494 280.741 248.654 280.717 248.826H275.319V247.673H279.443C279.429 247.158 279.328 246.752 279.142 246.456C278.961 246.16 278.736 245.953 278.469 245.833C278.202 245.709 277.937 245.647 277.674 245.647C276.959 245.647 276.433 245.874 276.099 246.327C275.765 246.781 275.598 247.392 275.598 248.16C275.598 249.01 275.784 249.685 276.157 250.186C276.529 250.688 277.044 250.938 277.703 250.938C278.009 250.938 278.3 250.888 278.577 250.788C278.858 250.683 279.128 250.518 279.386 250.294L280.152 251.153C279.851 251.435 279.488 251.668 279.063 251.855C278.643 252.041 278.18 252.134 277.674 252.134ZM286.111 252.134C285.457 252.134 284.892 251.981 284.414 251.676C283.942 251.365 283.577 250.924 283.319 250.351C283.066 249.774 282.94 249.089 282.94 248.296C282.94 247.499 283.071 246.817 283.333 246.249C283.596 245.676 283.963 245.237 284.436 244.931C284.908 244.626 285.46 244.473 286.09 244.473C286.548 244.473 286.935 244.542 287.25 244.681C287.569 244.814 287.827 244.977 288.023 245.168V242.254L289.347 241.624V251.962H288.023V251.368C287.846 251.563 287.6 251.74 287.285 251.897C286.97 252.055 286.579 252.134 286.111 252.134ZM286.283 250.895C286.684 250.895 287.03 250.814 287.321 250.652C287.612 250.489 287.846 250.26 288.023 249.964V246.592C287.894 246.392 287.689 246.194 287.407 245.998C287.126 245.802 286.746 245.705 286.269 245.705C285.634 245.705 285.145 245.929 284.801 246.378C284.462 246.821 284.293 247.461 284.293 248.296C284.293 248.793 284.372 249.237 284.529 249.628C284.691 250.019 284.92 250.33 285.216 250.559C285.512 250.783 285.868 250.895 286.283 250.895Z" fill="white"/>
<g clip-path="url(#clip0_2785_11592)">
<path d="M191.852 225.952H182.99V222.348L175.831 228.779L182.99 235.473V231.894H191.852C195.517 231.894 198.488 234.705 198.488 238.369C198.488 242.034 195.518 245.019 191.852 245.019H182.99V250.985H191.852C198.821 250.985 204.468 245.337 204.468 238.369C204.468 231.402 198.821 225.952 191.852 225.952Z" fill="white"/>
</g>
<rect x="164.671" y="131.662" width="50.1159" height="50.1159" rx="3.93066" fill="#F4F6FA"/>
<circle cx="206.222" cy="140.357" r="4" fill="#FF3737"/>
<g clip-path="url(#clip1_2785_11592)">
<path fill-rule="evenodd" clip-rule="evenodd" d="M187.042 148.263C185.993 148.263 185.144 149.113 185.145 150.16C185.144 151.206 185.994 152.056 187.043 152.056H188.94V150.16C188.941 149.114 188.091 148.264 187.042 148.263C187.043 148.263 187.043 148.263 187.042 148.263M187.042 153.322H181.983C180.935 153.323 180.085 154.172 180.086 155.219C180.084 156.265 180.934 157.115 181.983 157.116H187.042C188.091 157.116 188.94 156.266 188.939 155.219C188.94 154.172 188.091 153.323 187.042 153.322Z" fill="#222945"/>
<path fill-rule="evenodd" clip-rule="evenodd" d="M199.058 155.219C199.059 154.172 198.209 153.323 197.161 153.322C196.112 153.323 195.262 154.172 195.263 155.219V157.116H197.161C198.209 157.116 199.059 156.266 199.058 155.219ZM193.999 155.219V150.16C194 149.114 193.151 148.264 192.102 148.263C191.053 148.263 190.204 149.113 190.205 150.16V155.219C190.203 156.265 191.053 157.115 192.101 157.116C193.15 157.116 194 156.266 193.999 155.219Z" fill="#222945"/>
<path fill-rule="evenodd" clip-rule="evenodd" d="M192.101 167.234C193.15 167.233 193.999 166.384 193.999 165.337C193.999 164.291 193.15 163.441 192.101 163.441H190.204V165.337C190.203 166.383 191.052 167.233 192.101 167.234ZM192.101 162.174H197.16C198.209 162.174 199.059 161.324 199.058 160.277C199.059 159.231 198.21 158.381 197.161 158.38H192.102C191.053 158.381 190.204 159.23 190.204 160.277C190.204 161.324 191.052 162.174 192.101 162.174Z" fill="#222945"/>
<path fill-rule="evenodd" clip-rule="evenodd" d="M180.086 160.278C180.085 161.324 180.935 162.174 181.983 162.174C183.032 162.174 183.882 161.324 183.881 160.278V158.381H181.983C180.935 158.382 180.085 159.231 180.086 160.278ZM185.145 160.278V165.337C185.144 166.384 185.993 167.233 187.042 167.234C188.091 167.234 188.94 166.384 188.939 165.338V160.279C188.941 159.233 188.091 158.383 187.043 158.382C185.993 158.382 185.144 159.231 185.145 160.278C185.145 160.278 185.145 160.278 185.145 160.278Z" fill="#222945"/>
</g>
<rect x="224.333" y="131.662" width="50.1159" height="50.1159" rx="3.93066" fill="#F4F6FA"/>
<circle cx="266.222" cy="140.357" r="4" fill="#FF3737"/>
<path d="M249.391 157.287L239.857 149.561H258.925L249.391 157.287ZM249.391 159.335L239.845 151.599V163.879H258.937V151.599L249.391 159.335Z" fill="#222945"/>
<defs>
<clipPath id="clip0_2785_11592">
<rect width="28.6377" height="28.6377" fill="white" transform="translate(175.831 222.348)"/>
</clipPath>
<clipPath id="clip1_2785_11592">
<rect width="18.972" height="18.972" fill="white" transform="translate(180.086 148.263)"/>
</clipPath>
</defs>
</svg>
