<svg width="640" height="340" viewBox="0 0 640 340" fill="none" xmlns="http://www.w3.org/2000/svg">
<rect width="640" height="340" rx="8" fill="#F4F6FA"/>
<rect x="250.476" y="134.152" width="130.256" height="142.188" rx="1.88647" fill="white" stroke="#19D4EE"/>
<rect x="267.875" y="150.357" width="28.6377" height="28.6377" rx="2.38647" fill="#0DDA84"/>
<path d="M275.034 165.198L279.509 169.673L289.353 160.276" stroke="white" stroke-width="1.78986"/>
<rect x="267.875" y="186.154" width="28.6377" height="28.6377" rx="2.38647" fill="#0DDA84"/>
<path d="M275.034 200.995L279.509 205.47L289.353 196.073" stroke="white" stroke-width="1.78986"/>
<rect x="267.875" y="221.951" width="28.6377" height="28.6377" rx="2.38647" fill="#FF3737"/>
<path d="M286.617 231.147L276.227 241.537" stroke="white" stroke-width="2.38647"/>
<path d="M276.227 231.147L286.617 241.537" stroke="white" stroke-width="2.38647"/>
<path d="M306.058 152.744H347.821" stroke="#222945" stroke-opacity="0.1" stroke-width="2.38647" stroke-linecap="square"/>
<path d="M306.058 158.71H347.821" stroke="#222945" stroke-opacity="0.1" stroke-width="2.38647" stroke-linecap="square"/>
<path d="M306.058 164.677H334.696" stroke="#222945" stroke-opacity="0.1" stroke-width="2.38647" stroke-linecap="square"/>
<path d="M306.058 188.541H347.821" stroke="#222945" stroke-opacity="0.1" stroke-width="2.38647" stroke-linecap="square"/>
<path d="M306.058 194.507H347.821" stroke="#222945" stroke-opacity="0.1" stroke-width="2.38647" stroke-linecap="square"/>
<path d="M306.058 200.474H341.855" stroke="#222945" stroke-opacity="0.1" stroke-width="2.38647" stroke-linecap="square"/>
<path d="M306.058 223.145H347.821" stroke="#222945" stroke-opacity="0.1" stroke-width="2.38647" stroke-linecap="square"/>
<path d="M306.058 229.111H335.889" stroke="#222945" stroke-opacity="0.1" stroke-width="2.38647" stroke-linecap="square"/>
<path d="M306.058 235.077H319.184" stroke="#222945" stroke-opacity="0.1" stroke-width="2.38647" stroke-linecap="square"/>
<rect x="34" y="105" width="168.246" height="169.44" rx="9.54589" fill="white"/>
<g filter="url(#filter0_d_2803_10466)">
<rect x="62.6377" y="133.638" width="50.4324" height="50.4324" rx="3.95548" fill="white"/>
</g>
<path d="M87.9732 145.404C88.0031 145.404 88.033 145.442 88.0779 145.509C88.1153 145.569 91.2644 149.346 95.0793 153.902C98.8942 158.457 102.006 162.205 101.991 162.227C101.983 162.249 98.9465 164.74 95.2439 167.755C91.5412 170.769 88.3921 173.335 88.25 173.455C88.0031 173.657 87.9882 173.664 87.8984 173.574C87.846 173.522 84.6894 170.941 80.8821 167.837C77.0747 164.733 73.9704 162.175 73.9854 162.137C74.0004 162.1 77.127 158.367 80.9494 153.834C84.7717 149.301 87.8984 145.554 87.9134 145.494C87.9283 145.434 87.9508 145.404 87.9732 145.404Z" fill="#00BEF2"/>
<path d="M87.4575 169.139C87.0236 168.982 86.5 168.533 86.2831 168.114C86.0138 167.598 86.0362 166.79 86.3355 166.147C86.5673 165.668 86.5673 165.653 86.4177 165.541C86.3355 165.481 85.3406 164.927 84.2186 164.322C83.0966 163.716 82.1167 163.185 82.0494 163.147C81.9596 163.095 81.81 163.147 81.5407 163.319C80.6655 163.873 79.753 163.813 79.0349 163.147C78.5187 162.669 78.3691 162.332 78.3691 161.644C78.3691 160.978 78.5038 160.634 78.9301 160.208C79.5061 159.632 80.2766 159.437 81.0171 159.684C81.421 159.819 81.4285 159.819 81.6828 159.624C81.982 159.4 84.3831 157.208 85.5426 156.108L86.3429 155.345L86.1036 154.844C85.6174 153.834 85.8642 152.712 86.7169 152.039C87.1807 151.673 87.5248 151.561 88.1905 151.561C89.7464 151.561 90.831 153.191 90.2475 154.65C90.0905 155.054 90.0905 155.061 90.2401 155.308C90.3672 155.525 92.529 158.136 93.6734 159.467C93.8754 159.699 94.0998 159.886 94.1746 159.886C94.2494 159.886 94.5037 159.811 94.7431 159.721C95.8576 159.28 97.032 159.774 97.4958 160.881C97.795 161.591 97.5332 162.549 96.8974 163.125C96.4486 163.529 96.1194 163.656 95.521 163.656C95.1021 163.656 94.9451 163.611 94.5037 163.372C94.1746 163.192 93.9203 163.102 93.8156 163.132C93.636 163.177 90.8759 165.07 90.2625 165.563C89.8885 165.87 89.8586 165.982 90.0531 166.438C90.2401 166.887 90.2176 167.59 90.0082 168.032C89.7763 168.518 89.2003 169.004 88.6992 169.154C88.1905 169.296 87.8838 169.296 87.4575 169.139ZM87.5846 160.896V156.632L87.3453 156.303C87.2106 156.123 87.0835 155.974 87.061 155.974C86.9638 155.974 82.1316 160.365 82.1316 160.454C82.1316 160.477 82.2064 160.701 82.2962 160.941C82.386 161.187 82.4533 161.539 82.4458 161.741C82.4383 161.943 82.4383 162.167 82.4383 162.242C82.4458 162.414 84.0615 163.446 86.4851 164.845C87.1508 165.234 87.3827 165.331 87.4649 165.264C87.5622 165.182 87.5846 164.352 87.5846 160.896ZM89.6342 164.666C92.8357 162.654 93.4341 162.25 93.4715 162.1C93.4939 162.01 93.5238 161.659 93.5313 161.307L93.5538 160.679L91.9231 158.741C90.1727 156.669 89.5295 155.966 89.3799 155.966C89.3275 155.966 89.0657 156.116 88.7964 156.295L88.3027 156.625L88.3252 160.881C88.3476 164.696 88.3775 165.339 88.5196 165.339C88.5346 165.346 89.0433 165.04 89.6342 164.666Z" fill="white" stroke="white" stroke-width="0.108743" stroke-linecap="round" stroke-linejoin="round"/>
<g filter="url(#filter1_d_2803_10466)">
<rect x="122.616" y="133.638" width="50.4324" height="50.4324" rx="3.95548" fill="white"/>
</g>
<path d="M134.303 155.816C132.025 155.816 130.181 157.712 130.181 160.054C130.181 162.396 132.025 164.291 134.303 164.291C136.581 164.291 138.425 162.396 138.425 160.054C138.425 157.712 136.581 155.816 134.303 155.816ZM134.303 162.177C133.164 162.177 132.238 161.225 132.238 160.054C132.238 158.883 133.164 157.931 134.303 157.931C135.442 157.931 136.368 158.883 136.368 160.054C136.368 161.225 135.442 162.177 134.303 162.177Z" fill="#007DC1"/>
<path d="M141.547 161.477C141.547 161.14 141.941 160.98 142.17 161.216C143.203 162.294 144.907 164.148 144.915 164.156C144.94 164.181 144.965 164.223 145.063 164.257C145.104 164.274 145.17 164.274 145.243 164.274H147.104C147.44 164.274 147.538 163.878 147.382 163.676L144.301 160.433L144.137 160.264C143.785 159.834 143.825 159.666 144.227 159.228L146.669 156.423C146.825 156.22 146.727 155.833 146.382 155.833H144.694C144.629 155.833 144.579 155.833 144.53 155.85C144.432 155.883 144.391 155.917 144.366 155.951C144.358 155.959 143.006 157.459 142.17 158.377C141.941 158.63 141.531 158.461 141.531 158.116V153.306C141.531 153.061 141.334 152.969 141.178 152.969H139.802C139.564 152.969 139.449 153.129 139.449 153.272V163.937C139.449 164.181 139.646 164.249 139.81 164.249H141.187C141.4 164.249 141.539 164.089 141.539 163.929V163.819V161.477H141.547Z" fill="#007DC1"/>
<path d="M152.791 163.886L152.644 162.471C152.628 162.277 152.447 162.143 152.259 162.176C152.152 162.193 152.046 162.202 151.939 162.202C150.841 162.202 149.948 161.317 149.882 160.197C149.882 160.163 149.882 160.121 149.882 160.079V158.343C149.882 158.116 150.046 157.931 150.267 157.931H152.111C152.242 157.931 152.439 157.813 152.439 157.568V156.229C152.439 155.968 152.275 155.833 152.128 155.833H150.267C150.054 155.833 149.882 155.673 149.874 155.454V153.306C149.874 153.171 149.776 152.969 149.522 152.969H148.153C147.981 152.969 147.817 153.078 147.817 153.297C147.817 153.297 147.817 160.163 147.817 160.197C147.874 162.488 149.702 164.316 151.939 164.316C152.128 164.316 152.308 164.299 152.488 164.274C152.685 164.249 152.816 164.08 152.791 163.886Z" fill="#007DC1"/>
<path d="M162.724 162.11C161.56 162.11 161.38 161.68 161.38 160.071C161.38 160.063 161.38 160.063 161.38 160.054V156.188C161.38 156.053 161.282 155.825 161.019 155.825H159.643C159.471 155.825 159.282 155.969 159.282 156.188V156.365C158.684 156.011 157.987 155.809 157.25 155.809C154.971 155.809 153.127 157.704 153.127 160.046C153.127 162.388 154.971 164.283 157.25 164.283C158.274 164.283 159.208 163.896 159.93 163.264C160.315 163.87 160.938 164.275 161.913 164.283C162.077 164.283 162.962 164.317 162.962 163.887V162.379C162.962 162.253 162.863 162.11 162.724 162.11ZM157.258 162.177C156.119 162.177 155.193 161.225 155.193 160.054C155.193 158.883 156.119 157.931 157.258 157.931C158.397 157.931 159.323 158.883 159.323 160.054C159.315 161.225 158.389 162.177 157.258 162.177Z" fill="#007DC1"/>
<g filter="url(#filter2_d_2803_10466)">
<rect x="62.6377" y="193.616" width="50.4324" height="50.4324" rx="3.95548" fill="white"/>
</g>
<g clip-path="url(#clip0_2803_10466)">
<path d="M80.524 218.678C80.524 219.003 80.5589 219.266 80.6199 219.459C80.6895 219.652 80.7766 219.863 80.8986 220.091C80.9421 220.161 80.9595 220.231 80.9595 220.293C80.9595 220.381 80.9073 220.468 80.794 220.556L80.2453 220.925C80.167 220.977 80.0886 221.004 80.0189 221.004C79.9318 221.004 79.8447 220.96 79.7576 220.881C79.6357 220.749 79.5312 220.609 79.4441 220.468C79.357 220.319 79.2699 220.152 79.1741 219.951C78.4947 220.758 77.6412 221.162 76.6135 221.162C75.8819 221.162 75.2983 220.951 74.8716 220.53C74.4448 220.109 74.2271 219.547 74.2271 218.845C74.2271 218.099 74.4883 217.494 75.0196 217.037C75.5509 216.581 76.2564 216.353 77.1535 216.353C77.4496 216.353 77.7544 216.379 78.0767 216.423C78.3989 216.467 78.7299 216.537 79.0783 216.616V215.976C79.0783 215.309 78.9389 214.844 78.6689 214.572C78.3902 214.3 77.9199 214.168 77.2493 214.168C76.9444 214.168 76.6309 214.203 76.3086 214.282C75.9864 214.361 75.6728 214.458 75.368 214.58C75.2286 214.642 75.1241 214.677 75.0632 214.694C75.0022 214.712 74.9587 214.721 74.9238 214.721C74.8019 214.721 74.7409 214.633 74.7409 214.449V214.019C74.7409 213.878 74.7583 213.773 74.8019 213.712C74.8454 213.65 74.9238 213.589 75.0457 213.527C75.3506 213.369 75.7164 213.238 76.1431 213.133C76.5699 213.018 77.0228 212.966 77.5018 212.966C78.5383 212.966 79.296 213.203 79.7837 213.677C80.2628 214.15 80.5066 214.87 80.5066 215.835V218.678H80.524ZM76.988 220.012C77.2754 220.012 77.5715 219.959 77.8851 219.854C78.1986 219.749 78.4773 219.556 78.7125 219.292C78.8518 219.126 78.9563 218.941 79.0086 218.731C79.0608 218.52 79.0957 218.266 79.0957 217.967V217.599C78.8431 217.537 78.5731 217.485 78.2944 217.45C78.0157 217.415 77.7457 217.397 77.4757 217.397C76.8922 217.397 76.4654 217.511 76.178 217.748C75.8906 217.985 75.7512 218.318 75.7512 218.757C75.7512 219.17 75.8557 219.477 76.0735 219.687C76.2825 219.907 76.5873 220.012 76.988 220.012ZM83.9817 220.96C83.825 220.96 83.7205 220.933 83.6508 220.872C83.5811 220.819 83.5201 220.696 83.4679 220.53L81.4211 213.747C81.3689 213.571 81.3427 213.457 81.3427 213.396C81.3427 213.255 81.4124 213.176 81.5518 213.176H82.4053C82.5708 213.176 82.684 213.203 82.745 213.264C82.8147 213.317 82.8669 213.44 82.9192 213.606L84.3824 219.415L85.7411 213.606C85.7846 213.431 85.8369 213.317 85.9065 213.264C85.9762 213.211 86.0982 213.176 86.2549 213.176H86.9517C87.1172 213.176 87.2304 213.203 87.3001 213.264C87.3697 213.317 87.4307 213.44 87.4656 213.606L88.8417 219.486L90.3484 213.606C90.4007 213.431 90.4616 213.317 90.5226 213.264C90.5923 213.211 90.7055 213.176 90.8623 213.176H91.6723C91.8116 213.176 91.89 213.247 91.89 213.396C91.89 213.44 91.8813 213.484 91.8726 213.536C91.8639 213.589 91.8465 213.659 91.8116 213.756L89.7126 220.539C89.6604 220.714 89.5994 220.828 89.5297 220.881C89.46 220.933 89.3468 220.968 89.1987 220.968H88.4497C88.2842 220.968 88.171 220.942 88.1013 220.881C88.0317 220.819 87.9707 220.705 87.9359 220.53L86.5859 214.87L85.2446 220.521C85.2011 220.696 85.1488 220.811 85.0791 220.872C85.0095 220.933 84.8875 220.96 84.7308 220.96H83.9817ZM95.1735 221.197C94.7206 221.197 94.2677 221.144 93.8322 221.039C93.3967 220.933 93.0571 220.819 92.8306 220.688C92.6913 220.609 92.5955 220.521 92.5606 220.442C92.5258 220.363 92.5084 220.275 92.5084 220.196V219.749C92.5084 219.564 92.5781 219.477 92.7087 219.477C92.761 219.477 92.8132 219.486 92.8655 219.503C92.9177 219.521 92.9961 219.556 93.0832 219.591C93.3793 219.722 93.7016 219.828 94.0413 219.898C94.3896 219.968 94.7293 220.003 95.0777 220.003C95.6264 220.003 96.0532 219.907 96.3493 219.714C96.6454 219.521 96.8022 219.24 96.8022 218.88C96.8022 218.634 96.7238 218.433 96.567 218.266C96.4102 218.099 96.1141 217.95 95.6874 217.81L94.4245 217.415C93.7887 217.213 93.3184 216.914 93.0309 216.52C92.7435 216.134 92.5955 215.704 92.5955 215.247C92.5955 214.879 92.6739 214.554 92.8306 214.273C92.9874 213.992 93.1964 213.747 93.4577 213.554C93.719 213.352 94.0151 213.203 94.3635 213.097C94.7119 212.992 95.0777 212.948 95.4609 212.948C95.6525 212.948 95.8528 212.957 96.0444 212.983C96.2448 213.01 96.4277 213.045 96.6106 213.08C96.7848 213.124 96.9502 213.168 97.107 213.22C97.2638 213.273 97.3857 213.326 97.4728 213.378C97.5947 213.448 97.6818 213.519 97.7341 213.598C97.7864 213.668 97.8125 213.764 97.8125 213.887V214.3C97.8125 214.484 97.7428 214.58 97.6122 214.58C97.5425 214.58 97.4293 214.545 97.2812 214.475C96.7848 214.247 96.2274 214.133 95.609 214.133C95.1125 214.133 94.7206 214.212 94.4506 214.379C94.1806 214.545 94.0413 214.8 94.0413 215.16C94.0413 215.405 94.1283 215.616 94.3025 215.783C94.4767 215.949 94.799 216.116 95.2606 216.265L96.4973 216.66C97.1244 216.862 97.5773 217.143 97.8473 217.502C98.1173 217.862 98.248 218.275 98.248 218.731C98.248 219.108 98.1696 219.45 98.0215 219.749C97.8647 220.047 97.6557 220.31 97.3857 220.521C97.1157 220.74 96.7935 220.898 96.419 221.012C96.027 221.135 95.6177 221.197 95.1735 221.197Z" fill="#252F3E"/>
<path fill-rule="evenodd" clip-rule="evenodd" d="M96.8198 225.461C93.9544 227.594 89.7912 228.726 86.2116 228.726C81.1949 228.726 76.6747 226.857 73.2605 223.75C72.9905 223.505 73.2344 223.171 73.5567 223.364C77.2495 225.523 81.8046 226.83 86.5165 226.83C89.6954 226.83 93.188 226.163 96.4018 224.795C96.8808 224.575 97.2902 225.11 96.8198 225.461Z" fill="#FF9900"/>
<path fill-rule="evenodd" clip-rule="evenodd" d="M98.0128 224.092C97.647 223.618 95.5916 223.864 94.6597 223.978C94.381 224.013 94.3374 223.768 94.59 223.583C96.2274 222.425 98.9186 222.759 99.2322 223.145C99.5457 223.539 99.1451 226.251 97.6122 227.55C97.377 227.751 97.1506 227.646 97.2551 227.383C97.6035 226.514 98.3786 224.557 98.0128 224.092Z" fill="#FF9900"/>
</g>
<g filter="url(#filter3_d_2803_10466)">
<rect x="122.616" y="193.616" width="50.4324" height="50.4324" rx="3.95548" fill="white"/>
</g>
<path d="M157.092 217.698H156.28V217.656H147.202V221.691H152.902C152.07 224.039 149.836 225.725 147.202 225.725C143.86 225.725 141.15 223.016 141.15 219.673C141.15 216.331 143.86 213.622 147.202 213.622C148.744 213.622 150.148 214.203 151.217 215.154L154.07 212.301C152.268 210.622 149.858 209.587 147.202 209.587C141.631 209.587 137.115 214.103 137.115 219.673C137.115 225.244 141.631 229.76 147.202 229.76C152.772 229.76 157.288 225.244 157.288 219.673C157.288 218.997 157.219 218.337 157.092 217.698Z" fill="#FFC107"/>
<path d="M138.278 214.979L141.592 217.409C142.489 215.189 144.661 213.622 147.202 213.622C148.745 213.622 150.148 214.203 151.217 215.154L154.07 212.301C152.268 210.622 149.859 209.587 147.202 209.587C143.328 209.587 139.968 211.774 138.278 214.979Z" fill="#FF3D00"/>
<path d="M147.202 229.76C149.807 229.76 152.174 228.763 153.964 227.141L150.842 224.5C149.83 225.267 148.571 225.725 147.202 225.725C144.578 225.725 142.351 224.052 141.511 221.718L138.222 224.252C139.891 227.519 143.282 229.76 147.202 229.76Z" fill="#4CAF50"/>
<path d="M157.092 217.698H156.279V217.656H147.202V221.691H152.902C152.503 222.819 151.777 223.792 150.841 224.5L150.842 224.499L153.964 227.141C153.743 227.342 157.288 224.717 157.288 219.674C157.288 218.997 157.219 218.337 157.092 217.698Z" fill="#1976D2"/>
<rect x="403.903" y="205.053" width="202.85" height="70.401" rx="5.96618" fill="#4B5CFA"/>
<mask id="path-38-inside-1_2803_10466" fill="white">
<path fill-rule="evenodd" clip-rule="evenodd" d="M411.66 73.9903H600.788C604.083 73.9903 606.754 76.6614 606.754 79.9565V190.927C606.754 194.223 604.083 196.894 600.788 196.894H409.87C406.575 196.894 403.904 194.223 403.904 190.927V92.4849L390.778 73.9902L411.66 73.9902L411.66 73.9903Z"/>
</mask>
<path fill-rule="evenodd" clip-rule="evenodd" d="M411.66 73.9903H600.788C604.083 73.9903 606.754 76.6614 606.754 79.9565V190.927C606.754 194.223 604.083 196.894 600.788 196.894H409.87C406.575 196.894 403.904 194.223 403.904 190.927V92.4849L390.778 73.9902L411.66 73.9902L411.66 73.9903Z" fill="white"/>
<path d="M411.66 73.9903L410.733 73.6149L410.176 74.9903H411.66V73.9903ZM403.904 92.4849H404.904V92.1661L404.719 91.9062L403.904 92.4849ZM390.778 73.9902L390.778 72.9902L388.842 72.9902L389.963 74.569L390.778 73.9902ZM411.66 73.9902L412.587 74.3657L413.144 72.9902L411.66 72.9902V73.9902ZM411.66 74.9903H600.788V72.9903H411.66V74.9903ZM600.788 74.9903C603.53 74.9903 605.754 77.2137 605.754 79.9565H607.754C607.754 76.1092 604.635 72.9903 600.788 72.9903V74.9903ZM605.754 79.9565V190.927H607.754V79.9565H605.754ZM605.754 190.927C605.754 193.67 603.53 195.894 600.788 195.894V197.894C604.635 197.894 607.754 194.775 607.754 190.927H605.754ZM600.788 195.894H409.87V197.894H600.788V195.894ZM409.87 195.894C407.127 195.894 404.904 193.67 404.904 190.927H402.904C402.904 194.775 406.022 197.894 409.87 197.894V195.894ZM404.904 190.927V92.4849H402.904V190.927H404.904ZM404.719 91.9062L391.594 73.4115L389.963 74.569L403.088 93.0637L404.719 91.9062ZM390.778 74.9902L411.66 74.9902V72.9902L390.778 72.9902L390.778 74.9902ZM410.733 73.6148L410.733 73.6149L412.587 74.3657L412.587 74.3657L410.733 73.6148Z" fill="#19D4EE" mask="url(#path-38-inside-1_2803_10466)"/>
<path d="M419.659 97.7295L416.359 87.7063H417.826L420.053 94.9874C420.091 95.1068 420.127 95.2452 420.16 95.4027C420.198 95.5554 420.227 95.6938 420.246 95.8179C420.27 95.6938 420.299 95.5554 420.332 95.4027C420.365 95.2499 420.399 95.1139 420.432 94.9946L422.673 87.7063H424.134L420.833 97.7295H419.659ZM428.554 97.5863V90.4126H429.879V97.5863H428.554ZM426.535 97.7295V96.5553H431.898V97.7295H426.535ZM426.535 91.5867V90.4126H429.342V91.5867H426.535ZM429.213 89.1525C428.984 89.1525 428.79 89.0738 428.633 88.9162C428.475 88.754 428.397 88.5583 428.397 88.3292C428.397 88.0953 428.475 87.8996 428.633 87.7421C428.79 87.5798 428.984 87.4987 429.213 87.4987C429.451 87.4987 429.647 87.5798 429.8 87.7421C429.957 87.8996 430.036 88.0953 430.036 88.3292C430.036 88.5583 429.957 88.754 429.8 88.9162C429.647 89.0738 429.451 89.1525 429.213 89.1525ZM434.213 97.7295V96.5553H435.745V91.5867H434.213V90.4126H437.005V92.0449L436.919 91.8373C437.053 91.5175 437.263 91.2383 437.549 90.9996C437.84 90.7562 438.177 90.5701 438.559 90.4412C438.941 90.3076 439.334 90.2407 439.74 90.2407C440.112 90.2407 440.432 90.2765 440.699 90.3481C440.972 90.415 441.189 90.4985 441.351 90.5987V93.1761H440.041V90.9925L440.513 91.601C440.384 91.5676 440.256 91.5461 440.127 91.5366C439.998 91.5223 439.869 91.5151 439.74 91.5151C439.22 91.5151 438.759 91.5986 438.358 91.7657C437.962 91.928 437.652 92.1666 437.428 92.4816C437.203 92.7967 437.091 93.1785 437.091 93.6271V96.5553H439.21V97.7295H434.213ZM447.382 97.9013C446.69 97.9013 446.194 97.7343 445.893 97.4002C445.592 97.0613 445.442 96.6055 445.442 96.0327V91.5867H443.81V90.4126H445.442V88.0356L446.767 87.3913V90.4126H449.237V91.5867H446.767V95.6604C446.767 95.8657 446.795 96.047 446.852 96.2045C446.91 96.362 447.015 96.4838 447.167 96.5697C447.32 96.6556 447.537 96.6985 447.819 96.6985C448.134 96.6985 448.392 96.658 448.592 96.5768C448.797 96.4957 448.981 96.4074 449.143 96.3119L448.986 97.572C448.79 97.6722 448.568 97.751 448.32 97.8082C448.077 97.8703 447.764 97.9013 447.382 97.9013ZM455.261 97.9013C454.688 97.9013 454.196 97.7939 453.786 97.5791C453.375 97.3596 453.06 97.0112 452.841 96.5339C452.621 96.0518 452.511 95.4146 452.511 94.6223V90.4126H453.85V94.6438C453.85 95.3788 454.005 95.8967 454.316 96.1974C454.631 96.4981 455.017 96.6484 455.475 96.6484C455.795 96.6484 456.086 96.5888 456.349 96.4694C456.616 96.3501 456.829 96.1473 456.986 95.8609C457.144 95.5697 457.222 95.1736 457.222 94.6724V90.4126H458.561V97.7295H457.222V97.0136C456.993 97.3095 456.714 97.5314 456.385 97.6794C456.055 97.8273 455.681 97.9013 455.261 97.9013ZM463.855 97.9013C463.344 97.9013 462.891 97.8106 462.495 97.6293C462.099 97.4431 461.786 97.1687 461.557 96.8059C461.328 96.4432 461.213 95.9898 461.213 95.4456C461.213 94.8824 461.349 94.4242 461.621 94.071C461.898 93.7131 462.251 93.4505 462.681 93.2835C463.115 93.1117 463.571 93.0258 464.048 93.0258C464.411 93.0258 464.747 93.0616 465.058 93.1331C465.373 93.2 465.683 93.3145 465.988 93.4768V92.9542C465.988 92.5437 465.922 92.2263 465.788 92.002C465.654 91.7776 465.471 91.6225 465.237 91.5366C465.008 91.4459 464.75 91.4006 464.464 91.4006C464.067 91.4006 463.662 91.4769 463.246 91.6297C462.831 91.7776 462.464 91.9566 462.144 92.1666L461.75 91.0641C462.084 90.8588 462.499 90.6703 462.996 90.4985C463.497 90.3267 464.027 90.2407 464.585 90.2407C464.881 90.2407 465.184 90.2741 465.494 90.341C465.805 90.4078 466.093 90.5343 466.361 90.7204C466.628 90.9066 466.843 91.1738 467.005 91.5223C467.172 91.8707 467.256 92.3241 467.256 92.8826V97.7295H465.988V97.0851C465.745 97.3095 465.447 97.5028 465.094 97.6651C464.74 97.8226 464.327 97.9013 463.855 97.9013ZM464.055 96.7415C464.499 96.7415 464.881 96.6436 465.201 96.448C465.525 96.2523 465.788 96.0399 465.988 95.8108V94.6295C465.774 94.5006 465.509 94.3908 465.194 94.3001C464.879 94.2094 464.557 94.1641 464.227 94.1641C463.759 94.1641 463.349 94.2667 462.996 94.472C462.647 94.6772 462.473 95.0018 462.473 95.4456C462.473 95.8275 462.612 96.1401 462.888 96.3835C463.165 96.6222 463.554 96.7415 464.055 96.7415ZM472.521 97.7295V87.6347L473.845 87.3913V97.7295H472.521ZM470.445 97.7295V96.5553H475.922V97.7295H470.445ZM470.774 88.5654L470.173 87.3913H473.845L473.58 88.5654H470.774ZM491.041 97.9013C490.397 97.9013 489.841 97.7581 489.373 97.4718C488.905 97.1806 488.521 96.7892 488.22 96.2976C487.924 95.8012 487.705 95.2452 487.562 94.6295C487.419 94.009 487.347 93.3718 487.347 92.7179C487.347 92.064 487.421 91.4292 487.569 90.8135C487.717 90.193 487.944 89.637 488.249 89.1453C488.554 88.649 488.939 88.2576 489.402 87.9712C489.865 87.6801 490.411 87.5345 491.041 87.5345C491.585 87.5345 492.039 87.6228 492.401 87.7994C492.764 87.9712 493.063 88.1955 493.296 88.4724C493.535 88.7492 493.738 89.0427 493.905 89.353L492.709 90.0403C492.533 89.7062 492.316 89.415 492.058 89.1668C491.805 88.9186 491.466 88.7945 491.041 88.7945C490.621 88.7945 490.266 88.9139 489.974 89.1525C489.683 89.3864 489.447 89.6966 489.266 90.0832C489.089 90.4698 488.96 90.8946 488.879 91.3576C488.798 91.8158 488.757 92.2692 488.757 92.7179C488.757 93.2191 488.803 93.7035 488.893 94.1713C488.984 94.639 489.12 95.059 489.301 95.4313C489.488 95.8036 489.724 96.0995 490.01 96.3191C490.301 96.5339 490.645 96.6413 491.041 96.6413C491.609 96.6413 492.046 96.4408 492.351 96.0399C492.657 95.6342 492.81 95.1091 492.81 94.4648V94.0567H491.013V92.811H494.213V94.0567C494.213 94.8872 494.072 95.5888 493.79 96.1616C493.514 96.7343 493.134 97.1687 492.652 97.4646C492.175 97.7557 491.638 97.9013 491.041 97.9013ZM499.378 97.9013C498.805 97.9013 498.313 97.7939 497.903 97.5791C497.492 97.3596 497.177 97.0112 496.958 96.5339C496.738 96.0518 496.629 95.4146 496.629 94.6223V90.4126H497.967V94.6438C497.967 95.3788 498.122 95.8967 498.433 96.1974C498.748 96.4981 499.134 96.6484 499.593 96.6484C499.912 96.6484 500.203 96.5888 500.466 96.4694C500.733 96.3501 500.946 96.1473 501.103 95.8609C501.261 95.5697 501.339 95.1736 501.339 94.6724V90.4126H502.678V97.7295H501.339V97.0136C501.11 97.3095 500.831 97.5314 500.502 97.6794C500.172 97.8273 499.798 97.9013 499.378 97.9013ZM507.972 97.9013C507.461 97.9013 507.008 97.8106 506.612 97.6293C506.216 97.4431 505.903 97.1687 505.674 96.8059C505.445 96.4432 505.33 95.9898 505.33 95.4456C505.33 94.8824 505.466 94.4242 505.738 94.071C506.015 93.7131 506.368 93.4505 506.798 93.2835C507.232 93.1117 507.688 93.0258 508.165 93.0258C508.528 93.0258 508.865 93.0616 509.175 93.1331C509.49 93.2 509.8 93.3145 510.106 93.4768V92.9542C510.106 92.5437 510.039 92.2263 509.905 92.002C509.771 91.7776 509.588 91.6225 509.354 91.5366C509.125 91.4459 508.867 91.4006 508.581 91.4006C508.184 91.4006 507.779 91.4769 507.364 91.6297C506.948 91.7776 506.581 91.9566 506.261 92.1666L505.867 91.0641C506.201 90.8588 506.617 90.6703 507.113 90.4985C507.614 90.3267 508.144 90.2407 508.702 90.2407C508.998 90.2407 509.301 90.2741 509.612 90.341C509.922 90.4078 510.211 90.5343 510.478 90.7204C510.745 90.9066 510.96 91.1738 511.122 91.5223C511.289 91.8707 511.373 92.3241 511.373 92.8826V97.7295H510.106V97.0851C509.862 97.3095 509.564 97.5028 509.211 97.6651C508.857 97.8226 508.445 97.9013 507.972 97.9013ZM508.173 96.7415C508.616 96.7415 508.998 96.6436 509.318 96.448C509.643 96.2523 509.905 96.0399 510.106 95.8108V94.6295C509.891 94.5006 509.626 94.3908 509.311 94.3001C508.996 94.2094 508.674 94.1641 508.344 94.1641C507.877 94.1641 507.466 94.2667 507.113 94.472C506.765 94.6772 506.59 95.0018 506.59 95.4456C506.59 95.8275 506.729 96.1401 507.006 96.3835C507.282 96.6222 507.671 96.7415 508.173 96.7415ZM513.624 97.7295V96.5553H515.156V91.5867H513.624V90.4126H516.416V92.0449L516.33 91.8373C516.464 91.5175 516.674 91.2383 516.96 90.9996C517.251 90.7562 517.588 90.5701 517.97 90.4412C518.351 90.3076 518.745 90.2407 519.151 90.2407C519.523 90.2407 519.843 90.2765 520.11 90.3481C520.382 90.415 520.6 90.4985 520.762 90.5987V93.1761H519.452V90.9925L519.924 91.601C519.795 91.5676 519.666 91.5461 519.538 91.5366C519.409 91.5223 519.28 91.5151 519.151 91.5151C518.631 91.5151 518.17 91.5986 517.769 91.7657C517.373 91.928 517.063 92.1666 516.838 92.4816C516.614 92.7967 516.502 93.1785 516.502 93.6271V96.5553H518.621V97.7295H513.624ZM525.891 97.9013C525.237 97.9013 524.672 97.7486 524.194 97.4431C523.722 97.1329 523.357 96.6914 523.099 96.1186C522.846 95.5411 522.719 94.8562 522.719 94.0639C522.719 93.2668 522.851 92.5843 523.113 92.0163C523.376 91.4435 523.743 91.0044 524.216 90.6989C524.688 90.3935 525.239 90.2407 525.87 90.2407C526.328 90.2407 526.714 90.3099 527.029 90.4484C527.349 90.582 527.607 90.7443 527.803 90.9352V88.0213L529.127 87.3913V97.7295H527.803V97.1353C527.626 97.331 527.38 97.5076 527.065 97.6651C526.75 97.8226 526.359 97.9013 525.891 97.9013ZM526.063 96.6627C526.464 96.6627 526.81 96.5816 527.101 96.4193C527.392 96.257 527.626 96.0279 527.803 95.732V92.3599C527.674 92.1595 527.468 91.9614 527.187 91.7657C526.905 91.57 526.526 91.4722 526.049 91.4722C525.414 91.4722 524.924 91.6965 524.581 92.1451C524.242 92.589 524.073 93.2286 524.073 94.0639C524.073 94.5603 524.151 95.0041 524.309 95.3955C524.471 95.7869 524.7 96.0971 524.996 96.3262C525.292 96.5506 525.648 96.6627 526.063 96.6627ZM531.271 97.7295V96.5553H532.803V91.5867H531.271V90.4126H534.063V92.0449L533.977 91.8373C534.111 91.5175 534.321 91.2383 534.607 90.9996C534.898 90.7562 535.235 90.5701 535.617 90.4412C535.998 90.3076 536.392 90.2407 536.798 90.2407C537.17 90.2407 537.49 90.2765 537.757 90.3481C538.029 90.415 538.246 90.4985 538.409 90.5987V93.1761H537.099V90.9925L537.571 91.601C537.442 91.5676 537.313 91.5461 537.184 91.5366C537.056 91.5223 536.927 91.5151 536.798 91.5151C536.278 91.5151 535.817 91.5986 535.416 91.7657C535.02 91.928 534.71 92.1666 534.485 92.4816C534.261 92.7967 534.149 93.1785 534.149 93.6271V96.5553H536.268V97.7295H531.271ZM543.266 97.9013C542.755 97.9013 542.302 97.8106 541.906 97.6293C541.509 97.4431 541.197 97.1687 540.968 96.8059C540.739 96.4432 540.624 95.9898 540.624 95.4456C540.624 94.8824 540.76 94.4242 541.032 94.071C541.309 93.7131 541.662 93.4505 542.092 93.2835C542.526 93.1117 542.982 93.0258 543.459 93.0258C543.822 93.0258 544.158 93.0616 544.469 93.1331C544.784 93.2 545.094 93.3145 545.399 93.4768V92.9542C545.399 92.5437 545.332 92.2263 545.199 92.002C545.065 91.7776 544.881 91.6225 544.648 91.5366C544.418 91.4459 544.161 91.4006 543.874 91.4006C543.478 91.4006 543.072 91.4769 542.657 91.6297C542.242 91.7776 541.874 91.9566 541.555 92.1666L541.161 91.0641C541.495 90.8588 541.91 90.6703 542.407 90.4985C542.908 90.3267 543.438 90.2407 543.996 90.2407C544.292 90.2407 544.595 90.2741 544.905 90.341C545.216 90.4078 545.504 90.5343 545.772 90.7204C546.039 90.9066 546.254 91.1738 546.416 91.5223C546.583 91.8707 546.667 92.3241 546.667 92.8826V97.7295H545.399V97.0851C545.156 97.3095 544.858 97.5028 544.504 97.6651C544.151 97.8226 543.738 97.9013 543.266 97.9013ZM543.466 96.7415C543.91 96.7415 544.292 96.6436 544.612 96.448C544.936 96.2523 545.199 96.0399 545.399 95.8108V94.6295C545.185 94.5006 544.92 94.3908 544.605 94.3001C544.29 94.2094 543.967 94.1641 543.638 94.1641C543.17 94.1641 542.76 94.2667 542.407 94.472C542.058 94.6772 541.884 95.0018 541.884 95.4456C541.884 95.8275 542.022 96.1401 542.299 96.3835C542.576 96.6222 542.965 96.7415 543.466 96.7415ZM552.082 97.5863V90.4126H553.407V97.5863H552.082ZM550.063 97.7295V96.5553H555.426V97.7295H550.063ZM550.063 91.5867V90.4126H552.87V91.5867H550.063ZM552.741 89.1525C552.512 89.1525 552.318 89.0738 552.161 88.9162C552.003 88.754 551.925 88.5583 551.925 88.3292C551.925 88.0953 552.003 87.8996 552.161 87.7421C552.318 87.5798 552.512 87.4987 552.741 87.4987C552.979 87.4987 553.175 87.5798 553.328 87.7421C553.485 87.8996 553.564 88.0953 553.564 88.3292C553.564 88.5583 553.485 88.754 553.328 88.9162C553.175 89.0738 552.979 89.1525 552.741 89.1525ZM560.755 97.7295V87.6347L562.08 87.3913V97.7295H560.755ZM558.679 97.7295V96.5553H564.156V97.7295H558.679ZM559.008 88.5654L558.407 87.3913H562.08L561.815 88.5654H559.008ZM570.23 97.9013C569.662 97.9013 569.132 97.7796 568.641 97.5362C568.154 97.2928 567.753 96.9849 567.438 96.6126L568.333 95.8108C568.548 96.0399 568.824 96.2523 569.163 96.448C569.507 96.6436 569.891 96.7415 570.316 96.7415C570.693 96.7415 571.008 96.6699 571.261 96.5267C571.519 96.3787 571.648 96.1544 571.648 95.8537C571.648 95.6246 571.566 95.4313 571.404 95.2738C571.247 95.1163 571.03 94.9755 570.753 94.8514C570.481 94.7273 570.173 94.6008 569.829 94.472C569.4 94.3049 569.011 94.1259 568.662 93.935C568.314 93.7441 568.037 93.5078 567.832 93.2262C567.626 92.9446 567.524 92.5938 567.524 92.1738C567.524 91.7729 567.638 91.4292 567.867 91.1428C568.101 90.8517 568.416 90.6297 568.813 90.477C569.213 90.3195 569.662 90.2407 570.158 90.2407C570.731 90.2407 571.235 90.3457 571.669 90.5558C572.103 90.7658 572.466 91.0402 572.757 91.3791L571.87 92.1165C571.683 91.9399 571.442 91.7776 571.146 91.6297C570.855 91.4769 570.5 91.4006 570.08 91.4006C569.698 91.4006 569.388 91.4674 569.149 91.601C568.915 91.7347 568.798 91.928 568.798 92.1809C568.798 92.3766 568.875 92.5437 569.027 92.6821C569.185 92.8205 569.39 92.947 569.643 93.0616C569.896 93.1713 570.17 93.2811 570.466 93.3909C570.867 93.5388 571.254 93.7059 571.626 93.892C572.003 94.0782 572.313 94.324 572.557 94.6295C572.8 94.9302 572.922 95.3263 572.922 95.8179C572.922 96.4623 572.679 96.9706 572.192 97.3429C571.705 97.7152 571.051 97.9013 570.23 97.9013ZM420.554 114.894C419.862 114.894 419.272 114.749 418.786 114.457C418.304 114.162 417.912 113.765 417.611 113.269C417.311 112.773 417.089 112.217 416.946 111.601C416.807 110.985 416.738 110.357 416.738 109.718C416.738 109.074 416.81 108.444 416.953 107.828C417.101 107.212 417.327 106.658 417.633 106.167C417.938 105.67 418.332 105.277 418.814 104.986C419.301 104.69 419.881 104.542 420.554 104.542C421.089 104.542 421.54 104.632 421.907 104.814C422.279 104.99 422.585 105.222 422.824 105.508C423.062 105.79 423.251 106.086 423.389 106.396L422.186 107.019C422.005 106.67 421.79 106.382 421.542 106.153C421.299 105.919 420.969 105.802 420.554 105.802C420.11 105.802 419.733 105.919 419.423 106.153C419.117 106.386 418.869 106.697 418.678 107.083C418.492 107.47 418.356 107.895 418.27 108.358C418.184 108.816 418.141 109.269 418.141 109.718C418.141 110.205 418.189 110.682 418.284 111.15C418.38 111.613 418.523 112.033 418.714 112.41C418.91 112.782 419.16 113.08 419.466 113.305C419.771 113.524 420.134 113.634 420.554 113.634C420.984 113.634 421.332 113.515 421.599 113.276C421.867 113.037 422.088 112.73 422.265 112.353L423.482 112.818C423.329 113.19 423.122 113.534 422.859 113.849C422.602 114.164 422.282 114.417 421.9 114.608C421.518 114.799 421.069 114.894 420.554 114.894ZM426.048 114.729V105.007L427.373 104.391V108.179C427.836 107.553 428.511 107.241 429.399 107.241C429.953 107.241 430.432 107.348 430.838 107.563C431.244 107.773 431.556 108.117 431.776 108.594C431.995 109.066 432.105 109.692 432.105 110.47V114.729H430.781V110.434C430.781 109.708 430.618 109.2 430.294 108.909C429.974 108.618 429.585 108.472 429.127 108.472C428.802 108.472 428.506 108.532 428.239 108.651C427.977 108.766 427.767 108.964 427.609 109.245C427.452 109.527 427.373 109.914 427.373 110.405V114.729H426.048ZM438.043 114.901C437.337 114.901 436.731 114.734 436.225 114.4C435.719 114.061 435.33 113.603 435.058 113.026C434.791 112.448 434.657 111.794 434.657 111.064C434.657 110.262 434.795 109.577 435.072 109.009C435.354 108.436 435.748 108 436.253 107.699C436.764 107.393 437.361 107.241 438.043 107.241C438.607 107.241 439.122 107.365 439.59 107.613C440.058 107.861 440.43 108.243 440.707 108.759C440.988 109.274 441.129 109.935 441.129 110.742C441.129 110.842 441.127 110.966 441.122 111.114C441.122 111.262 441.11 111.422 441.086 111.594H435.688V110.441H439.812C439.797 109.926 439.697 109.52 439.511 109.224C439.33 108.928 439.105 108.72 438.838 108.601C438.571 108.477 438.306 108.415 438.043 108.415C437.327 108.415 436.802 108.642 436.468 109.095C436.134 109.548 435.967 110.159 435.967 110.928C435.967 111.777 436.153 112.453 436.526 112.954C436.898 113.455 437.413 113.706 438.072 113.706C438.377 113.706 438.669 113.656 438.945 113.555C439.227 113.45 439.497 113.286 439.754 113.061L440.521 113.92C440.22 114.202 439.857 114.436 439.432 114.622C439.012 114.808 438.549 114.901 438.043 114.901ZM446.874 114.901C445.905 114.901 445.134 114.567 444.561 113.899C443.993 113.226 443.709 112.286 443.709 111.078C443.709 110.276 443.841 109.589 444.103 109.016C444.366 108.444 444.738 108.004 445.22 107.699C445.707 107.393 446.282 107.241 446.946 107.241C447.609 107.241 448.175 107.386 448.642 107.677C449.11 107.969 449.451 108.41 449.666 109.002L448.428 109.446C448.318 109.164 448.141 108.933 447.898 108.751C447.659 108.565 447.337 108.472 446.931 108.472C446.296 108.472 445.826 108.708 445.521 109.181C445.22 109.649 445.07 110.281 445.07 111.078C445.07 111.885 445.222 112.517 445.528 112.975C445.838 113.434 446.296 113.663 446.903 113.663C447.308 113.663 447.647 113.567 447.919 113.376C448.191 113.181 448.387 112.911 448.506 112.567L449.738 112.983C449.542 113.594 449.198 114.066 448.707 114.4C448.215 114.734 447.604 114.901 446.874 114.901ZM452.547 114.729V105.021L453.872 104.391V114.729H452.547ZM453.743 111.765V110.269L456.514 107.413H458.074L453.743 111.765ZM457.344 114.729L455.024 110.19L455.977 109.238L458.797 114.729H457.344ZM470.08 114.729V104.706H476.48V105.995H471.433V108.909H475.005V110.19H471.433V114.729H470.08ZM481.502 114.901C480.991 114.901 480.538 114.811 480.142 114.629C479.745 114.443 479.433 114.169 479.204 113.806C478.975 113.443 478.86 112.99 478.86 112.446C478.86 111.882 478.996 111.424 479.268 111.071C479.545 110.713 479.898 110.451 480.328 110.283C480.762 110.112 481.218 110.026 481.695 110.026C482.058 110.026 482.394 110.062 482.705 110.133C483.02 110.2 483.33 110.315 483.635 110.477V109.954C483.635 109.544 483.568 109.226 483.435 109.002C483.301 108.778 483.117 108.623 482.884 108.537C482.654 108.446 482.397 108.401 482.11 108.401C481.714 108.401 481.309 108.477 480.893 108.63C480.478 108.778 480.11 108.957 479.791 109.167L479.397 108.064C479.731 107.859 480.146 107.67 480.643 107.498C481.144 107.327 481.674 107.241 482.232 107.241C482.528 107.241 482.831 107.274 483.141 107.341C483.452 107.408 483.74 107.534 484.008 107.72C484.275 107.907 484.49 108.174 484.652 108.522C484.819 108.871 484.903 109.324 484.903 109.883V114.729H483.635V114.085C483.392 114.309 483.094 114.503 482.74 114.665C482.387 114.823 481.974 114.901 481.502 114.901ZM481.702 113.741C482.146 113.741 482.528 113.644 482.848 113.448C483.172 113.252 483.435 113.04 483.635 112.811V111.629C483.421 111.501 483.156 111.391 482.841 111.3C482.526 111.209 482.203 111.164 481.874 111.164C481.406 111.164 480.996 111.267 480.643 111.472C480.294 111.677 480.12 112.002 480.12 112.446C480.12 112.827 480.258 113.14 480.535 113.384C480.812 113.622 481.201 113.741 481.702 113.741ZM490.318 114.586V107.413H491.643V114.586H490.318ZM488.299 114.729V113.555H493.662V114.729H488.299ZM488.299 108.587V107.413H491.106V108.587H488.299ZM490.977 106.153C490.748 106.153 490.554 106.074 490.397 105.916C490.239 105.754 490.161 105.558 490.161 105.329C490.161 105.095 490.239 104.9 490.397 104.742C490.554 104.58 490.748 104.499 490.977 104.499C491.215 104.499 491.411 104.58 491.564 104.742C491.721 104.9 491.8 105.095 491.8 105.329C491.8 105.558 491.721 105.754 491.564 105.916C491.411 106.074 491.215 106.153 490.977 106.153ZM498.991 114.729V104.635L500.316 104.391V114.729H498.991ZM496.915 114.729V113.555H502.392V114.729H496.915ZM497.244 105.565L496.643 104.391H500.316L500.051 105.565H497.244ZM508.631 114.901C507.924 114.901 507.318 114.734 506.812 114.4C506.306 114.061 505.917 113.603 505.645 113.026C505.378 112.448 505.244 111.794 505.244 111.064C505.244 110.262 505.383 109.577 505.66 109.009C505.941 108.436 506.335 108 506.841 107.699C507.352 107.393 507.948 107.241 508.631 107.241C509.194 107.241 509.709 107.365 510.177 107.613C510.645 107.861 511.017 108.243 511.294 108.759C511.576 109.274 511.716 109.935 511.716 110.742C511.716 110.842 511.714 110.966 511.709 111.114C511.709 111.262 511.697 111.422 511.674 111.594H506.275V110.441H510.399C510.385 109.926 510.285 109.52 510.098 109.224C509.917 108.928 509.693 108.72 509.425 108.601C509.158 108.477 508.893 108.415 508.631 108.415C507.915 108.415 507.39 108.642 507.056 109.095C506.722 109.548 506.555 110.159 506.555 110.928C506.555 111.777 506.741 112.453 507.113 112.954C507.485 113.455 508.001 113.706 508.659 113.706C508.965 113.706 509.256 113.656 509.533 113.555C509.814 113.45 510.084 113.286 510.342 113.061L511.108 113.92C510.807 114.202 510.444 114.436 510.02 114.622C509.6 114.808 509.137 114.901 508.631 114.901ZM517.068 114.901C516.414 114.901 515.848 114.749 515.371 114.443C514.898 114.133 514.533 113.691 514.275 113.119C514.022 112.541 513.896 111.856 513.896 111.064C513.896 110.267 514.027 109.584 514.29 109.016C514.552 108.444 514.92 108.004 515.392 107.699C515.865 107.393 516.416 107.241 517.046 107.241C517.504 107.241 517.891 107.31 518.206 107.448C518.526 107.582 518.783 107.744 518.979 107.935V105.021L520.304 104.391V114.729H518.979V114.135C518.803 114.331 518.557 114.508 518.242 114.665C517.927 114.823 517.535 114.901 517.068 114.901ZM517.239 113.663C517.64 113.663 517.986 113.582 518.278 113.419C518.569 113.257 518.803 113.028 518.979 112.732V109.36C518.85 109.159 518.645 108.961 518.363 108.766C518.082 108.57 517.702 108.472 517.225 108.472C516.59 108.472 516.101 108.696 515.757 109.145C515.419 109.589 515.249 110.229 515.249 111.064C515.249 111.56 515.328 112.004 515.485 112.396C515.648 112.787 515.877 113.097 516.173 113.326C516.469 113.551 516.824 113.663 517.239 113.663Z" fill="#222945" fill-opacity="0.8"/>
<path d="M473.67 237.117C472.978 237.117 472.388 236.971 471.901 236.68C471.419 236.384 471.028 235.988 470.727 235.492C470.427 234.995 470.205 234.439 470.061 233.823C469.923 233.208 469.854 232.58 469.854 231.941C469.854 231.296 469.925 230.666 470.069 230.05C470.216 229.435 470.443 228.881 470.749 228.389C471.054 227.893 471.448 227.499 471.93 227.208C472.417 226.912 472.997 226.764 473.67 226.764C474.204 226.764 474.655 226.855 475.023 227.036C475.395 227.213 475.701 227.444 475.939 227.731C476.178 228.012 476.366 228.308 476.505 228.619L475.302 229.241C475.121 228.893 474.906 228.604 474.658 228.375C474.414 228.141 474.085 228.024 473.67 228.024C473.226 228.024 472.849 228.141 472.539 228.375C472.233 228.609 471.985 228.919 471.794 229.306C471.608 229.692 471.472 230.117 471.386 230.58C471.3 231.038 471.257 231.492 471.257 231.941C471.257 232.427 471.305 232.905 471.4 233.372C471.496 233.835 471.639 234.255 471.83 234.632C472.025 235.005 472.276 235.303 472.581 235.527C472.887 235.747 473.25 235.857 473.67 235.857C474.099 235.857 474.448 235.737 474.715 235.499C474.982 235.26 475.204 234.952 475.381 234.575L476.598 235.041C476.445 235.413 476.238 235.757 475.975 236.072C475.717 236.387 475.398 236.64 475.016 236.83C474.634 237.021 474.185 237.117 473.67 237.117ZM479.164 236.952V227.23L480.489 226.614V230.401C480.951 229.776 481.627 229.463 482.515 229.463C483.068 229.463 483.548 229.571 483.954 229.786C484.359 229.996 484.672 230.339 484.892 230.817C485.111 231.289 485.221 231.914 485.221 232.692V236.952H483.896V232.656C483.896 231.931 483.734 231.423 483.41 231.132C483.09 230.84 482.701 230.695 482.243 230.695C481.918 230.695 481.622 230.754 481.355 230.874C481.092 230.988 480.882 231.186 480.725 231.468C480.567 231.75 480.489 232.136 480.489 232.628V236.952H479.164ZM490.5 237.124C489.99 237.124 489.536 237.033 489.14 236.852C488.744 236.666 488.431 236.391 488.202 236.029C487.973 235.666 487.859 235.212 487.859 234.668C487.859 234.105 487.995 233.647 488.267 233.294C488.543 232.936 488.897 232.673 489.326 232.506C489.761 232.334 490.216 232.248 490.694 232.248C491.056 232.248 491.393 232.284 491.703 232.356C492.018 232.423 492.328 232.537 492.634 232.699V232.177C492.634 231.766 492.567 231.449 492.433 231.225C492.3 231 492.116 230.845 491.882 230.759C491.653 230.669 491.395 230.623 491.109 230.623C490.713 230.623 490.307 230.7 489.892 230.852C489.477 231 489.109 231.179 488.789 231.389L488.396 230.287C488.73 230.081 489.145 229.893 489.641 229.721C490.142 229.549 490.672 229.463 491.231 229.463C491.527 229.463 491.83 229.497 492.14 229.564C492.45 229.63 492.739 229.757 493.006 229.943C493.273 230.129 493.488 230.397 493.651 230.745C493.818 231.093 493.901 231.547 493.901 232.105V236.952H492.634V236.308C492.39 236.532 492.092 236.725 491.739 236.888C491.386 237.045 490.973 237.124 490.5 237.124ZM490.701 235.964C491.145 235.964 491.527 235.866 491.846 235.671C492.171 235.475 492.433 235.263 492.634 235.033V233.852C492.419 233.723 492.154 233.613 491.839 233.523C491.524 233.432 491.202 233.387 490.873 233.387C490.405 233.387 489.994 233.489 489.641 233.695C489.293 233.9 489.119 234.224 489.119 234.668C489.119 235.05 489.257 235.363 489.534 235.606C489.811 235.845 490.2 235.964 490.701 235.964ZM496.811 236.952V229.635H498.135V231.124L497.942 230.795C498.018 230.547 498.159 230.323 498.364 230.122C498.574 229.922 498.832 229.762 499.138 229.642C499.448 229.523 499.789 229.463 500.161 229.463C500.715 229.463 501.195 229.571 501.601 229.786C502.006 229.996 502.319 230.339 502.538 230.817C502.758 231.289 502.868 231.914 502.868 232.692V236.952H501.543V232.656C501.543 231.931 501.383 231.423 501.064 231.132C500.744 230.84 500.352 230.695 499.889 230.695C499.56 230.695 499.262 230.754 498.994 230.874C498.732 230.988 498.522 231.186 498.364 231.468C498.212 231.75 498.135 232.136 498.135 232.628V236.952H496.811ZM508.147 239.93L507.474 238.864C508.219 238.816 508.792 238.713 509.193 238.556C509.598 238.403 509.877 238.2 510.03 237.947C510.188 237.694 510.266 237.398 510.266 237.06V236.286C510.056 236.558 509.799 236.766 509.493 236.909C509.193 237.052 508.815 237.124 508.362 237.124C507.804 237.124 507.293 236.981 506.83 236.694C506.367 236.408 505.995 235.981 505.713 235.413C505.436 234.845 505.298 234.136 505.298 233.287C505.298 232.489 505.429 231.807 505.692 231.239C505.959 230.666 506.326 230.227 506.794 229.922C507.262 229.616 507.799 229.463 508.405 229.463C508.739 229.463 509.028 229.504 509.271 229.585C509.515 229.661 509.718 229.759 509.88 229.879C510.042 229.993 510.171 230.103 510.266 230.208V229.635H511.591V236.508C511.591 237.119 511.512 237.635 511.355 238.055C511.202 238.479 510.975 238.823 510.675 239.086C510.379 239.353 510.018 239.551 509.593 239.68C509.169 239.814 508.687 239.897 508.147 239.93ZM508.62 235.885C508.954 235.885 509.267 235.799 509.558 235.628C509.854 235.456 510.09 235.215 510.266 234.905V231.618C510.099 231.337 509.866 231.112 509.565 230.945C509.264 230.778 508.949 230.695 508.62 230.695C507.971 230.695 507.479 230.919 507.145 231.368C506.811 231.812 506.644 232.451 506.644 233.287C506.644 234.098 506.825 234.735 507.188 235.198C507.551 235.656 508.028 235.885 508.62 235.885ZM517.629 237.124C516.923 237.124 516.317 236.957 515.811 236.623C515.305 236.284 514.916 235.826 514.644 235.248C514.377 234.671 514.243 234.017 514.243 233.287C514.243 232.485 514.381 231.8 514.658 231.232C514.94 230.659 515.334 230.222 515.839 229.922C516.35 229.616 516.947 229.463 517.629 229.463C518.193 229.463 518.708 229.587 519.176 229.836C519.644 230.084 520.016 230.466 520.293 230.981C520.574 231.497 520.715 232.158 520.715 232.964C520.715 233.065 520.713 233.189 520.708 233.337C520.708 233.485 520.696 233.644 520.672 233.816H515.274V232.664H519.398C519.383 232.148 519.283 231.742 519.097 231.447C518.916 231.151 518.691 230.943 518.424 230.824C518.157 230.7 517.892 230.638 517.629 230.638C516.913 230.638 516.388 230.864 516.054 231.318C515.72 231.771 515.553 232.382 515.553 233.15C515.553 234 515.739 234.675 516.112 235.177C516.484 235.678 516.999 235.928 517.658 235.928C517.963 235.928 518.255 235.878 518.531 235.778C518.813 235.673 519.083 235.508 519.34 235.284L520.107 236.143C519.806 236.425 519.443 236.659 519.018 236.845C518.598 237.031 518.135 237.124 517.629 237.124ZM526.288 237.124C525.72 237.124 525.19 237.002 524.699 236.759C524.212 236.515 523.811 236.208 523.496 235.835L524.391 235.033C524.606 235.263 524.882 235.475 525.221 235.671C525.565 235.866 525.949 235.964 526.374 235.964C526.751 235.964 527.066 235.893 527.319 235.749C527.577 235.601 527.706 235.377 527.706 235.076C527.706 234.847 527.625 234.654 527.462 234.496C527.305 234.339 527.088 234.198 526.811 234.074C526.539 233.95 526.231 233.823 525.887 233.695C525.458 233.528 525.069 233.349 524.72 233.158C524.372 232.967 524.095 232.73 523.89 232.449C523.684 232.167 523.582 231.816 523.582 231.396C523.582 230.996 523.696 230.652 523.925 230.365C524.159 230.074 524.474 229.852 524.871 229.7C525.271 229.542 525.72 229.463 526.217 229.463C526.789 229.463 527.293 229.568 527.727 229.778C528.161 229.988 528.524 230.263 528.815 230.602L527.928 231.339C527.741 231.163 527.5 231 527.205 230.852C526.913 230.7 526.558 230.623 526.138 230.623C525.756 230.623 525.446 230.69 525.207 230.824C524.973 230.957 524.856 231.151 524.856 231.404C524.856 231.599 524.933 231.766 525.085 231.905C525.243 232.043 525.448 232.17 525.701 232.284C525.954 232.394 526.228 232.504 526.524 232.614C526.925 232.762 527.312 232.929 527.684 233.115C528.061 233.301 528.371 233.547 528.615 233.852C528.858 234.153 528.98 234.549 528.98 235.041C528.98 235.685 528.737 236.193 528.25 236.566C527.763 236.938 527.109 237.124 526.288 237.124ZM470.255 253.952V243.929H473.426C474.238 243.929 474.875 244.07 475.338 244.351C475.801 244.628 476.128 244.989 476.319 245.432C476.514 245.872 476.612 246.335 476.612 246.821C476.612 247.165 476.555 247.509 476.44 247.852C476.331 248.191 476.154 248.501 475.911 248.783C475.672 249.06 475.357 249.287 474.966 249.463C474.579 249.635 474.109 249.73 473.555 249.75H471.608V253.952H470.255ZM475.08 253.952L472.932 249.549L474.357 249.435L476.576 253.952H475.08ZM471.608 248.497H473.455C473.918 248.497 474.281 248.416 474.543 248.253C474.806 248.091 474.989 247.886 475.094 247.638C475.204 247.385 475.259 247.122 475.259 246.85C475.259 246.607 475.207 246.356 475.102 246.098C475.001 245.841 474.82 245.623 474.557 245.447C474.3 245.27 473.932 245.182 473.455 245.182H471.608V248.497ZM482.336 254.124C481.629 254.124 481.023 253.957 480.517 253.623C480.011 253.284 479.622 252.826 479.35 252.248C479.083 251.671 478.949 251.017 478.949 250.287C478.949 249.485 479.088 248.8 479.364 248.232C479.646 247.659 480.04 247.222 480.546 246.922C481.056 246.616 481.653 246.463 482.336 246.463C482.899 246.463 483.414 246.587 483.882 246.836C484.35 247.084 484.722 247.466 484.999 247.981C485.281 248.497 485.421 249.158 485.421 249.964C485.421 250.065 485.419 250.189 485.414 250.337C485.414 250.485 485.402 250.644 485.378 250.816H479.98V249.664H484.104C484.09 249.148 483.989 248.742 483.803 248.447C483.622 248.151 483.398 247.943 483.13 247.824C482.863 247.7 482.598 247.638 482.336 247.638C481.62 247.638 481.095 247.864 480.761 248.318C480.426 248.771 480.259 249.382 480.259 250.15C480.259 251 480.446 251.675 480.818 252.177C481.19 252.678 481.706 252.928 482.364 252.928C482.67 252.928 482.961 252.878 483.238 252.778C483.519 252.673 483.789 252.508 484.047 252.284L484.813 253.143C484.512 253.425 484.149 253.659 483.725 253.845C483.305 254.031 482.842 254.124 482.336 254.124ZM490.436 253.952L487.622 246.635H489.018L490.801 251.468C490.844 251.578 490.885 251.695 490.923 251.819C490.961 251.938 490.999 252.074 491.037 252.227C491.076 252.074 491.114 251.938 491.152 251.819C491.195 251.695 491.235 251.578 491.274 251.468L493.028 246.635H494.402L491.589 253.952H490.436ZM499.982 254.124C499.276 254.124 498.67 253.957 498.164 253.623C497.658 253.284 497.269 252.826 496.997 252.248C496.73 251.671 496.596 251.017 496.596 250.287C496.596 249.485 496.735 248.8 497.011 248.232C497.293 247.659 497.687 247.222 498.193 246.922C498.703 246.616 499.3 246.463 499.982 246.463C500.546 246.463 501.061 246.587 501.529 246.836C501.997 247.084 502.369 247.466 502.646 247.981C502.927 248.497 503.068 249.158 503.068 249.964C503.068 250.065 503.066 250.189 503.061 250.337C503.061 250.485 503.049 250.644 503.025 250.816H497.627V249.664H501.751C501.737 249.148 501.636 248.742 501.45 248.447C501.269 248.151 501.044 247.943 500.777 247.824C500.51 247.7 500.245 247.638 499.982 247.638C499.267 247.638 498.742 247.864 498.407 248.318C498.073 248.771 497.906 249.382 497.906 250.15C497.906 251 498.092 251.675 498.465 252.177C498.837 252.678 499.352 252.928 500.011 252.928C500.317 252.928 500.608 252.878 500.885 252.778C501.166 252.673 501.436 252.508 501.694 252.284L502.46 253.143C502.159 253.425 501.796 253.659 501.371 253.845C500.951 254.031 500.488 254.124 499.982 254.124ZM504.976 253.952V252.778H506.508V247.809H504.976V246.635H507.768V248.268L507.682 248.06C507.816 247.74 508.026 247.461 508.312 247.222C508.603 246.979 508.94 246.793 509.321 246.664C509.703 246.53 510.097 246.463 510.503 246.463C510.875 246.463 511.195 246.499 511.462 246.571C511.734 246.638 511.951 246.721 512.114 246.821V249.399H510.803V247.215L511.276 247.824C511.147 247.79 511.018 247.769 510.889 247.759C510.76 247.745 510.632 247.738 510.503 247.738C509.982 247.738 509.522 247.821 509.121 247.988C508.725 248.151 508.415 248.389 508.19 248.704C507.966 249.019 507.854 249.401 507.854 249.85V252.778H509.973V253.952H504.976ZM518.145 254.124C517.453 254.124 516.956 253.957 516.656 253.623C516.355 253.284 516.205 252.828 516.205 252.255V247.809H514.572V246.635H516.205V244.258L517.529 243.614V246.635H519.999V247.809H517.529V251.883C517.529 252.088 517.558 252.27 517.615 252.427C517.672 252.585 517.777 252.706 517.93 252.792C518.083 252.878 518.3 252.921 518.582 252.921C518.897 252.921 519.154 252.881 519.355 252.799C519.56 252.718 519.744 252.63 519.906 252.535L519.749 253.795C519.553 253.895 519.331 253.974 519.083 254.031C518.839 254.093 518.527 254.124 518.145 254.124ZM526.453 254.124C525.746 254.124 525.14 253.957 524.634 253.623C524.128 253.284 523.739 252.826 523.467 252.248C523.2 251.671 523.066 251.017 523.066 250.287C523.066 249.485 523.205 248.8 523.482 248.232C523.763 247.659 524.157 247.222 524.663 246.922C525.174 246.616 525.77 246.463 526.453 246.463C527.016 246.463 527.531 246.587 527.999 246.836C528.467 247.084 528.839 247.466 529.116 247.981C529.398 248.497 529.538 249.158 529.538 249.964C529.538 250.065 529.536 250.189 529.531 250.337C529.531 250.485 529.519 250.644 529.496 250.816H524.097V249.664H528.221C528.207 249.148 528.107 248.742 527.92 248.447C527.739 248.151 527.515 247.943 527.247 247.824C526.98 247.7 526.715 247.638 526.453 247.638C525.737 247.638 525.212 247.864 524.878 248.318C524.544 248.771 524.377 249.382 524.377 250.15C524.377 251 524.563 251.675 524.935 252.177C525.307 252.678 525.823 252.928 526.481 252.928C526.787 252.928 527.078 252.878 527.355 252.778C527.636 252.673 527.906 252.508 528.164 252.284L528.93 253.143C528.629 253.425 528.266 253.659 527.842 253.845C527.422 254.031 526.959 254.124 526.453 254.124ZM534.89 254.124C534.236 254.124 533.67 253.971 533.193 253.666C532.72 253.356 532.355 252.914 532.097 252.341C531.844 251.764 531.718 251.079 531.718 250.287C531.718 249.489 531.849 248.807 532.112 248.239C532.374 247.666 532.742 247.227 533.214 246.922C533.687 246.616 534.238 246.463 534.868 246.463C535.326 246.463 535.713 246.533 536.028 246.671C536.348 246.805 536.605 246.967 536.801 247.158V244.244L538.126 243.614V253.952H536.801V253.358C536.625 253.554 536.379 253.73 536.064 253.888C535.749 254.045 535.357 254.124 534.89 254.124ZM535.061 252.885C535.462 252.885 535.808 252.804 536.1 252.642C536.391 252.48 536.625 252.251 536.801 251.955V248.583C536.672 248.382 536.467 248.184 536.185 247.988C535.904 247.793 535.524 247.695 535.047 247.695C534.412 247.695 533.923 247.919 533.579 248.368C533.241 248.812 533.071 249.451 533.071 250.287C533.071 250.783 533.15 251.227 533.307 251.618C533.47 252.01 533.699 252.32 533.995 252.549C534.291 252.773 534.646 252.885 535.061 252.885Z" fill="white"/>
<g clip-path="url(#clip1_2803_10466)">
<path d="M440.63 227.943H431.768V224.338L424.609 230.769L431.768 237.463V233.884H440.63C444.295 233.884 447.266 236.695 447.266 240.359C447.266 244.024 444.296 247.009 440.63 247.009H431.768V252.976H440.63C447.599 252.976 453.247 247.327 453.247 240.359C453.247 233.392 447.599 227.943 440.63 227.943Z" fill="white"/>
</g>
<rect x="413.449" y="133.652" width="50.1159" height="50.1159" rx="3.93066" fill="#F4F6FA"/>
<circle cx="455" cy="142.348" r="4" fill="#FF3737"/>
<g clip-path="url(#clip2_2803_10466)">
<path fill-rule="evenodd" clip-rule="evenodd" d="M435.82 150.253C434.771 150.254 433.923 151.103 433.924 152.15C433.923 153.196 434.772 154.046 435.821 154.047H437.719V152.151C437.719 151.104 436.87 150.254 435.82 150.253C435.821 150.253 435.821 150.253 435.82 150.253M435.82 155.312H430.762C429.713 155.313 428.863 156.162 428.864 157.209C428.863 158.256 429.712 159.105 430.761 159.107H435.82C436.869 159.106 437.719 158.256 437.718 157.21C437.719 156.162 436.869 155.313 435.82 155.312Z" fill="#222945"/>
<path fill-rule="evenodd" clip-rule="evenodd" d="M447.836 157.209C447.837 156.162 446.988 155.313 445.939 155.312C444.89 155.313 444.041 156.162 444.041 157.209V159.107H445.939C446.988 159.106 447.837 158.256 447.836 157.209ZM442.777 157.209V152.15C442.778 151.104 441.929 150.254 440.88 150.253C439.832 150.254 438.982 151.103 438.983 152.15V157.209C438.981 158.256 439.831 159.105 440.88 159.107C441.928 159.106 442.778 158.256 442.777 157.209Z" fill="#222945"/>
<path fill-rule="evenodd" clip-rule="evenodd" d="M440.879 169.224C441.928 169.224 442.778 168.374 442.777 167.328C442.778 166.281 441.928 165.432 440.879 165.431H438.982V167.328C438.981 168.374 439.831 169.223 440.879 169.224ZM440.879 164.165H445.939C446.987 164.164 447.837 163.314 447.836 162.268C447.838 161.221 446.988 160.372 445.939 160.37H440.88C439.831 160.371 438.982 161.22 438.983 162.267C438.982 163.314 439.831 164.164 440.879 164.165Z" fill="#222945"/>
<path fill-rule="evenodd" clip-rule="evenodd" d="M428.864 162.268C428.863 163.315 429.713 164.164 430.762 164.165C431.811 164.164 432.66 163.315 432.659 162.268V160.371H430.762C429.713 160.372 428.863 161.221 428.864 162.268ZM433.924 162.268V167.327C433.922 168.374 434.771 169.223 435.82 169.225C436.869 169.224 437.719 168.375 437.718 167.328V162.269C437.719 161.223 436.87 160.373 435.821 160.372C434.771 160.372 433.923 161.221 433.924 162.268C433.924 162.269 433.924 162.268 433.924 162.268Z" fill="#222945"/>
</g>
<rect x="473.111" y="133.652" width="50.1159" height="50.1159" rx="3.93066" fill="#F4F6FA"/>
<circle cx="515" cy="142.348" r="4" fill="#FF3737"/>
<path d="M498.169 159.277L488.635 151.551H507.703L498.169 159.277ZM498.169 161.325L488.624 153.589V165.87H507.715V153.589L498.169 161.325Z" fill="#222945"/>
<path fill-rule="evenodd" clip-rule="evenodd" d="M230.884 196.4L238.044 190.2L230.884 184V186.621H215.372V193.78H230.884V196.4Z" fill="#4B5CFA"/>
<path d="M331.03 53C337.579 53 343.859 55.5556 348.489 60.1047C353.119 64.6538 355.721 70.8237 355.721 77.257V90.7197C355.721 94.2609 355.011 97.7674 353.631 101.039C352.252 104.311 350.23 107.283 347.682 109.787C345.133 112.291 342.107 114.278 338.777 115.633C335.447 116.988 331.878 117.685 328.273 117.685H306.34V77.257C306.34 70.8237 308.942 64.6538 313.572 60.1047C318.202 55.5556 324.482 53 331.03 53Z" fill="#4B5CFA"/>
<path d="M303.597 74.5605C306.839 74.5605 310.05 75.188 313.045 76.407C316.041 77.626 318.763 79.4128 321.055 81.6653C323.348 83.9177 325.167 86.5918 326.408 89.5348C327.648 92.4778 328.287 95.6321 328.287 98.8176V117.684H289.88C286.97 117.684 284.179 116.548 282.121 114.527C280.063 112.505 278.907 109.763 278.907 106.903V98.8176C278.907 92.3842 281.508 86.2143 286.138 81.6653C290.769 77.1162 297.049 74.5605 303.597 74.5605Z" fill="#19D4EE"/>
<path fill-rule="evenodd" clip-rule="evenodd" d="M306.34 117.683V77.2553C306.34 76.4061 306.386 75.5615 306.475 74.7246C308.729 74.9845 310.94 75.549 313.046 76.4057C316.041 77.6247 318.763 79.4115 321.056 81.664C323.348 83.9165 325.167 86.5905 326.408 89.5335C327.649 92.4765 328.287 95.6308 328.287 98.8163V117.683H306.34Z" fill="#002CD9"/>
<defs>
<filter id="filter0_d_2803_10466" x="54.7267" y="129.682" width="66.2545" height="66.2545" filterUnits="userSpaceOnUse" color-interpolation-filters="sRGB">
<feFlood flood-opacity="0" result="BackgroundImageFix"/>
<feColorMatrix in="SourceAlpha" type="matrix" values="0 0 0 0 0 0 0 0 0 0 0 0 0 0 0 0 0 0 127 0" result="hardAlpha"/>
<feOffset dy="3.95548"/>
<feGaussianBlur stdDeviation="3.95548"/>
<feComposite in2="hardAlpha" operator="out"/>
<feColorMatrix type="matrix" values="0 0 0 0 0.502546 0 0 0 0 0.546482 0 0 0 0 0.722222 0 0 0 0.12 0"/>
<feBlend mode="multiply" in2="BackgroundImageFix" result="effect1_dropShadow_2803_10466"/>
<feBlend mode="normal" in="SourceGraphic" in2="effect1_dropShadow_2803_10466" result="shape"/>
</filter>
<filter id="filter1_d_2803_10466" x="114.705" y="129.682" width="66.2545" height="66.2545" filterUnits="userSpaceOnUse" color-interpolation-filters="sRGB">
<feFlood flood-opacity="0" result="BackgroundImageFix"/>
<feColorMatrix in="SourceAlpha" type="matrix" values="0 0 0 0 0 0 0 0 0 0 0 0 0 0 0 0 0 0 127 0" result="hardAlpha"/>
<feOffset dy="3.95548"/>
<feGaussianBlur stdDeviation="3.95548"/>
<feComposite in2="hardAlpha" operator="out"/>
<feColorMatrix type="matrix" values="0 0 0 0 0.502546 0 0 0 0 0.546482 0 0 0 0 0.722222 0 0 0 0.12 0"/>
<feBlend mode="multiply" in2="BackgroundImageFix" result="effect1_dropShadow_2803_10466"/>
<feBlend mode="normal" in="SourceGraphic" in2="effect1_dropShadow_2803_10466" result="shape"/>
</filter>
<filter id="filter2_d_2803_10466" x="54.7267" y="189.661" width="66.2545" height="66.2545" filterUnits="userSpaceOnUse" color-interpolation-filters="sRGB">
<feFlood flood-opacity="0" result="BackgroundImageFix"/>
<feColorMatrix in="SourceAlpha" type="matrix" values="0 0 0 0 0 0 0 0 0 0 0 0 0 0 0 0 0 0 127 0" result="hardAlpha"/>
<feOffset dy="3.95548"/>
<feGaussianBlur stdDeviation="3.95548"/>
<feComposite in2="hardAlpha" operator="out"/>
<feColorMatrix type="matrix" values="0 0 0 0 0.502546 0 0 0 0 0.546482 0 0 0 0 0.722222 0 0 0 0.12 0"/>
<feBlend mode="multiply" in2="BackgroundImageFix" result="effect1_dropShadow_2803_10466"/>
<feBlend mode="normal" in="SourceGraphic" in2="effect1_dropShadow_2803_10466" result="shape"/>
</filter>
<filter id="filter3_d_2803_10466" x="114.705" y="189.661" width="66.2545" height="66.2545" filterUnits="userSpaceOnUse" color-interpolation-filters="sRGB">
<feFlood flood-opacity="0" result="BackgroundImageFix"/>
<feColorMatrix in="SourceAlpha" type="matrix" values="0 0 0 0 0 0 0 0 0 0 0 0 0 0 0 0 0 0 127 0" result="hardAlpha"/>
<feOffset dy="3.95548"/>
<feGaussianBlur stdDeviation="3.95548"/>
<feComposite in2="hardAlpha" operator="out"/>
<feColorMatrix type="matrix" values="0 0 0 0 0.502546 0 0 0 0 0.546482 0 0 0 0 0.722222 0 0 0 0.12 0"/>
<feBlend mode="multiply" in2="BackgroundImageFix" result="effect1_dropShadow_2803_10466"/>
<feBlend mode="normal" in="SourceGraphic" in2="effect1_dropShadow_2803_10466" result="shape"/>
</filter>
<clipPath id="clip0_2803_10466">
<rect width="26.477" height="15.9703" fill="white" transform="translate(73.1445 212.949)"/>
</clipPath>
<clipPath id="clip1_2803_10466">
<rect width="28.6377" height="28.6377" fill="white" transform="translate(424.609 224.338)"/>
</clipPath>
<clipPath id="clip2_2803_10466">
<rect width="18.972" height="18.972" fill="white" transform="translate(428.864 150.253)"/>
</clipPath>
</defs>
</svg>
