<svg width="640" height="340" viewBox="0 0 640 340" fill="none" xmlns="http://www.w3.org/2000/svg">
<rect width="640" height="340" rx="8" fill="#F4F6FA"/>
<rect x="27.5966" y="23.5966" width="588.807" height="292.807" rx="8.94928" fill="white" stroke="#19D4EE" stroke-width="1.19324"/>
<circle cx="75" cy="170" r="25" fill="#19D4EE"/>
<path d="M65 179.998C65 174.477 69.4763 170 74.9971 170H75.0029C80.5237 170 85 174.477 85 179.998V180L65 179.998Z" fill="#4B5CFA" stroke="#4B5CFA" stroke-width="1.66667" stroke-miterlimit="10"/>
<path d="M75 160C77.7606 160 80 162.237 80 165C80 167.761 77.7625 170 75 170C72.2394 170 70 167.763 70 165C70 162.237 72.2394 160 75 160Z" fill="#4B5CFA" stroke="#4B5CFA" stroke-width="1.66667" stroke-miterlimit="10"/>
<rect x="116" y="154" width="92" height="8" rx="4" fill="#D2DDE8"/>
<rect x="116" y="166" width="92" height="8" rx="4" fill="#D2DDE8"/>
<rect x="116" y="178" width="55" height="8" rx="4" fill="#D2DDE8"/>
<rect x="247" y="154" width="92" height="8" rx="4" fill="#D2DDE8"/>
<rect x="247" y="166" width="92" height="8" rx="4" fill="#D2DDE8"/>
<rect x="247" y="178" width="55" height="8" rx="4" fill="#D2DDE8"/>
<rect x="377" y="154" width="92" height="8" rx="4" fill="#D2DDE8"/>
<rect x="377" y="166" width="92" height="8" rx="4" fill="#D2DDE8"/>
<rect x="377" y="178" width="55" height="8" rx="4" fill="#D2DDE8"/>
<circle cx="75" cy="267" r="25" fill="#19D4EE"/>
<path d="M65 276.998C65 271.477 69.4763 267 74.9971 267H75.0029C80.5237 267 85 271.477 85 276.998V277L65 276.998Z" fill="#4B5CFA" stroke="#4B5CFA" stroke-width="1.66667" stroke-miterlimit="10"/>
<path d="M75 257C77.7606 257 80 259.237 80 262C80 264.761 77.7625 267 75 267C72.2394 267 70 264.763 70 262C70 259.237 72.2394 257 75 257Z" fill="#4B5CFA" stroke="#4B5CFA" stroke-width="1.66667" stroke-miterlimit="10"/>
<rect x="116" y="251" width="92" height="8" rx="4" fill="#D2DDE8"/>
<rect x="116" y="263" width="92" height="8" rx="4" fill="#D2DDE8"/>
<rect x="116" y="275" width="55" height="8" rx="4" fill="#D2DDE8"/>
<rect x="247" y="251" width="92" height="8" rx="4" fill="#D2DDE8"/>
<rect x="247" y="263" width="92" height="8" rx="4" fill="#D2DDE8"/>
<rect x="247" y="275" width="55" height="8" rx="4" fill="#D2DDE8"/>
<rect x="377" y="251" width="92" height="8" rx="4" fill="#D2DDE8"/>
<rect x="377" y="263" width="92" height="8" rx="4" fill="#D2DDE8"/>
<rect x="377" y="275" width="55" height="8" rx="4" fill="#D2DDE8"/>
<path d="M27.5966 32.5459C27.5966 27.6033 31.6033 23.5966 36.5459 23.5966H607.454C612.397 23.5966 616.403 27.6033 616.403 32.5459V120.403H27.5966V32.5459Z" fill="white" stroke="#19D4EE" stroke-width="1.19324"/>
<rect x="520" y="55" width="74" height="34" rx="2" fill="#FF3737"/>
<path d="M534.519 77V66.8182H537.959C538.755 66.8182 539.408 66.9541 539.918 67.2259C540.429 67.4943 540.806 67.8639 541.052 68.3345C541.297 68.8052 541.42 69.3404 541.42 69.9403C541.42 70.5402 541.297 71.0722 541.052 71.5362C540.806 72.0002 540.43 72.3648 539.923 72.63C539.416 72.8918 538.768 73.0227 537.979 73.0227H535.195V71.9091H537.94C538.483 71.9091 538.921 71.8295 539.252 71.6705C539.587 71.5114 539.829 71.286 539.978 70.9943C540.13 70.6993 540.207 70.348 540.207 69.9403C540.207 69.5327 540.13 69.1764 539.978 68.8714C539.825 68.5665 539.582 68.3312 539.247 68.1655C538.912 67.9964 538.47 67.9119 537.92 67.9119H535.752V77H534.519ZM539.312 72.4261L541.817 77H540.386L537.92 72.4261H539.312ZM546.435 77.1591C545.699 77.1591 545.064 76.9967 544.531 76.6719C544 76.3438 543.591 75.8864 543.303 75.2997C543.018 74.7098 542.875 74.0237 542.875 73.2415C542.875 72.4593 543.018 71.7699 543.303 71.1733C543.591 70.5734 543.992 70.1061 544.506 69.7713C545.023 69.4332 545.626 69.2642 546.315 69.2642C546.713 69.2642 547.106 69.3305 547.494 69.4631C547.881 69.5956 548.234 69.8111 548.553 70.1094C548.871 70.4044 549.124 70.7955 549.313 71.2827C549.502 71.7699 549.597 72.3698 549.597 73.0824V73.5795H543.71V72.5653H548.403C548.403 72.1345 548.317 71.75 548.145 71.4119C547.976 71.0739 547.734 70.8071 547.419 70.6115C547.108 70.416 546.74 70.3182 546.315 70.3182C545.848 70.3182 545.444 70.4342 545.102 70.6662C544.764 70.8949 544.504 71.1932 544.322 71.5611C544.14 71.929 544.048 72.3234 544.048 72.7443V73.4205C544.048 73.9972 544.148 74.486 544.347 74.8871C544.549 75.2848 544.829 75.5881 545.187 75.7969C545.545 76.0024 545.961 76.1051 546.435 76.1051C546.743 76.1051 547.021 76.062 547.27 75.9759C547.522 75.8864 547.739 75.7538 547.921 75.5781C548.104 75.3991 548.244 75.1771 548.344 74.9119L549.477 75.2301C549.358 75.6146 549.158 75.9527 548.876 76.2443C548.594 76.5327 548.246 76.758 547.832 76.9205C547.417 77.0795 546.952 77.1591 546.435 77.1591ZM557.393 69.3636L554.57 77H553.376L550.552 69.3636H551.825L553.933 75.4489H554.013L556.121 69.3636H557.393ZM558.942 77V69.3636H560.115V77H558.942ZM559.539 68.0909C559.31 68.0909 559.113 68.013 558.947 67.8572C558.785 67.7015 558.703 67.5142 558.703 67.2955C558.703 67.0767 558.785 66.8894 558.947 66.7337C559.113 66.5779 559.31 66.5 559.539 66.5C559.767 66.5 559.963 66.5779 560.125 66.7337C560.291 66.8894 560.374 67.0767 560.374 67.2955C560.374 67.5142 560.291 67.7015 560.125 67.8572C559.963 68.013 559.767 68.0909 559.539 68.0909ZM565.466 77.1591C564.73 77.1591 564.095 76.9967 563.562 76.6719C563.032 76.3438 562.622 75.8864 562.334 75.2997C562.049 74.7098 561.906 74.0237 561.906 73.2415C561.906 72.4593 562.049 71.7699 562.334 71.1733C562.622 70.5734 563.023 70.1061 563.537 69.7713C564.054 69.4332 564.657 69.2642 565.347 69.2642C565.744 69.2642 566.137 69.3305 566.525 69.4631C566.913 69.5956 567.266 69.8111 567.584 70.1094C567.902 70.4044 568.156 70.7955 568.345 71.2827C568.533 71.7699 568.628 72.3698 568.628 73.0824V73.5795H562.742V72.5653H567.435C567.435 72.1345 567.349 71.75 567.176 71.4119C567.007 71.0739 566.765 70.8071 566.45 70.6115C566.139 70.416 565.771 70.3182 565.347 70.3182C564.879 70.3182 564.475 70.4342 564.134 70.6662C563.796 70.8949 563.535 71.1932 563.353 71.5611C563.171 71.929 563.08 72.3234 563.08 72.7443V73.4205C563.08 73.9972 563.179 74.486 563.378 74.8871C563.58 75.2848 563.86 75.5881 564.218 75.7969C564.576 76.0024 564.992 76.1051 565.466 76.1051C565.774 76.1051 566.053 76.062 566.301 75.9759C566.553 75.8864 566.77 75.7538 566.953 75.5781C567.135 75.3991 567.276 75.1771 567.375 74.9119L568.509 75.2301C568.389 75.6146 568.189 75.9527 567.907 76.2443C567.625 76.5327 567.277 76.758 566.863 76.9205C566.449 77.0795 565.983 77.1591 565.466 77.1591ZM572.143 77L569.816 69.3636H571.049L572.7 75.2102H572.779L574.41 69.3636H575.663L577.274 75.1903H577.353L579.004 69.3636H580.237L577.91 77H576.756L575.086 71.1335H574.967L573.296 77H572.143Z" fill="white"/>
<path opacity="0.5" d="M27 121H617V219H27V121Z" fill="#F4F6FA"/>
<path opacity="0.5" d="M27 219H617V307.45C617 312.724 612.724 317 607.45 317H36.55C31.2757 317 27 312.724 27 307.45V219Z" fill="#F4F6FA"/>
<circle cx="75" cy="72" r="25" fill="#19D4EE"/>
<path d="M65 81.9981C65 76.4767 69.4763 72 74.9971 72H75.0029C80.5237 72 85 76.4767 85 81.9981V82L65 81.9981Z" fill="#4B5CFA" stroke="#4B5CFA" stroke-width="1.66667" stroke-miterlimit="10"/>
<path d="M75 62C77.7606 62 80 64.2375 80 67C80 69.7606 77.7625 72 75 72C72.2394 72 70 69.7625 70 67C70 64.2375 72.2394 62 75 62Z" fill="#4B5CFA" stroke="#4B5CFA" stroke-width="1.66667" stroke-miterlimit="10"/>
<rect x="116" y="56" width="92" height="8" rx="4" fill="#D2DDE8"/>
<rect x="116" y="68" width="92" height="8" rx="4" fill="#D2DDE8"/>
<rect x="116" y="80" width="55" height="8" rx="4" fill="#D2DDE8"/>
<rect x="247" y="56" width="92" height="8" rx="4" fill="#D2DDE8"/>
<rect x="247" y="68" width="92" height="8" rx="4" fill="#D2DDE8"/>
<rect x="247" y="80" width="55" height="8" rx="4" fill="#D2DDE8"/>
<rect x="377" y="56" width="92" height="8" rx="4" fill="#D2DDE8"/>
<rect x="377" y="68" width="92" height="8" rx="4" fill="#D2DDE8"/>
<rect x="377" y="80" width="55" height="8" rx="4" fill="#D2DDE8"/>
<mask id="path-44-inside-1_2803_10467" fill="white">
<path d="M391 109.966C391 106.671 393.671 104 396.966 104H587.884C591.179 104 593.85 106.671 593.85 109.966V204.034C593.85 207.329 591.179 210 587.884 210H396.966C393.671 210 391 207.329 391 204.034V109.966Z"/>
</mask>
<path d="M391 109.966C391 106.671 393.671 104 396.966 104H587.884C591.179 104 593.85 106.671 593.85 109.966V204.034C593.85 207.329 591.179 210 587.884 210H396.966C393.671 210 391 207.329 391 204.034V109.966Z" fill="white"/>
<path d="M396.966 105H587.884V103H396.966V105ZM592.85 109.966V204.034H594.85V109.966H592.85ZM587.884 209H396.966V211H587.884V209ZM392 204.034V109.966H390V204.034H392ZM396.966 209C394.223 209 392 206.777 392 204.034H390C390 207.881 393.119 211 396.966 211V209ZM592.85 204.034C592.85 206.777 590.627 209 587.884 209V211C591.731 211 594.85 207.881 594.85 204.034H592.85ZM587.884 105C590.627 105 592.85 107.223 592.85 109.966H594.85C594.85 106.119 591.731 103 587.884 103V105ZM396.966 103C393.119 103 390 106.119 390 109.966H392C392 107.223 394.223 105 396.966 105V103Z" fill="#19D4EE" mask="url(#path-44-inside-1_2803_10467)"/>
<path d="M391 157.5H594" stroke="#19D4EE"/>
<rect x="403" y="117" width="28.6377" height="28.6377" rx="2.38647" fill="#0DDA84"/>
<path d="M410.159 131.841L414.634 136.316L424.478 126.919" stroke="white" stroke-width="1.78986"/>
<rect x="404" y="168.797" width="28.6377" height="28.6377" rx="2.38647" fill="#FF3737"/>
<path d="M422.742 177.993L412.353 188.383" stroke="white" stroke-width="2.38647"/>
<path d="M412.353 177.993L422.742 188.383" stroke="white" stroke-width="2.38647"/>
<path d="M451.606 137H449.944L454.75 123.909H456.387L461.194 137H459.532L455.62 125.98H455.517L451.606 137ZM452.219 131.886H458.918V133.293H452.219V131.886ZM463.028 140.682V127.182H464.486V128.741H464.665C464.775 128.571 464.929 128.354 465.125 128.089C465.325 127.821 465.611 127.582 465.981 127.374C466.356 127.161 466.863 127.054 467.503 127.054C468.329 127.054 469.058 127.261 469.689 127.674C470.319 128.087 470.812 128.673 471.165 129.432C471.519 130.19 471.696 131.085 471.696 132.116C471.696 133.156 471.519 134.058 471.165 134.82C470.812 135.579 470.321 136.167 469.695 136.585C469.069 136.998 468.346 137.205 467.528 137.205C466.897 137.205 466.392 137.1 466.013 136.891C465.634 136.678 465.342 136.437 465.138 136.169C464.933 135.896 464.775 135.67 464.665 135.491H464.537V140.682H463.028ZM464.511 132.091C464.511 132.832 464.62 133.487 464.837 134.053C465.054 134.616 465.372 135.057 465.79 135.376C466.207 135.692 466.718 135.849 467.324 135.849C467.954 135.849 468.481 135.683 468.902 135.351C469.329 135.014 469.648 134.562 469.861 133.996C470.079 133.425 470.187 132.79 470.187 132.091C470.187 131.401 470.081 130.778 469.868 130.224C469.659 129.666 469.341 129.225 468.915 128.901C468.493 128.573 467.963 128.409 467.324 128.409C466.71 128.409 466.194 128.565 465.777 128.876C465.359 129.183 465.044 129.613 464.831 130.167C464.618 130.717 464.511 131.358 464.511 132.091ZM473.997 140.682V127.182H475.454V128.741H475.633C475.744 128.571 475.897 128.354 476.093 128.089C476.294 127.821 476.579 127.582 476.95 127.374C477.325 127.161 477.832 127.054 478.471 127.054C479.298 127.054 480.027 127.261 480.657 127.674C481.288 128.087 481.78 128.673 482.134 129.432C482.488 130.19 482.665 131.085 482.665 132.116C482.665 133.156 482.488 134.058 482.134 134.82C481.78 135.579 481.29 136.167 480.664 136.585C480.037 136.998 479.315 137.205 478.497 137.205C477.866 137.205 477.361 137.1 476.982 136.891C476.603 136.678 476.311 136.437 476.106 136.169C475.902 135.896 475.744 135.67 475.633 135.491H475.505V140.682H473.997ZM475.48 132.091C475.48 132.832 475.589 133.487 475.806 134.053C476.023 134.616 476.341 135.057 476.758 135.376C477.176 135.692 477.687 135.849 478.292 135.849C478.923 135.849 479.449 135.683 479.871 135.351C480.297 135.014 480.617 134.562 480.83 133.996C481.047 133.425 481.156 132.79 481.156 132.091C481.156 131.401 481.049 130.778 480.836 130.224C480.628 129.666 480.31 129.225 479.884 128.901C479.462 128.573 478.932 128.409 478.292 128.409C477.679 128.409 477.163 128.565 476.745 128.876C476.328 129.183 476.013 129.613 475.799 130.167C475.586 130.717 475.48 131.358 475.48 132.091ZM484.966 137V127.182H486.423V128.665H486.525C486.704 128.179 487.028 127.785 487.497 127.482C487.966 127.18 488.494 127.028 489.082 127.028C489.193 127.028 489.331 127.031 489.498 127.035C489.664 127.039 489.79 127.045 489.875 127.054V128.588C489.824 128.575 489.706 128.556 489.523 128.531C489.344 128.501 489.155 128.486 488.954 128.486C488.477 128.486 488.051 128.586 487.676 128.786C487.305 128.982 487.011 129.255 486.794 129.604C486.581 129.95 486.474 130.344 486.474 130.787V137H484.966ZM495.353 137.205C494.466 137.205 493.689 136.994 493.02 136.572C492.355 136.15 491.835 135.56 491.46 134.801C491.089 134.043 490.904 133.156 490.904 132.142C490.904 131.119 491.089 130.227 491.46 129.464C491.835 128.701 492.355 128.109 493.02 127.687C493.689 127.265 494.466 127.054 495.353 127.054C496.239 127.054 497.015 127.265 497.679 127.687C498.348 128.109 498.868 128.701 499.239 129.464C499.614 130.227 499.802 131.119 499.802 132.142C499.802 133.156 499.614 134.043 499.239 134.801C498.868 135.56 498.348 136.15 497.679 136.572C497.015 136.994 496.239 137.205 495.353 137.205ZM495.353 135.849C496.026 135.849 496.58 135.677 497.015 135.332C497.449 134.987 497.771 134.533 497.98 133.97C498.189 133.408 498.293 132.798 498.293 132.142C498.293 131.486 498.189 130.874 497.98 130.308C497.771 129.741 497.449 129.283 497.015 128.933C496.58 128.584 496.026 128.409 495.353 128.409C494.679 128.409 494.125 128.584 493.691 128.933C493.256 129.283 492.934 129.741 492.726 130.308C492.517 130.874 492.412 131.486 492.412 132.142C492.412 132.798 492.517 133.408 492.726 133.97C492.934 134.533 493.256 134.987 493.691 135.332C494.125 135.677 494.679 135.849 495.353 135.849ZM509.781 127.182L506.15 137H504.616L500.986 127.182H502.622L505.332 135.006H505.435L508.145 127.182H509.781ZM515.537 137.205C514.591 137.205 513.775 136.996 513.089 136.578C512.407 136.156 511.881 135.568 511.51 134.814C511.144 134.055 510.96 133.173 510.96 132.168C510.96 131.162 511.144 130.276 511.51 129.509C511.881 128.737 512.397 128.136 513.057 127.706C513.722 127.271 514.497 127.054 515.384 127.054C515.895 127.054 516.4 127.139 516.899 127.31C517.397 127.48 517.851 127.757 518.26 128.141C518.669 128.52 518.995 129.023 519.238 129.649C519.481 130.276 519.603 131.047 519.603 131.963V132.602H512.034V131.298H518.068C518.068 130.744 517.958 130.25 517.736 129.815C517.519 129.381 517.208 129.038 516.803 128.786C516.402 128.535 515.929 128.409 515.384 128.409C514.783 128.409 514.263 128.558 513.824 128.857C513.389 129.151 513.055 129.534 512.821 130.007C512.586 130.48 512.469 130.987 512.469 131.528V132.398C512.469 133.139 512.597 133.768 512.853 134.283C513.112 134.795 513.473 135.185 513.933 135.453C514.393 135.717 514.928 135.849 515.537 135.849C515.934 135.849 516.291 135.794 516.611 135.683C516.935 135.568 517.214 135.398 517.448 135.172C517.683 134.942 517.864 134.656 517.992 134.315L519.449 134.724C519.296 135.219 519.038 135.653 518.676 136.028C518.313 136.399 517.866 136.689 517.333 136.898C516.801 137.102 516.202 137.205 515.537 137.205Z" fill="#303030"/>
<path d="M456.819 189H452.78V175.909H456.998C458.268 175.909 459.355 176.171 460.258 176.695C461.162 177.215 461.854 177.963 462.336 178.939C462.817 179.911 463.058 181.074 463.058 182.429C463.058 183.793 462.815 184.967 462.329 185.951C461.843 186.931 461.136 187.685 460.207 188.214C459.278 188.738 458.149 189 456.819 189ZM454.365 187.594H456.717C457.799 187.594 458.696 187.385 459.408 186.967C460.12 186.55 460.65 185.955 461 185.184C461.349 184.413 461.524 183.494 461.524 182.429C461.524 181.372 461.351 180.462 461.006 179.7C460.661 178.933 460.145 178.344 459.459 177.935C458.773 177.522 457.919 177.315 456.896 177.315H454.365V187.594ZM469.629 189.205C468.683 189.205 467.867 188.996 467.181 188.578C466.499 188.156 465.973 187.568 465.602 186.814C465.236 186.055 465.052 185.173 465.052 184.168C465.052 183.162 465.236 182.276 465.602 181.509C465.973 180.737 466.488 180.136 467.149 179.706C467.814 179.271 468.589 179.054 469.476 179.054C469.987 179.054 470.492 179.139 470.991 179.31C471.489 179.48 471.943 179.757 472.352 180.141C472.761 180.52 473.087 181.023 473.33 181.649C473.573 182.276 473.694 183.047 473.694 183.963V184.602H466.126V183.298H472.16C472.16 182.744 472.049 182.25 471.828 181.815C471.611 181.381 471.299 181.038 470.895 180.786C470.494 180.535 470.021 180.409 469.476 180.409C468.875 180.409 468.355 180.558 467.916 180.857C467.481 181.151 467.147 181.534 466.912 182.007C466.678 182.48 466.561 182.987 466.561 183.528V184.398C466.561 185.139 466.689 185.768 466.944 186.283C467.204 186.795 467.564 187.185 468.025 187.453C468.485 187.717 469.02 187.849 469.629 187.849C470.025 187.849 470.383 187.794 470.703 187.683C471.027 187.568 471.306 187.398 471.54 187.172C471.775 186.942 471.956 186.656 472.084 186.315L473.541 186.724C473.388 187.219 473.13 187.653 472.767 188.028C472.405 188.399 471.958 188.689 471.425 188.898C470.892 189.102 470.294 189.205 469.629 189.205ZM477.498 183.094V189H475.989V179.182H477.446V180.716H477.574C477.804 180.217 478.154 179.817 478.623 179.514C479.091 179.207 479.696 179.054 480.438 179.054C481.103 179.054 481.684 179.19 482.183 179.463C482.682 179.732 483.069 180.141 483.346 180.69C483.623 181.236 483.762 181.926 483.762 182.761V189H482.253V182.864C482.253 182.092 482.053 181.491 481.652 181.061C481.252 180.626 480.702 180.409 480.003 180.409C479.522 180.409 479.091 180.513 478.712 180.722C478.337 180.931 478.041 181.236 477.824 181.636C477.606 182.037 477.498 182.523 477.498 183.094ZM487.138 192.682C486.883 192.682 486.655 192.661 486.454 192.618C486.254 192.58 486.116 192.541 486.039 192.503L486.422 191.173C486.789 191.267 487.113 191.301 487.394 191.276C487.675 191.25 487.925 191.124 488.142 190.898C488.364 190.677 488.566 190.317 488.749 189.818L489.03 189.051L485.4 179.182H487.036L489.746 187.006H489.849L492.559 179.182H494.195L490.028 190.432C489.84 190.939 489.608 191.359 489.331 191.691C489.054 192.028 488.732 192.277 488.366 192.439C488.003 192.601 487.594 192.682 487.138 192.682Z" fill="#303030"/>
</svg>
