<svg width="575" height="456" viewBox="0 0 575 456" fill="none" xmlns="http://www.w3.org/2000/svg">
<line x1="288" y1="129" x2="288" y2="63" stroke="#19D4EE" stroke-width="16"/>
<path d="M288 201L288 251.013C288 257.641 293.373 263.013 300 263.013L443 263.013C478.346 263.013 507 291.667 507 327.013L507 341" stroke="#19D4EE" stroke-width="16"/>
<path d="M288 200L288 250.456C288 257.084 282.627 262.456 276 262.456L128 262.456C92.6538 262.456 64 291.11 64 326.456L64 341" stroke="#19D4EE" stroke-width="16"/>
<path d="M213 341L213 327C213 291.654 241.654 263 277 263L292 263" stroke="#19D4EE" stroke-width="16"/>
<path d="M359 341L359 327C359 291.654 330.346 263 295 263L272 263" stroke="#19D4EE" stroke-width="16"/>
<g filter="url(#filter0_d_2798_12190)">
<rect x="16" y="330" width="102" height="102" rx="8" fill="white"/>
</g>
<path d="M67.2408 353.8C67.3013 353.8 67.3618 353.876 67.4526 354.012C67.5282 354.133 73.8973 361.773 81.6129 370.986C89.3285 380.199 95.622 387.779 95.5917 387.824C95.5766 387.87 89.4344 392.907 81.9458 399.004C74.4571 405.101 68.088 410.29 67.8005 410.532C67.3013 410.941 67.271 410.956 67.0895 410.774C66.9836 410.668 60.5993 405.449 52.8989 399.171C45.1984 392.892 38.92 387.718 38.9503 387.643C38.9806 387.567 45.3043 380.018 53.035 370.85C60.7657 361.682 67.0895 354.103 67.1197 353.982C67.15 353.861 67.1954 353.8 67.2408 353.8Z" fill="#00BEF2"/>
<path d="M66.1972 401.803C65.3197 401.485 64.2607 400.578 63.822 399.73C63.2773 398.686 63.3227 397.053 63.9279 395.751C64.3969 394.783 64.3969 394.753 64.0943 394.526C63.9279 394.405 61.9158 393.286 59.6465 392.06C57.3772 390.835 55.3953 389.761 55.2592 389.685C55.0776 389.579 54.7751 389.685 54.2304 390.033C52.4604 391.152 50.6147 391.031 49.1624 389.685C48.1185 388.717 47.8159 388.036 47.8159 386.644C47.8159 385.298 48.0882 384.602 48.9506 383.739C50.1155 382.574 51.6737 382.181 53.1714 382.68C53.9884 382.953 54.0035 382.953 54.5179 382.559C55.123 382.105 59.9793 377.673 62.3242 375.449L63.943 373.906L63.4589 372.892C62.4755 370.85 62.9748 368.581 64.6994 367.219C65.6374 366.478 66.3333 366.251 67.6798 366.251C70.8265 366.251 73.0201 369.549 71.8401 372.499C71.5224 373.316 71.5224 373.331 71.825 373.83C72.0822 374.269 76.4543 379.549 78.769 382.242C79.1775 382.711 79.6313 383.089 79.7826 383.089C79.9339 383.089 80.4483 382.938 80.9324 382.756C83.1866 381.863 85.5617 382.862 86.4997 385.101C87.1049 386.538 86.5754 388.475 85.2894 389.64C84.3817 390.456 83.7161 390.714 82.5058 390.714C81.6586 390.714 81.3409 390.623 80.4483 390.139C79.7826 389.776 79.2683 389.594 79.0565 389.655C78.6934 389.745 73.1109 393.573 71.8704 394.571C71.1139 395.192 71.0534 395.419 71.4468 396.341C71.825 397.249 71.7796 398.671 71.356 399.564C70.887 400.547 69.7221 401.531 68.7085 401.833C67.6798 402.121 67.0595 402.121 66.1972 401.803ZM66.4543 385.131V376.508L65.9702 375.842C65.6979 375.479 65.4407 375.177 65.3953 375.177C65.1987 375.177 55.4256 384.057 55.4256 384.239C55.4256 384.284 55.5769 384.738 55.7584 385.222C55.94 385.721 56.0761 386.432 56.061 386.841C56.0459 387.249 56.0459 387.703 56.0459 387.854C56.061 388.202 59.3288 390.29 64.2304 393.119C65.5769 393.906 66.0459 394.102 66.2123 393.966C66.409 393.8 66.4543 392.121 66.4543 385.131ZM70.5996 392.756C77.0746 388.686 78.2849 387.869 78.3605 387.567C78.4059 387.385 78.4664 386.674 78.4816 385.963L78.527 384.692L75.2289 380.774C71.6888 376.584 70.3878 375.161 70.0852 375.161C69.9793 375.161 69.4498 375.464 68.9052 375.827L67.9067 376.493L67.9521 385.101C67.9975 392.817 68.058 394.118 68.3454 394.118C68.3757 394.133 69.4044 393.512 70.5996 392.756Z" fill="white" stroke="white" stroke-width="0.219934" stroke-linecap="round" stroke-linejoin="round"/>
<g filter="url(#filter1_d_2798_12190)">
<rect x="163" y="330" width="102" height="102" rx="8" fill="white"/>
</g>
<path d="M186.637 374.859C182.029 374.859 178.3 378.692 178.3 383.429C178.3 388.165 182.029 391.999 186.637 391.999C191.245 391.999 194.974 388.165 194.974 383.429C194.974 378.692 191.245 374.859 186.637 374.859ZM186.637 387.722C184.333 387.722 182.46 385.797 182.46 383.429C182.46 381.061 184.333 379.135 186.637 379.135C188.941 379.135 190.814 381.061 190.814 383.429C190.814 385.797 188.941 387.722 186.637 387.722Z" fill="#007DC1"/>
<path d="M201.289 386.308C201.289 385.627 202.085 385.303 202.549 385.78C204.637 387.961 208.085 391.709 208.101 391.726C208.151 391.777 208.201 391.863 208.4 391.931C208.483 391.965 208.615 391.965 208.764 391.965H212.527C213.207 391.965 213.405 391.164 213.09 390.755L206.858 384.196L206.527 383.855C205.814 382.986 205.897 382.645 206.709 381.759L211.648 376.086C211.963 375.677 211.765 374.893 211.068 374.893H207.654C207.521 374.893 207.422 374.893 207.322 374.927C207.124 374.995 207.041 375.063 206.991 375.132C206.974 375.149 204.239 378.181 202.549 380.038C202.085 380.55 201.256 380.209 201.256 379.51V369.782C201.256 369.288 200.858 369.1 200.543 369.1H197.759C197.278 369.1 197.046 369.424 197.046 369.713V391.283C197.046 391.777 197.444 391.914 197.775 391.914H200.56C200.991 391.914 201.273 391.59 201.273 391.266V391.045V386.308H201.289Z" fill="#007DC1"/>
<path d="M224.03 391.181L223.732 388.319C223.699 387.927 223.334 387.654 222.953 387.722C222.737 387.757 222.522 387.774 222.306 387.774C220.085 387.774 218.279 385.985 218.146 383.719C218.146 383.65 218.146 383.565 218.146 383.48V379.97C218.146 379.51 218.478 379.135 218.925 379.135H222.655C222.92 379.135 223.318 378.897 223.318 378.403V375.694C223.318 375.166 222.986 374.893 222.688 374.893H218.925C218.494 374.893 218.146 374.569 218.13 374.126V369.782C218.13 369.509 217.931 369.1 217.417 369.1H214.649C214.301 369.1 213.969 369.322 213.969 369.765C213.969 369.765 213.969 383.65 213.969 383.719C214.085 388.353 217.781 392.05 222.306 392.05C222.688 392.05 223.052 392.016 223.417 391.965C223.815 391.914 224.08 391.573 224.03 391.181Z" fill="#007DC1"/>
<path d="M244.119 387.586C241.766 387.586 241.401 386.717 241.401 383.463C241.401 383.446 241.401 383.446 241.401 383.429V375.609C241.401 375.336 241.202 374.876 240.672 374.876H237.887C237.539 374.876 237.158 375.166 237.158 375.609V375.966C235.948 375.251 234.539 374.842 233.047 374.842C228.439 374.842 224.71 378.675 224.71 383.412C224.71 388.148 228.439 391.982 233.047 391.982C235.119 391.982 237.009 391.198 238.467 389.92C239.246 391.147 240.506 391.965 242.478 391.982C242.81 391.982 244.6 392.05 244.6 391.181V388.131C244.6 387.876 244.401 387.586 244.119 387.586ZM233.064 387.722C230.76 387.722 228.887 385.797 228.887 383.429C228.887 381.061 230.76 379.135 233.064 379.135C235.368 379.135 237.241 381.061 237.241 383.429C237.224 385.797 235.351 387.722 233.064 387.722Z" fill="#007DC1"/>
<g filter="url(#filter2_d_2798_12190)">
<rect x="310" y="330" width="102" height="102" rx="8" fill="white"/>
</g>
<g clip-path="url(#clip0_2798_12190)">
<path d="M346.176 380.689C346.176 381.346 346.246 381.878 346.369 382.269C346.51 382.659 346.687 383.085 346.933 383.546C347.021 383.688 347.056 383.83 347.056 383.955C347.056 384.132 346.951 384.309 346.722 384.487L345.612 385.232C345.453 385.339 345.295 385.392 345.154 385.392C344.978 385.392 344.802 385.303 344.626 385.144C344.379 384.877 344.168 384.593 343.991 384.309C343.815 384.008 343.639 383.671 343.445 383.262C342.071 384.895 340.345 385.712 338.266 385.712C336.787 385.712 335.607 385.286 334.743 384.434C333.88 383.582 333.44 382.446 333.44 381.026C333.44 379.518 333.968 378.293 335.043 377.37C336.117 376.447 337.544 375.986 339.359 375.986C339.958 375.986 340.574 376.039 341.226 376.128C341.878 376.217 342.547 376.359 343.252 376.518V375.223C343.252 373.874 342.97 372.934 342.424 372.383C341.86 371.833 340.909 371.567 339.552 371.567C338.936 371.567 338.302 371.638 337.65 371.798C336.998 371.957 336.364 372.153 335.748 372.401C335.466 372.525 335.254 372.596 335.131 372.632C335.008 372.667 334.92 372.685 334.849 372.685C334.603 372.685 334.479 372.508 334.479 372.135V371.265C334.479 370.981 334.514 370.768 334.603 370.644C334.691 370.52 334.849 370.396 335.096 370.271C335.712 369.952 336.452 369.686 337.315 369.473C338.178 369.242 339.094 369.136 340.063 369.136C342.159 369.136 343.692 369.615 344.678 370.573C345.647 371.531 346.14 372.987 346.14 374.939V380.689H346.176ZM339.024 383.387C339.605 383.387 340.204 383.28 340.838 383.067C341.472 382.854 342.036 382.464 342.512 381.931C342.794 381.594 343.005 381.221 343.111 380.796C343.216 380.37 343.287 379.855 343.287 379.252V378.506C342.776 378.382 342.23 378.275 341.666 378.204C341.103 378.133 340.556 378.098 340.01 378.098C338.83 378.098 337.967 378.329 337.386 378.808C336.804 379.287 336.523 379.961 336.523 380.849C336.523 381.683 336.734 382.304 337.174 382.73C337.597 383.174 338.214 383.387 339.024 383.387ZM353.169 385.303C352.852 385.303 352.64 385.25 352.5 385.126C352.359 385.019 352.235 384.771 352.13 384.434L347.99 370.715C347.884 370.36 347.832 370.129 347.832 370.005C347.832 369.721 347.972 369.562 348.254 369.562H349.981C350.315 369.562 350.544 369.615 350.668 369.739C350.808 369.845 350.914 370.094 351.02 370.431L353.979 382.18L356.727 370.431C356.815 370.076 356.921 369.845 357.062 369.739C357.203 369.633 357.449 369.562 357.766 369.562H359.176C359.51 369.562 359.739 369.615 359.88 369.739C360.021 369.845 360.144 370.094 360.215 370.431L362.998 382.322L366.046 370.431C366.151 370.076 366.275 369.845 366.398 369.739C366.539 369.633 366.768 369.562 367.085 369.562H368.723C369.005 369.562 369.163 369.704 369.163 370.005C369.163 370.094 369.146 370.183 369.128 370.289C369.111 370.396 369.075 370.538 369.005 370.733L364.76 384.451C364.654 384.806 364.531 385.037 364.39 385.144C364.249 385.25 364.02 385.321 363.72 385.321H362.205C361.871 385.321 361.642 385.268 361.501 385.144C361.36 385.019 361.237 384.789 361.166 384.434L358.436 372.987L355.723 384.416C355.635 384.771 355.529 385.002 355.388 385.126C355.247 385.25 355.001 385.303 354.684 385.303H353.169ZM375.804 385.783C374.888 385.783 373.972 385.676 373.092 385.463C372.211 385.25 371.524 385.019 371.066 384.753C370.784 384.593 370.59 384.416 370.52 384.256C370.449 384.097 370.414 383.919 370.414 383.759V382.854C370.414 382.482 370.555 382.304 370.819 382.304C370.925 382.304 371.031 382.322 371.136 382.357C371.242 382.393 371.401 382.464 371.577 382.535C372.176 382.801 372.827 383.014 373.514 383.156C374.219 383.298 374.906 383.369 375.611 383.369C376.72 383.369 377.583 383.174 378.182 382.783C378.781 382.393 379.098 381.825 379.098 381.097C379.098 380.6 378.94 380.192 378.623 379.855C378.306 379.518 377.707 379.216 376.844 378.932L374.289 378.133C373.004 377.725 372.052 377.122 371.471 376.323C370.89 375.542 370.59 374.673 370.59 373.75C370.59 373.004 370.749 372.348 371.066 371.78C371.383 371.212 371.806 370.715 372.334 370.325C372.863 369.916 373.462 369.615 374.166 369.402C374.871 369.189 375.611 369.1 376.386 369.1C376.773 369.1 377.178 369.118 377.566 369.171C377.971 369.224 378.341 369.295 378.711 369.366C379.063 369.455 379.398 369.544 379.715 369.65C380.032 369.757 380.279 369.863 380.455 369.97C380.701 370.112 380.877 370.254 380.983 370.413C381.089 370.555 381.142 370.751 381.142 370.999V371.833C381.142 372.206 381.001 372.401 380.737 372.401C380.596 372.401 380.367 372.33 380.067 372.188C379.063 371.727 377.936 371.496 376.685 371.496C375.681 371.496 374.888 371.656 374.342 371.993C373.796 372.33 373.514 372.845 373.514 373.572C373.514 374.069 373.691 374.495 374.043 374.832C374.395 375.17 375.047 375.507 375.98 375.809L378.482 376.607C379.75 377.015 380.666 377.583 381.212 378.311C381.758 379.039 382.022 379.873 382.022 380.796C382.022 381.559 381.864 382.251 381.564 382.854C381.247 383.458 380.825 383.99 380.279 384.416C379.733 384.86 379.081 385.179 378.323 385.41C377.531 385.658 376.703 385.783 375.804 385.783Z" fill="#252F3E"/>
<path fill-rule="evenodd" clip-rule="evenodd" d="M379.134 394.408C373.338 398.72 364.918 401.01 357.678 401.01C347.532 401.01 338.39 397.23 331.485 390.947C330.939 390.45 331.432 389.776 332.084 390.166C339.552 394.532 348.765 397.176 358.295 397.176C364.724 397.176 371.788 395.828 378.288 393.059C379.257 392.615 380.085 393.698 379.134 394.408Z" fill="#FF9900"/>
<path fill-rule="evenodd" clip-rule="evenodd" d="M381.547 391.639C380.807 390.681 376.65 391.178 374.765 391.408C374.201 391.479 374.113 390.982 374.624 390.61C377.936 388.267 383.379 388.942 384.013 389.722C384.647 390.521 383.837 396.005 380.737 398.632C380.261 399.04 379.803 398.827 380.014 398.294C380.719 396.537 382.287 392.58 381.547 391.639Z" fill="#FF9900"/>
</g>
<g filter="url(#filter3_d_2798_12190)">
<rect x="457" y="330" width="102" height="102" rx="8" fill="white"/>
</g>
<path d="M526.728 378.705H525.085V378.62H506.725V386.78H518.254C516.572 391.53 512.053 394.94 506.725 394.94C499.966 394.94 494.485 389.46 494.485 382.7C494.485 375.941 499.966 370.46 506.725 370.46C509.845 370.46 512.684 371.637 514.845 373.56L520.616 367.79C516.972 364.394 512.099 362.3 506.725 362.3C495.459 362.3 486.325 371.434 486.325 382.7C486.325 393.966 495.459 403.1 506.725 403.1C517.991 403.1 527.125 393.966 527.125 382.7C527.125 381.332 526.984 379.997 526.728 378.705Z" fill="#FFC107"/>
<path d="M488.677 373.205L495.38 378.12C497.193 373.63 501.585 370.46 506.725 370.46C509.845 370.46 512.684 371.637 514.845 373.56L520.615 367.79C516.972 364.394 512.098 362.3 506.725 362.3C498.889 362.3 492.094 366.724 488.677 373.205Z" fill="#FF3D00"/>
<path d="M506.725 403.1C511.994 403.1 516.782 401.084 520.402 397.804L514.088 392.462C512.04 394.013 509.494 394.94 506.725 394.94C501.419 394.94 496.914 391.557 495.216 386.835L488.564 391.961C491.94 398.567 498.797 403.1 506.725 403.1Z" fill="#4CAF50"/>
<path d="M526.728 378.705H525.085V378.62H506.725V386.78H518.254C517.446 389.062 515.979 391.029 514.085 392.463L514.088 392.46L520.402 397.803C519.956 398.209 527.125 392.9 527.125 382.7C527.125 381.332 526.984 379.997 526.728 378.705Z" fill="#1976D2"/>
<g filter="url(#filter4_d_2798_12190)">
<rect x="121" y="10" width="334" height="80" rx="40" fill="white" shape-rendering="crispEdges"/>
<g clip-path="url(#clip1_2798_12190)">
<path d="M171.188 39.9059C172.358 41.0813 173.487 42.2222 174.627 43.3512C174.775 43.4985 174.798 43.6208 174.739 43.8107C174.396 44.9172 174.889 46.1202 175.912 46.6499C176.091 46.742 176.139 46.843 176.139 47.031C176.133 49.773 176.133 52.5157 176.139 55.2577C176.139 55.4714 176.075 55.5843 175.884 55.6946C175.013 56.1955 174.576 56.9697 174.64 57.9683C174.705 58.992 175.242 59.7223 176.205 60.1029C177.368 60.5624 178.671 60.0464 179.255 58.9155C179.816 57.8279 179.448 56.4581 178.403 55.7792C178.254 55.6827 178.15 55.6031 178.151 55.3981C178.159 52.6454 178.156 49.8928 178.157 47.1401C178.157 47.0987 178.164 47.058 178.176 46.9489C178.325 47.0969 178.445 47.2135 178.563 47.3319C179.469 48.2378 180.374 49.1462 181.284 50.0476C181.41 50.1711 181.445 50.2695 181.393 50.4526C181.081 51.5402 181.499 52.6548 182.416 53.2328C183.344 53.819 184.47 53.7256 185.342 52.9902C186.103 52.3489 186.365 51.2857 186.006 50.294C185.672 49.3743 184.776 48.7393 183.803 48.7355C183.658 48.7355 183.488 48.691 183.37 48.7493C182.976 48.9449 182.772 48.7017 182.534 48.461C181.552 47.4667 180.562 46.4813 179.572 45.4958C179.456 45.3805 179.386 45.2864 179.434 45.094C179.878 43.3205 178.3 41.7238 176.511 42.1156C176.396 42.1413 176.216 42.1112 176.137 42.0341C174.955 40.8731 173.786 39.6996 172.583 38.4985C173.15 37.9399 173.706 37.3952 174.26 36.8473C174.675 36.4367 175.084 36.0192 175.501 35.6111C176.34 34.7892 177.612 34.7974 178.44 35.6255C183.078 40.2626 187.715 44.9003 192.352 49.538C193.212 50.3974 193.217 51.6575 192.357 52.5188C187.751 57.1283 183.143 61.7359 178.534 66.3429C177.658 67.2193 176.405 67.2161 175.531 66.3429C170.902 61.7133 166.272 57.0832 161.643 52.4523C160.796 51.6061 160.781 50.336 161.624 49.4909C164.289 46.8192 166.959 44.1536 169.627 41.4844C170.141 40.9691 170.651 40.4494 171.188 39.9059Z" fill="#222945"/>
</g>
<path d="M213.818 45.3636V57H212.409V45.3636H213.818ZM217.121 57H215.643L219.916 45.3636H221.371L225.643 57H224.166L220.689 47.2045H220.598L217.121 57ZM217.666 52.4545H223.621V53.7045H217.666V52.4545ZM227.456 45.3636H229.138L233.092 55.0227H233.229L237.183 45.3636H238.865V57H237.547V48.1591H237.433L233.797 57H232.524L228.888 48.1591H228.774V57H227.456V45.3636ZM241.69 57V45.3636H243.031V49.6591H243.145C243.243 49.5076 243.38 49.3144 243.554 49.0795C243.732 48.8409 243.986 48.6288 244.315 48.4432C244.649 48.2538 245.099 48.1591 245.668 48.1591C246.402 48.1591 247.05 48.3428 247.611 48.7102C248.171 49.0777 248.609 49.5985 248.923 50.2727C249.238 50.947 249.395 51.7424 249.395 52.6591C249.395 53.5833 249.238 54.3845 248.923 55.0625C248.609 55.7367 248.173 56.2595 247.616 56.6307C247.06 56.9981 246.418 57.1818 245.69 57.1818C245.13 57.1818 244.681 57.089 244.344 56.9034C244.007 56.714 243.747 56.5 243.565 56.2614C243.384 56.0189 243.243 55.8182 243.145 55.6591H242.986V57H241.69ZM243.009 52.6364C243.009 53.2955 243.105 53.8769 243.298 54.3807C243.491 54.8807 243.774 55.2727 244.145 55.5568C244.516 55.8371 244.971 55.9773 245.509 55.9773C246.069 55.9773 246.537 55.8295 246.912 55.5341C247.291 55.2348 247.575 54.8333 247.764 54.3295C247.957 53.822 248.054 53.2576 248.054 52.6364C248.054 52.0227 247.959 51.4697 247.77 50.9773C247.584 50.4811 247.302 50.089 246.923 49.8011C246.548 49.5095 246.077 49.3636 245.509 49.3636C244.963 49.3636 244.505 49.5019 244.134 49.7784C243.762 50.0511 243.482 50.4337 243.293 50.9261C243.103 51.4148 243.009 51.9848 243.009 52.6364ZM251.446 57V48.2727H252.787V57H251.446ZM252.128 46.8182C251.866 46.8182 251.641 46.7292 251.452 46.5511C251.266 46.3731 251.173 46.1591 251.173 45.9091C251.173 45.6591 251.266 45.4451 251.452 45.267C251.641 45.089 251.866 45 252.128 45C252.389 45 252.613 45.089 252.798 45.267C252.988 45.4451 253.082 45.6591 253.082 45.9091C253.082 46.1591 252.988 46.3731 252.798 46.5511C252.613 46.7292 252.389 46.8182 252.128 46.8182ZM258.788 57.1818C257.97 57.1818 257.266 56.9886 256.675 56.6023C256.084 56.2159 255.629 55.6837 255.311 55.0057C254.993 54.3277 254.834 53.553 254.834 52.6818C254.834 51.7955 254.997 51.0133 255.322 50.3352C255.652 49.6534 256.11 49.1212 256.697 48.7386C257.288 48.3523 257.978 48.1591 258.766 48.1591C259.379 48.1591 259.932 48.2727 260.425 48.5C260.917 48.7273 261.321 49.0455 261.635 49.4545C261.949 49.8636 262.144 50.3409 262.22 50.8864H260.879C260.777 50.4886 260.55 50.1364 260.197 49.8295C259.849 49.5189 259.379 49.3636 258.788 49.3636C258.266 49.3636 257.807 49.5 257.413 49.7727C257.023 50.0417 256.718 50.4223 256.499 50.9148C256.283 51.4034 256.175 51.9773 256.175 52.6364C256.175 53.3106 256.281 53.8977 256.493 54.3977C256.709 54.8977 257.012 55.286 257.402 55.5625C257.796 55.839 258.258 55.9773 258.788 55.9773C259.137 55.9773 259.453 55.9167 259.737 55.7955C260.021 55.6742 260.262 55.5 260.459 55.2727C260.656 55.0455 260.796 54.7727 260.879 54.4545H262.22C262.144 54.9697 261.957 55.4337 261.658 55.8466C261.362 56.2557 260.97 56.5814 260.482 56.8239C259.997 57.0625 259.432 57.1818 258.788 57.1818ZM272.476 48.2727V49.4091H267.953V48.2727H272.476ZM269.271 46.1818H270.612V54.5C270.612 54.8788 270.667 55.1629 270.777 55.3523C270.891 55.5379 271.035 55.6629 271.209 55.7273C271.387 55.7879 271.574 55.8182 271.771 55.8182C271.919 55.8182 272.04 55.8106 272.135 55.7955C272.23 55.7765 272.305 55.7614 272.362 55.75L272.635 56.9545C272.544 56.9886 272.417 57.0227 272.254 57.0568C272.091 57.0947 271.885 57.1136 271.635 57.1136C271.256 57.1136 270.885 57.0322 270.521 56.8693C270.161 56.7064 269.862 56.4583 269.624 56.125C269.389 55.7917 269.271 55.3712 269.271 54.8636V46.1818ZM278.058 57.1818C277.217 57.1818 276.492 56.9962 275.882 56.625C275.276 56.25 274.808 55.7273 274.479 55.0568C274.153 54.3826 273.99 53.5985 273.99 52.7045C273.99 51.8106 274.153 51.0227 274.479 50.3409C274.808 49.6553 275.267 49.1212 275.854 48.7386C276.445 48.3523 277.134 48.1591 277.922 48.1591C278.376 48.1591 278.825 48.2348 279.268 48.3864C279.712 48.5379 280.115 48.7841 280.479 49.125C280.842 49.4621 281.132 49.9091 281.348 50.4659C281.564 51.0227 281.672 51.7083 281.672 52.5227V53.0909H274.945V51.9318H280.308C280.308 51.4394 280.21 51 280.013 50.6136C279.82 50.2273 279.543 49.9223 279.183 49.6989C278.827 49.4754 278.407 49.3636 277.922 49.3636C277.388 49.3636 276.926 49.4962 276.536 49.7614C276.149 50.0227 275.852 50.3636 275.643 50.7841C275.435 51.2045 275.331 51.6553 275.331 52.1364V52.9091C275.331 53.5682 275.445 54.1269 275.672 54.5852C275.903 55.0398 276.223 55.3864 276.632 55.625C277.041 55.8598 277.517 55.9773 278.058 55.9773C278.411 55.9773 278.729 55.928 279.013 55.8295C279.301 55.7273 279.549 55.5758 279.757 55.375C279.965 55.1705 280.126 54.9167 280.24 54.6136L281.536 54.9773C281.399 55.4167 281.17 55.803 280.848 56.1364C280.526 56.4659 280.128 56.7235 279.655 56.9091C279.181 57.0909 278.649 57.1818 278.058 57.1818ZM283.712 57V48.2727H285.007V49.6364H285.121C285.303 49.1705 285.596 48.8087 286.001 48.5511C286.407 48.2898 286.893 48.1591 287.462 48.1591C288.037 48.1591 288.517 48.2898 288.899 48.5511C289.286 48.8087 289.587 49.1705 289.803 49.6364H289.893C290.117 49.1856 290.452 48.8277 290.899 48.5625C291.346 48.2936 291.882 48.1591 292.507 48.1591C293.287 48.1591 293.926 48.4034 294.422 48.892C294.918 49.3769 295.166 50.1326 295.166 51.1591V57H293.825V51.1591C293.825 50.5152 293.649 50.0549 293.297 49.7784C292.945 49.5019 292.53 49.3636 292.053 49.3636C291.439 49.3636 290.964 49.5492 290.626 49.9205C290.289 50.2879 290.121 50.7538 290.121 51.3182V57H288.757V51.0227C288.757 50.5265 288.596 50.1269 288.274 49.8239C287.952 49.517 287.537 49.3636 287.03 49.3636C286.681 49.3636 286.356 49.4564 286.053 49.642C285.753 49.8277 285.511 50.0852 285.325 50.4148C285.143 50.7405 285.053 51.1174 285.053 51.5455V57H283.712ZM297.618 60.2727V48.2727H298.913V49.6591H299.072C299.171 49.5076 299.307 49.3144 299.482 49.0795C299.66 48.8409 299.913 48.6288 300.243 48.4432C300.576 48.2538 301.027 48.1591 301.595 48.1591C302.33 48.1591 302.978 48.3428 303.538 48.7102C304.099 49.0777 304.536 49.5985 304.851 50.2727C305.165 50.947 305.322 51.7424 305.322 52.6591C305.322 53.5833 305.165 54.3845 304.851 55.0625C304.536 55.7367 304.101 56.2595 303.544 56.6307C302.987 56.9981 302.345 57.1818 301.618 57.1818C301.057 57.1818 300.608 57.089 300.271 56.9034C299.934 56.714 299.675 56.5 299.493 56.2614C299.311 56.0189 299.171 55.8182 299.072 55.6591H298.959V60.2727H297.618ZM298.936 52.6364C298.936 53.2955 299.033 53.8769 299.226 54.3807C299.419 54.8807 299.701 55.2727 300.072 55.5568C300.444 55.8371 300.898 55.9773 301.436 55.9773C301.997 55.9773 302.464 55.8295 302.839 55.5341C303.218 55.2348 303.502 54.8333 303.692 54.3295C303.885 53.822 303.982 53.2576 303.982 52.6364C303.982 52.0227 303.887 51.4697 303.697 50.9773C303.512 50.4811 303.23 50.089 302.851 49.8011C302.476 49.5095 302.004 49.3636 301.436 49.3636C300.891 49.3636 300.432 49.5019 300.061 49.7784C299.69 50.0511 299.41 50.4337 299.22 50.9261C299.031 51.4148 298.936 51.9848 298.936 52.6364ZM308.709 45.3636V57H307.368V45.3636H308.709ZM313.733 57.2045C313.18 57.2045 312.678 57.1004 312.227 56.892C311.777 56.6799 311.419 56.375 311.153 55.9773C310.888 55.5758 310.756 55.0909 310.756 54.5227C310.756 54.0227 310.854 53.6174 311.051 53.3068C311.248 52.9924 311.511 52.7462 311.841 52.5682C312.17 52.3902 312.534 52.2576 312.932 52.1705C313.333 52.0795 313.737 52.0076 314.142 51.9545C314.672 51.8864 315.102 51.8352 315.432 51.8011C315.765 51.7633 316.008 51.7008 316.159 51.6136C316.314 51.5265 316.392 51.375 316.392 51.1591V51.1136C316.392 50.553 316.239 50.1174 315.932 49.8068C315.629 49.4962 315.169 49.3409 314.551 49.3409C313.911 49.3409 313.409 49.4811 313.045 49.7614C312.682 50.0417 312.426 50.3409 312.278 50.6591L311.006 50.2045C311.233 49.6742 311.536 49.2614 311.915 48.9659C312.297 48.6667 312.714 48.4583 313.165 48.3409C313.619 48.2197 314.066 48.1591 314.506 48.1591C314.786 48.1591 315.108 48.1932 315.472 48.2614C315.839 48.3258 316.193 48.4602 316.534 48.6648C316.879 48.8693 317.165 49.178 317.392 49.5909C317.619 50.0038 317.733 50.5568 317.733 51.25V57H316.392V55.8182H316.324C316.233 56.0076 316.081 56.2102 315.869 56.4261C315.657 56.642 315.375 56.8258 315.023 56.9773C314.67 57.1288 314.241 57.2045 313.733 57.2045ZM313.938 56C314.468 56 314.915 55.8958 315.278 55.6875C315.646 55.4792 315.922 55.2102 316.108 54.8807C316.297 54.5511 316.392 54.2045 316.392 53.8409V52.6136C316.335 52.6818 316.21 52.7443 316.017 52.8011C315.828 52.8542 315.608 52.9015 315.358 52.9432C315.112 52.9811 314.871 53.0152 314.636 53.0455C314.405 53.072 314.218 53.0947 314.074 53.1136C313.725 53.1591 313.4 53.233 313.097 53.3352C312.797 53.4337 312.555 53.5833 312.369 53.7841C312.188 53.9811 312.097 54.25 312.097 54.5909C312.097 55.0568 312.269 55.4091 312.614 55.6477C312.962 55.8826 313.403 56 313.938 56ZM323.976 48.2727V49.4091H319.453V48.2727H323.976ZM320.771 46.1818H322.112V54.5C322.112 54.8788 322.167 55.1629 322.277 55.3523C322.391 55.5379 322.535 55.6629 322.709 55.7273C322.887 55.7879 323.074 55.8182 323.271 55.8182C323.419 55.8182 323.54 55.8106 323.635 55.7955C323.73 55.7765 323.805 55.7614 323.862 55.75L324.135 56.9545C324.044 56.9886 323.917 57.0227 323.754 57.0568C323.591 57.0947 323.385 57.1136 323.135 57.1136C322.756 57.1136 322.385 57.0322 322.021 56.8693C321.661 56.7064 321.362 56.4583 321.124 56.125C320.889 55.7917 320.771 55.3712 320.771 54.8636V46.1818ZM329.558 57.1818C328.717 57.1818 327.992 56.9962 327.382 56.625C326.776 56.25 326.308 55.7273 325.979 55.0568C325.653 54.3826 325.49 53.5985 325.49 52.7045C325.49 51.8106 325.653 51.0227 325.979 50.3409C326.308 49.6553 326.767 49.1212 327.354 48.7386C327.945 48.3523 328.634 48.1591 329.422 48.1591C329.876 48.1591 330.325 48.2348 330.768 48.3864C331.212 48.5379 331.615 48.7841 331.979 49.125C332.342 49.4621 332.632 49.9091 332.848 50.4659C333.064 51.0227 333.172 51.7083 333.172 52.5227V53.0909H326.445V51.9318H331.808C331.808 51.4394 331.71 51 331.513 50.6136C331.32 50.2273 331.043 49.9223 330.683 49.6989C330.327 49.4754 329.907 49.3636 329.422 49.3636C328.888 49.3636 328.426 49.4962 328.036 49.7614C327.649 50.0227 327.352 50.3636 327.143 50.7841C326.935 51.2045 326.831 51.6553 326.831 52.1364V52.9091C326.831 53.5682 326.945 54.1269 327.172 54.5852C327.403 55.0398 327.723 55.3864 328.132 55.625C328.541 55.8598 329.017 55.9773 329.558 55.9773C329.911 55.9773 330.229 55.928 330.513 55.8295C330.801 55.7273 331.049 55.5758 331.257 55.375C331.465 55.1705 331.626 54.9167 331.74 54.6136L333.036 54.9773C332.899 55.4167 332.67 55.803 332.348 56.1364C332.026 56.4659 331.628 56.7235 331.155 56.9091C330.681 57.0909 330.149 57.1818 329.558 57.1818ZM339.712 57V48.2727H341.007V49.5909H341.098C341.257 49.1591 341.545 48.8087 341.962 48.5398C342.378 48.2708 342.848 48.1364 343.371 48.1364C343.469 48.1364 343.592 48.1383 343.74 48.142C343.888 48.1458 344 48.1515 344.075 48.1591V49.5227C344.03 49.5114 343.926 49.4943 343.763 49.4716C343.604 49.4451 343.435 49.4318 343.257 49.4318C342.833 49.4318 342.454 49.5208 342.121 49.6989C341.791 49.8731 341.53 50.1155 341.337 50.4261C341.147 50.733 341.053 51.0833 341.053 51.4773V57H339.712ZM349.058 57.1818C348.217 57.1818 347.492 56.9962 346.882 56.625C346.276 56.25 345.808 55.7273 345.479 55.0568C345.153 54.3826 344.99 53.5985 344.99 52.7045C344.99 51.8106 345.153 51.0227 345.479 50.3409C345.808 49.6553 346.267 49.1212 346.854 48.7386C347.445 48.3523 348.134 48.1591 348.922 48.1591C349.376 48.1591 349.825 48.2348 350.268 48.3864C350.712 48.5379 351.115 48.7841 351.479 49.125C351.842 49.4621 352.132 49.9091 352.348 50.4659C352.564 51.0227 352.672 51.7083 352.672 52.5227V53.0909H345.945V51.9318H351.308C351.308 51.4394 351.21 51 351.013 50.6136C350.82 50.2273 350.543 49.9223 350.183 49.6989C349.827 49.4754 349.407 49.3636 348.922 49.3636C348.388 49.3636 347.926 49.4962 347.536 49.7614C347.149 50.0227 346.852 50.3636 346.643 50.7841C346.435 51.2045 346.331 51.6553 346.331 52.1364V52.9091C346.331 53.5682 346.445 54.1269 346.672 54.5852C346.903 55.0398 347.223 55.3864 347.632 55.625C348.041 55.8598 348.517 55.9773 349.058 55.9773C349.411 55.9773 349.729 55.928 350.013 55.8295C350.301 55.7273 350.549 55.5758 350.757 55.375C350.965 55.1705 351.126 54.9167 351.24 54.6136L352.536 54.9773C352.399 55.4167 352.17 55.803 351.848 56.1364C351.526 56.4659 351.128 56.7235 350.655 56.9091C350.181 57.0909 349.649 57.1818 349.058 57.1818ZM354.712 60.2727V48.2727H356.007V49.6591H356.166C356.265 49.5076 356.401 49.3144 356.575 49.0795C356.753 48.8409 357.007 48.6288 357.337 48.4432C357.67 48.2538 358.121 48.1591 358.689 48.1591C359.424 48.1591 360.071 48.3428 360.632 48.7102C361.193 49.0777 361.63 49.5985 361.945 50.2727C362.259 50.947 362.416 51.7424 362.416 52.6591C362.416 53.5833 362.259 54.3845 361.945 55.0625C361.63 55.7367 361.195 56.2595 360.638 56.6307C360.081 56.9981 359.439 57.1818 358.712 57.1818C358.151 57.1818 357.702 57.089 357.365 56.9034C357.028 56.714 356.768 56.5 356.587 56.2614C356.405 56.0189 356.265 55.8182 356.166 55.6591H356.053V60.2727H354.712ZM356.03 52.6364C356.03 53.2955 356.126 53.8769 356.32 54.3807C356.513 54.8807 356.795 55.2727 357.166 55.5568C357.537 55.8371 357.992 55.9773 358.53 55.9773C359.09 55.9773 359.558 55.8295 359.933 55.5341C360.312 55.2348 360.596 54.8333 360.786 54.3295C360.979 53.822 361.075 53.2576 361.075 52.6364C361.075 52.0227 360.981 51.4697 360.791 50.9773C360.606 50.4811 360.323 50.089 359.945 49.8011C359.57 49.5095 359.098 49.3636 358.53 49.3636C357.984 49.3636 357.526 49.5019 357.155 49.7784C356.784 50.0511 356.503 50.4337 356.314 50.9261C356.125 51.4148 356.03 51.9848 356.03 52.6364ZM368.007 57.1818C367.219 57.1818 366.528 56.9943 365.933 56.6193C365.342 56.2443 364.88 55.7197 364.547 55.0455C364.217 54.3712 364.053 53.5833 364.053 52.6818C364.053 51.7727 364.217 50.9792 364.547 50.3011C364.88 49.6231 365.342 49.0966 365.933 48.7216C366.528 48.3466 367.219 48.1591 368.007 48.1591C368.795 48.1591 369.484 48.3466 370.075 48.7216C370.67 49.0966 371.132 49.6231 371.462 50.3011C371.795 50.9792 371.962 51.7727 371.962 52.6818C371.962 53.5833 371.795 54.3712 371.462 55.0455C371.132 55.7197 370.67 56.2443 370.075 56.6193C369.484 56.9943 368.795 57.1818 368.007 57.1818ZM368.007 55.9773C368.606 55.9773 369.098 55.8239 369.484 55.517C369.871 55.2102 370.157 54.8068 370.342 54.3068C370.528 53.8068 370.621 53.2652 370.621 52.6818C370.621 52.0985 370.528 51.5549 370.342 51.0511C370.157 50.5473 369.871 50.1402 369.484 49.8295C369.098 49.5189 368.606 49.3636 368.007 49.3636C367.409 49.3636 366.916 49.5189 366.53 49.8295C366.143 50.1402 365.857 50.5473 365.672 51.0511C365.486 51.5549 365.393 52.0985 365.393 52.6818C365.393 53.2652 365.486 53.8068 365.672 54.3068C365.857 54.8068 366.143 55.2102 366.53 55.517C366.916 55.8239 367.409 55.9773 368.007 55.9773ZM380.19 50.2273L378.986 50.5682C378.91 50.3674 378.798 50.1723 378.651 49.983C378.507 49.7898 378.31 49.6307 378.06 49.5057C377.81 49.3807 377.49 49.3182 377.099 49.3182C376.565 49.3182 376.12 49.4413 375.764 49.6875C375.412 49.9299 375.236 50.2386 375.236 50.6136C375.236 50.947 375.357 51.2102 375.599 51.4034C375.842 51.5966 376.221 51.7576 376.736 51.8864L378.031 52.2045C378.812 52.3939 379.393 52.6837 379.776 53.0739C380.158 53.4602 380.349 53.9583 380.349 54.5682C380.349 55.0682 380.205 55.5152 379.918 55.9091C379.634 56.303 379.236 56.6136 378.724 56.8409C378.213 57.0682 377.618 57.1818 376.94 57.1818C376.05 57.1818 375.313 56.9886 374.73 56.6023C374.147 56.2159 373.777 55.6515 373.622 54.9091L374.895 54.5909C375.016 55.0606 375.245 55.4129 375.582 55.6477C375.923 55.8826 376.368 56 376.918 56C377.543 56 378.039 55.8674 378.406 55.6023C378.777 55.3333 378.963 55.0114 378.963 54.6364C378.963 54.3333 378.857 54.0795 378.645 53.875C378.433 53.6667 378.107 53.5114 377.668 53.4091L376.213 53.0682C375.414 52.8788 374.827 52.5852 374.452 52.1875C374.08 51.786 373.895 51.2841 373.895 50.6818C373.895 50.1894 374.033 49.7538 374.31 49.375C374.59 48.9962 374.971 48.6989 375.452 48.483C375.937 48.267 376.486 48.1591 377.099 48.1591C377.963 48.1591 378.641 48.3485 379.134 48.7273C379.63 49.1061 379.982 49.6061 380.19 50.2273ZM382.368 57V48.2727H383.709V57H382.368ZM383.05 46.8182C382.788 46.8182 382.563 46.7292 382.374 46.5511C382.188 46.3731 382.095 46.1591 382.095 45.9091C382.095 45.6591 382.188 45.4451 382.374 45.267C382.563 45.089 382.788 45 383.05 45C383.311 45 383.535 45.089 383.72 45.267C383.91 45.4451 384.004 45.6591 384.004 45.9091C384.004 46.1591 383.91 46.3731 383.72 46.5511C383.535 46.7292 383.311 46.8182 383.05 46.8182ZM389.96 48.2727V49.4091H385.438V48.2727H389.96ZM386.756 46.1818H388.097V54.5C388.097 54.8788 388.152 55.1629 388.261 55.3523C388.375 55.5379 388.519 55.6629 388.693 55.7273C388.871 55.7879 389.059 55.8182 389.256 55.8182C389.403 55.8182 389.525 55.8106 389.619 55.7955C389.714 55.7765 389.79 55.7614 389.847 55.75L390.119 56.9545C390.028 56.9886 389.902 57.0227 389.739 57.0568C389.576 57.0947 389.369 57.1136 389.119 57.1136C388.741 57.1136 388.369 57.0322 388.006 56.8693C387.646 56.7064 387.347 56.4583 387.108 56.125C386.873 55.7917 386.756 55.3712 386.756 54.8636V46.1818ZM395.429 57.1818C394.641 57.1818 393.95 56.9943 393.355 56.6193C392.764 56.2443 392.302 55.7197 391.969 55.0455C391.639 54.3712 391.474 53.5833 391.474 52.6818C391.474 51.7727 391.639 50.9792 391.969 50.3011C392.302 49.6231 392.764 49.0966 393.355 48.7216C393.95 48.3466 394.641 48.1591 395.429 48.1591C396.217 48.1591 396.906 48.3466 397.497 48.7216C398.092 49.0966 398.554 49.6231 398.884 50.3011C399.217 50.9792 399.384 51.7727 399.384 52.6818C399.384 53.5833 399.217 54.3712 398.884 55.0455C398.554 55.7197 398.092 56.2443 397.497 56.6193C396.906 56.9943 396.217 57.1818 395.429 57.1818ZM395.429 55.9773C396.027 55.9773 396.52 55.8239 396.906 55.517C397.293 55.2102 397.579 54.8068 397.764 54.3068C397.95 53.8068 398.043 53.2652 398.043 52.6818C398.043 52.0985 397.95 51.5549 397.764 51.0511C397.579 50.5473 397.293 50.1402 396.906 49.8295C396.52 49.5189 396.027 49.3636 395.429 49.3636C394.83 49.3636 394.338 49.5189 393.952 49.8295C393.565 50.1402 393.279 50.5473 393.094 51.0511C392.908 51.5549 392.815 52.0985 392.815 52.6818C392.815 53.2652 392.908 53.8068 393.094 54.3068C393.279 54.8068 393.565 55.2102 393.952 55.517C394.338 55.8239 394.83 55.9773 395.429 55.9773ZM401.43 57V48.2727H402.726V49.5909H402.817C402.976 49.1591 403.264 48.8087 403.68 48.5398C404.097 48.2708 404.567 48.1364 405.089 48.1364C405.188 48.1364 405.311 48.1383 405.459 48.142C405.607 48.1458 405.718 48.1515 405.794 48.1591V49.5227C405.749 49.5114 405.644 49.4943 405.482 49.4716C405.322 49.4451 405.154 49.4318 404.976 49.4318C404.552 49.4318 404.173 49.5208 403.839 49.6989C403.51 49.8731 403.249 50.1155 403.055 50.4261C402.866 50.733 402.771 51.0833 402.771 51.4773V57H401.43ZM408.513 60.2727C408.286 60.2727 408.083 60.2538 407.905 60.2159C407.727 60.1818 407.604 60.1477 407.536 60.1136L407.876 58.9318C408.202 59.0152 408.49 59.0455 408.74 59.0227C408.99 59 409.212 58.8883 409.405 58.6875C409.602 58.4905 409.782 58.1705 409.945 57.7273L410.195 57.0455L406.967 48.2727H408.422L410.831 55.2273H410.922L413.331 48.2727H414.786L411.081 58.2727C410.914 58.7235 410.708 59.0966 410.462 59.392C410.215 59.6913 409.929 59.9129 409.604 60.0568C409.282 60.2008 408.918 60.2727 408.513 60.2727Z" fill="#222945"/>
</g>
<g filter="url(#filter5_d_2798_12190)">
<rect x="121" y="120" width="334" height="80" rx="40" fill="white" shape-rendering="crispEdges"/>
<path d="M182.667 151.049V147.462H186.049V151.049H182.667Z" fill="#0DDA84"/>
<path d="M194.841 151.049V147.462H198.223V151.049H194.841Z" fill="#0DDA84"/>
<path d="M217.261 151.049V147.462H220.643V151.049H217.261Z" fill="#0DDA84"/>
<path d="M173.857 158.292H170.5V172.23H173.857V158.292Z" fill="#222945"/>
<path d="M173.857 147.462H170.5V155.879H173.857V147.462Z" fill="#0DDA84"/>
<path d="M237.614 147.462H234.258V155.879H237.614V147.462Z" fill="#0DDA84"/>
<path d="M175.419 172.23L182.004 153.142H186.514L193.099 172.23H189.307L187.949 168.131H180.57L179.186 172.23H175.419ZM181.569 165.056H186.95L183.772 155.55H184.746L181.569 165.056Z" fill="#222945"/>
<path d="M194.965 172.23V153.142H198.296L205.445 162.853H203.856L210.851 153.142H214.182V172.23H210.672V157.113L212.03 157.446L204.779 167.106H204.369L197.297 157.446L198.45 157.113V172.23H194.965Z" fill="#222945"/>
<path d="M224.909 172.538C223.901 172.538 222.97 172.341 222.116 171.948C221.279 171.538 220.613 170.958 220.118 170.206L220.451 169.54V172.23H217.299V152.834H220.656V161.059L220.143 160.367C220.622 159.615 221.271 159.035 222.091 158.625C222.911 158.198 223.859 157.984 224.935 157.984C226.25 157.984 227.437 158.309 228.496 158.958C229.555 159.607 230.392 160.478 231.007 161.571C231.639 162.665 231.955 163.894 231.955 165.261C231.955 166.627 231.648 167.84 231.033 168.951C230.418 170.061 229.581 170.941 228.522 171.59C227.463 172.222 226.259 172.538 224.909 172.538ZM224.525 169.463C225.294 169.463 225.977 169.284 226.575 168.925C227.173 168.566 227.634 168.071 227.958 167.439C228.3 166.807 228.471 166.081 228.471 165.261C228.471 164.441 228.3 163.724 227.958 163.109C227.634 162.477 227.173 161.981 226.575 161.623C225.977 161.247 225.294 161.059 224.525 161.059C223.756 161.059 223.124 161.238 222.526 161.597C221.946 161.956 221.484 162.46 221.143 163.109C220.818 163.741 220.656 164.458 220.656 165.261C220.656 166.064 220.818 166.807 221.143 167.439C221.484 168.071 221.946 168.566 222.526 168.925C223.124 169.284 223.79 169.463 224.525 169.463Z" fill="#222945"/>
<path d="M237.614 158.292H234.258V172.23H237.614V158.292Z" fill="#222945"/>
<path d="M247.171 172.538C245.788 172.538 244.541 172.222 243.43 171.59C242.337 170.941 241.475 170.069 240.843 168.976C240.211 167.866 239.895 166.619 239.895 165.235C239.895 163.852 240.211 162.613 240.843 161.52C241.475 160.427 242.337 159.564 243.43 158.932C244.541 158.3 245.788 157.984 247.171 157.984C248.162 157.984 249.084 158.163 249.939 158.522C250.793 158.864 251.527 159.342 252.142 159.957C252.774 160.555 253.227 161.272 253.5 162.109L250.554 163.39C250.297 162.69 249.862 162.126 249.247 161.699C248.649 161.272 247.957 161.059 247.171 161.059C246.437 161.059 245.779 161.238 245.198 161.597C244.635 161.956 244.191 162.451 243.866 163.083C243.541 163.715 243.379 164.441 243.379 165.261C243.379 166.081 243.541 166.807 243.866 167.439C244.191 168.071 244.635 168.566 245.198 168.925C245.779 169.284 246.437 169.463 247.171 169.463C247.974 169.463 248.675 169.25 249.272 168.822C249.87 168.395 250.297 167.823 250.554 167.106L253.5 168.438C253.227 169.224 252.783 169.933 252.168 170.565C251.553 171.18 250.818 171.667 249.964 172.025C249.11 172.367 248.179 172.538 247.171 172.538Z" fill="#222945"/>
<path d="M288 144L288 178" stroke="#D2DDE8"/>
<path d="M315.146 155.363V167H313.737V155.363H315.146ZM318.449 167H316.972L321.244 155.363H322.699L326.972 167H325.494L322.017 157.204H321.926L318.449 167ZM318.994 162.454H324.949V163.704H318.994V162.454ZM328.784 155.363H330.466L334.42 165.022H334.557L338.511 155.363H340.193V167H338.875V158.159H338.761L335.125 167H333.852L330.216 158.159H330.102V167H328.784V155.363ZM343.018 167V155.363H344.359V159.659H344.473C344.571 159.507 344.708 159.314 344.882 159.079C345.06 158.841 345.314 158.629 345.643 158.443C345.977 158.254 346.428 158.159 346.996 158.159C347.731 158.159 348.378 158.343 348.939 158.71C349.5 159.077 349.937 159.598 350.251 160.272C350.566 160.947 350.723 161.742 350.723 162.659C350.723 163.583 350.566 164.384 350.251 165.062C349.937 165.736 349.501 166.259 348.945 166.63C348.388 166.998 347.746 167.182 347.018 167.182C346.458 167.182 346.009 167.089 345.672 166.903C345.335 166.714 345.075 166.5 344.893 166.261C344.712 166.019 344.571 165.818 344.473 165.659H344.314V167H343.018ZM344.337 162.636C344.337 163.295 344.433 163.877 344.626 164.38C344.82 164.88 345.102 165.272 345.473 165.557C345.844 165.837 346.299 165.977 346.837 165.977C347.397 165.977 347.865 165.829 348.24 165.534C348.619 165.235 348.903 164.833 349.092 164.329C349.286 163.822 349.382 163.257 349.382 162.636C349.382 162.022 349.287 161.469 349.098 160.977C348.912 160.481 348.63 160.089 348.251 159.801C347.876 159.509 347.405 159.363 346.837 159.363C346.291 159.363 345.833 159.502 345.462 159.778C345.09 160.051 344.81 160.433 344.621 160.926C344.431 161.415 344.337 161.985 344.337 162.636ZM352.774 167V158.272H354.115V167H352.774ZM353.456 156.818C353.195 156.818 352.969 156.729 352.78 156.551C352.594 156.373 352.501 156.159 352.501 155.909C352.501 155.659 352.594 155.445 352.78 155.267C352.969 155.089 353.195 155 353.456 155C353.717 155 353.941 155.089 354.126 155.267C354.316 155.445 354.411 155.659 354.411 155.909C354.411 156.159 354.316 156.373 354.126 156.551C353.941 156.729 353.717 156.818 353.456 156.818ZM360.116 167.182C359.298 167.182 358.594 166.988 358.003 166.602C357.412 166.216 356.957 165.683 356.639 165.005C356.321 164.327 356.162 163.553 356.162 162.682C356.162 161.795 356.325 161.013 356.651 160.335C356.98 159.653 357.438 159.121 358.026 158.738C358.616 158.352 359.306 158.159 360.094 158.159C360.707 158.159 361.26 158.272 361.753 158.5C362.245 158.727 362.649 159.045 362.963 159.454C363.277 159.863 363.473 160.341 363.548 160.886H362.207C362.105 160.488 361.878 160.136 361.526 159.829C361.177 159.519 360.707 159.363 360.116 159.363C359.594 159.363 359.135 159.5 358.741 159.772C358.351 160.041 358.046 160.422 357.827 160.915C357.611 161.403 357.503 161.977 357.503 162.636C357.503 163.31 357.609 163.897 357.821 164.397C358.037 164.897 358.34 165.286 358.73 165.562C359.124 165.839 359.586 165.977 360.116 165.977C360.465 165.977 360.781 165.916 361.065 165.795C361.349 165.674 361.59 165.5 361.787 165.272C361.984 165.045 362.124 164.772 362.207 164.454H363.548C363.473 164.969 363.285 165.433 362.986 165.846C362.69 166.255 362.298 166.581 361.81 166.824C361.325 167.062 360.76 167.182 360.116 167.182ZM373.668 167.182C372.827 167.182 372.101 166.996 371.491 166.625C370.885 166.25 370.418 165.727 370.088 165.057C369.762 164.382 369.599 163.598 369.599 162.704C369.599 161.81 369.762 161.022 370.088 160.341C370.418 159.655 370.876 159.121 371.463 158.738C372.054 158.352 372.743 158.159 373.531 158.159C373.986 158.159 374.435 158.235 374.878 158.386C375.321 158.538 375.724 158.784 376.088 159.125C376.452 159.462 376.741 159.909 376.957 160.466C377.173 161.022 377.281 161.708 377.281 162.522V163.091H370.554V161.932H375.918C375.918 161.439 375.819 161 375.622 160.613C375.429 160.227 375.152 159.922 374.793 159.699C374.437 159.475 374.016 159.363 373.531 159.363C372.997 159.363 372.535 159.496 372.145 159.761C371.759 160.022 371.461 160.363 371.253 160.784C371.045 161.204 370.94 161.655 370.94 162.136V162.909C370.94 163.568 371.054 164.127 371.281 164.585C371.512 165.04 371.832 165.386 372.241 165.625C372.651 165.86 373.126 165.977 373.668 165.977C374.02 165.977 374.338 165.928 374.622 165.829C374.91 165.727 375.158 165.576 375.366 165.375C375.575 165.17 375.736 164.916 375.849 164.613L377.145 164.977C377.009 165.416 376.779 165.803 376.457 166.136C376.135 166.466 375.738 166.723 375.264 166.909C374.791 167.091 374.259 167.182 373.668 167.182ZM380.662 161.75V167H379.321V158.272H380.616V159.636H380.73C380.935 159.193 381.245 158.837 381.662 158.568C382.079 158.295 382.616 158.159 383.276 158.159C383.866 158.159 384.384 158.28 384.827 158.522C385.27 158.761 385.615 159.125 385.861 159.613C386.107 160.098 386.23 160.712 386.23 161.454V167H384.889V161.545C384.889 160.86 384.711 160.326 384.355 159.943C383.999 159.557 383.51 159.363 382.889 159.363C382.461 159.363 382.079 159.456 381.741 159.642C381.408 159.827 381.145 160.098 380.952 160.454C380.759 160.81 380.662 161.242 380.662 161.75ZM392.203 170.454C391.555 170.454 390.999 170.371 390.533 170.204C390.067 170.041 389.679 169.826 389.368 169.557C389.061 169.291 388.817 169.007 388.635 168.704L389.703 167.954C389.824 168.113 389.978 168.295 390.163 168.5C390.349 168.708 390.603 168.888 390.925 169.04C391.25 169.195 391.677 169.272 392.203 169.272C392.908 169.272 393.489 169.102 393.947 168.761C394.406 168.42 394.635 167.886 394.635 167.159V165.386H394.521C394.423 165.545 394.283 165.742 394.101 165.977C393.923 166.208 393.665 166.415 393.328 166.596C392.995 166.774 392.544 166.863 391.976 166.863C391.271 166.863 390.639 166.697 390.078 166.363C389.521 166.03 389.08 165.545 388.754 164.909C388.432 164.272 388.271 163.5 388.271 162.591C388.271 161.697 388.429 160.918 388.743 160.255C389.057 159.589 389.495 159.074 390.055 158.71C390.616 158.343 391.264 158.159 391.999 158.159C392.567 158.159 393.018 158.254 393.351 158.443C393.688 158.629 393.946 158.841 394.124 159.079C394.305 159.314 394.446 159.507 394.544 159.659H394.68V158.272H395.976V167.25C395.976 168 395.805 168.61 395.464 169.079C395.127 169.553 394.673 169.899 394.101 170.119C393.533 170.343 392.9 170.454 392.203 170.454ZM392.158 165.659C392.696 165.659 393.15 165.536 393.521 165.29C393.893 165.043 394.175 164.689 394.368 164.227C394.561 163.765 394.658 163.212 394.658 162.568C394.658 161.939 394.563 161.384 394.374 160.903C394.184 160.422 393.904 160.045 393.533 159.772C393.161 159.5 392.703 159.363 392.158 159.363C391.589 159.363 391.116 159.507 390.737 159.795C390.362 160.083 390.08 160.469 389.891 160.954C389.705 161.439 389.612 161.977 389.612 162.568C389.612 163.174 389.707 163.71 389.896 164.176C390.089 164.638 390.374 165.002 390.749 165.267C391.127 165.528 391.597 165.659 392.158 165.659ZM398.43 167V158.272H399.771V167H398.43ZM399.112 156.818C398.851 156.818 398.625 156.729 398.436 156.551C398.25 156.373 398.158 156.159 398.158 155.909C398.158 155.659 398.25 155.445 398.436 155.267C398.625 155.089 398.851 155 399.112 155C399.374 155 399.597 155.089 399.783 155.267C399.972 155.445 400.067 155.659 400.067 155.909C400.067 156.159 399.972 156.373 399.783 156.551C399.597 156.729 399.374 156.818 399.112 156.818ZM403.568 161.75V167H402.227V158.272H403.523V159.636H403.636C403.841 159.193 404.152 158.837 404.568 158.568C404.985 158.295 405.523 158.159 406.182 158.159C406.773 158.159 407.29 158.28 407.733 158.522C408.176 158.761 408.521 159.125 408.767 159.613C409.013 160.098 409.136 160.712 409.136 161.454V167H407.795V161.545C407.795 160.86 407.617 160.326 407.261 159.943C406.905 159.557 406.417 159.363 405.795 159.363C405.367 159.363 404.985 159.456 404.648 159.642C404.314 159.827 404.051 160.098 403.858 160.454C403.665 160.81 403.568 161.242 403.568 161.75ZM415.246 167.182C414.405 167.182 413.679 166.996 413.07 166.625C412.464 166.25 411.996 165.727 411.666 165.057C411.34 164.382 411.178 163.598 411.178 162.704C411.178 161.81 411.34 161.022 411.666 160.341C411.996 159.655 412.454 159.121 413.041 158.738C413.632 158.352 414.321 158.159 415.109 158.159C415.564 158.159 416.013 158.235 416.456 158.386C416.899 158.538 417.303 158.784 417.666 159.125C418.03 159.462 418.32 159.909 418.536 160.466C418.751 161.022 418.859 161.708 418.859 162.522V163.091H412.132V161.932H417.496C417.496 161.439 417.397 161 417.2 160.613C417.007 160.227 416.731 159.922 416.371 159.699C416.015 159.475 415.594 159.363 415.109 159.363C414.575 159.363 414.113 159.496 413.723 159.761C413.337 160.022 413.039 160.363 412.831 160.784C412.623 161.204 412.518 161.655 412.518 162.136V162.909C412.518 163.568 412.632 164.127 412.859 164.585C413.09 165.04 413.411 165.386 413.82 165.625C414.229 165.86 414.704 165.977 415.246 165.977C415.598 165.977 415.916 165.928 416.2 165.829C416.488 165.727 416.736 165.576 416.945 165.375C417.153 165.17 417.314 164.916 417.428 164.613L418.723 164.977C418.587 165.416 418.357 165.803 418.036 166.136C417.714 166.466 417.316 166.723 416.842 166.909C416.369 167.091 415.837 167.182 415.246 167.182Z" fill="#222945"/>
</g>
<defs>
<filter id="filter0_d_2798_12190" x="0" y="322" width="134" height="134" filterUnits="userSpaceOnUse" color-interpolation-filters="sRGB">
<feFlood flood-opacity="0" result="BackgroundImageFix"/>
<feColorMatrix in="SourceAlpha" type="matrix" values="0 0 0 0 0 0 0 0 0 0 0 0 0 0 0 0 0 0 127 0" result="hardAlpha"/>
<feOffset dy="8"/>
<feGaussianBlur stdDeviation="8"/>
<feComposite in2="hardAlpha" operator="out"/>
<feColorMatrix type="matrix" values="0 0 0 0 0.502546 0 0 0 0 0.546482 0 0 0 0 0.722222 0 0 0 0.12 0"/>
<feBlend mode="multiply" in2="BackgroundImageFix" result="effect1_dropShadow_2798_12190"/>
<feBlend mode="normal" in="SourceGraphic" in2="effect1_dropShadow_2798_12190" result="shape"/>
</filter>
<filter id="filter1_d_2798_12190" x="147" y="322" width="134" height="134" filterUnits="userSpaceOnUse" color-interpolation-filters="sRGB">
<feFlood flood-opacity="0" result="BackgroundImageFix"/>
<feColorMatrix in="SourceAlpha" type="matrix" values="0 0 0 0 0 0 0 0 0 0 0 0 0 0 0 0 0 0 127 0" result="hardAlpha"/>
<feOffset dy="8"/>
<feGaussianBlur stdDeviation="8"/>
<feComposite in2="hardAlpha" operator="out"/>
<feColorMatrix type="matrix" values="0 0 0 0 0.502546 0 0 0 0 0.546482 0 0 0 0 0.722222 0 0 0 0.12 0"/>
<feBlend mode="multiply" in2="BackgroundImageFix" result="effect1_dropShadow_2798_12190"/>
<feBlend mode="normal" in="SourceGraphic" in2="effect1_dropShadow_2798_12190" result="shape"/>
</filter>
<filter id="filter2_d_2798_12190" x="294" y="322" width="134" height="134" filterUnits="userSpaceOnUse" color-interpolation-filters="sRGB">
<feFlood flood-opacity="0" result="BackgroundImageFix"/>
<feColorMatrix in="SourceAlpha" type="matrix" values="0 0 0 0 0 0 0 0 0 0 0 0 0 0 0 0 0 0 127 0" result="hardAlpha"/>
<feOffset dy="8"/>
<feGaussianBlur stdDeviation="8"/>
<feComposite in2="hardAlpha" operator="out"/>
<feColorMatrix type="matrix" values="0 0 0 0 0.502546 0 0 0 0 0.546482 0 0 0 0 0.722222 0 0 0 0.12 0"/>
<feBlend mode="multiply" in2="BackgroundImageFix" result="effect1_dropShadow_2798_12190"/>
<feBlend mode="normal" in="SourceGraphic" in2="effect1_dropShadow_2798_12190" result="shape"/>
</filter>
<filter id="filter3_d_2798_12190" x="441" y="322" width="134" height="134" filterUnits="userSpaceOnUse" color-interpolation-filters="sRGB">
<feFlood flood-opacity="0" result="BackgroundImageFix"/>
<feColorMatrix in="SourceAlpha" type="matrix" values="0 0 0 0 0 0 0 0 0 0 0 0 0 0 0 0 0 0 127 0" result="hardAlpha"/>
<feOffset dy="8"/>
<feGaussianBlur stdDeviation="8"/>
<feComposite in2="hardAlpha" operator="out"/>
<feColorMatrix type="matrix" values="0 0 0 0 0.502546 0 0 0 0 0.546482 0 0 0 0 0.722222 0 0 0 0.12 0"/>
<feBlend mode="multiply" in2="BackgroundImageFix" result="effect1_dropShadow_2798_12190"/>
<feBlend mode="normal" in="SourceGraphic" in2="effect1_dropShadow_2798_12190" result="shape"/>
</filter>
<filter id="filter4_d_2798_12190" x="105" y="2" width="366" height="112" filterUnits="userSpaceOnUse" color-interpolation-filters="sRGB">
<feFlood flood-opacity="0" result="BackgroundImageFix"/>
<feColorMatrix in="SourceAlpha" type="matrix" values="0 0 0 0 0 0 0 0 0 0 0 0 0 0 0 0 0 0 127 0" result="hardAlpha"/>
<feOffset dy="8"/>
<feGaussianBlur stdDeviation="8"/>
<feComposite in2="hardAlpha" operator="out"/>
<feColorMatrix type="matrix" values="0 0 0 0 0.502546 0 0 0 0 0.546482 0 0 0 0 0.722222 0 0 0 0.12 0"/>
<feBlend mode="multiply" in2="BackgroundImageFix" result="effect1_dropShadow_2798_12190"/>
<feBlend mode="normal" in="SourceGraphic" in2="effect1_dropShadow_2798_12190" result="shape"/>
</filter>
<filter id="filter5_d_2798_12190" x="105" y="112" width="366" height="112" filterUnits="userSpaceOnUse" color-interpolation-filters="sRGB">
<feFlood flood-opacity="0" result="BackgroundImageFix"/>
<feColorMatrix in="SourceAlpha" type="matrix" values="0 0 0 0 0 0 0 0 0 0 0 0 0 0 0 0 0 0 127 0" result="hardAlpha"/>
<feOffset dy="8"/>
<feGaussianBlur stdDeviation="8"/>
<feComposite in2="hardAlpha" operator="out"/>
<feColorMatrix type="matrix" values="0 0 0 0 0.502546 0 0 0 0 0.546482 0 0 0 0 0.722222 0 0 0 0.12 0"/>
<feBlend mode="multiply" in2="BackgroundImageFix" result="effect1_dropShadow_2798_12190"/>
<feBlend mode="normal" in="SourceGraphic" in2="effect1_dropShadow_2798_12190" result="shape"/>
</filter>
<clipPath id="clip0_2798_12190">
<rect width="53.55" height="32.3" fill="white" transform="translate(331.25 369.1)"/>
</clipPath>
<clipPath id="clip1_2798_12190">
<rect width="32" height="32" fill="white" transform="translate(161 35)"/>
</clipPath>
</defs>
</svg>
